%TF.GenerationSoftware,KiCad,Pcbnew,8.0.5*%
%TF.CreationDate,2025-06-19T13:46:46-07:00*%
%TF.ProjectId,clock,636c6f63-6b2e-46b6-9963-61645f706362,rev?*%
%TF.SameCoordinates,Original*%
%TF.FileFunction,Copper,L4,Bot*%
%TF.FilePolarity,Positive*%
%FSLAX46Y46*%
G04 Gerber Fmt 4.6, Leading zero omitted, Abs format (unit mm)*
G04 Created by KiCad (PCBNEW 8.0.5) date 2025-06-19 13:46:46*
%MOMM*%
%LPD*%
G01*
G04 APERTURE LIST*
%TA.AperFunction,ComponentPad*%
%ADD10R,1.700000X1.700000*%
%TD*%
%TA.AperFunction,ComponentPad*%
%ADD11O,1.700000X1.700000*%
%TD*%
%TA.AperFunction,ViaPad*%
%ADD12C,0.800000*%
%TD*%
%TA.AperFunction,Conductor*%
%ADD13C,0.300000*%
%TD*%
G04 APERTURE END LIST*
D10*
%TO.P,J7,1,Pin_1*%
%TO.N,GND*%
X251870000Y-157460000D03*
D11*
%TO.P,J7,2,Pin_2*%
%TO.N,D_Out2*%
X251870000Y-160000000D03*
%TO.P,J7,3,Pin_3*%
%TO.N,5V2*%
X251870000Y-162540000D03*
%TD*%
D10*
%TO.P,J5,1,Pin_1*%
%TO.N,GND*%
X218000000Y-157460000D03*
D11*
%TO.P,J5,2,Pin_2*%
%TO.N,D_Out1*%
X218000000Y-160000000D03*
%TO.P,J5,3,Pin_3*%
%TO.N,5V*%
X218000000Y-162540000D03*
%TD*%
D10*
%TO.P,J6,1,Pin_1*%
%TO.N,GND*%
X225580000Y-157460000D03*
D11*
%TO.P,J6,2,Pin_2*%
%TO.N,D_In2*%
X225580000Y-160000000D03*
%TO.P,J6,3,Pin_3*%
%TO.N,5V2*%
X225580000Y-162540000D03*
%TD*%
D10*
%TO.P,J1,1,Pin_1*%
%TO.N,GND*%
X162400000Y-157460000D03*
D11*
%TO.P,J1,2,Pin_2*%
%TO.N,D_In1*%
X162400000Y-160000000D03*
%TO.P,J1,3,Pin_3*%
%TO.N,5V*%
X162400000Y-162540000D03*
%TD*%
D12*
%TO.N,GND*%
X208800000Y-186450000D03*
X199950000Y-124825000D03*
X232925000Y-139300000D03*
X199850000Y-191400000D03*
X171875000Y-133575000D03*
X208650000Y-152775000D03*
X199575000Y-158250000D03*
X233050000Y-172075000D03*
X171625000Y-167400000D03*
%TO.N,5V*%
X177650000Y-153025000D03*
X203000000Y-167050000D03*
X180475000Y-130250000D03*
X180425000Y-195300000D03*
X180400000Y-163825000D03*
X177350000Y-186525000D03*
X202700000Y-133525000D03*
%TO.N,Net-(D2-DOUT)*%
X173450000Y-155850000D03*
X173450000Y-163225000D03*
%TO.N,Net-(D3-DOUT)*%
X174875000Y-130725000D03*
X178125000Y-127450000D03*
%TO.N,D_In1*%
X178325000Y-193450000D03*
X170025000Y-193400000D03*
%TO.N,D_Out1*%
X211625000Y-191650000D03*
X208225000Y-189650000D03*
%TO.N,5V2*%
X245675000Y-149300000D03*
X245825000Y-182625000D03*
%TO.N,D_In2*%
X239350000Y-186900000D03*
X239350000Y-189750000D03*
%TO.N,D_Out2*%
X239325000Y-135175000D03*
X240625000Y-133600000D03*
%TO.N,Net-(D1-DOUT)*%
X203325000Y-191525000D03*
X173425000Y-187400000D03*
%TO.N,Net-(D4-DOUT)*%
X204575000Y-132125000D03*
X201850000Y-129425000D03*
%TO.N,Net-(D5-DOUT)*%
X179100000Y-155975000D03*
X202875000Y-154000000D03*
%TO.N,Net-(D6-DOUT)*%
X206950000Y-166275000D03*
X202575000Y-161800000D03*
%TO.N,Net-(D8-DOUT)*%
X239350000Y-153400000D03*
X239350000Y-155375000D03*
X239350000Y-168600000D03*
X239350000Y-166875000D03*
%TD*%
D13*
%TO.N,Net-(D2-DOUT)*%
X173450000Y-163225000D02*
X173450000Y-155850000D01*
%TO.N,Net-(D3-DOUT)*%
X174875000Y-130700000D02*
X178125000Y-127450000D01*
X174875000Y-130725000D02*
X174875000Y-130700000D01*
%TO.N,D_In1*%
X170025000Y-193400000D02*
X178275000Y-193400000D01*
X178275000Y-193400000D02*
X178325000Y-193450000D01*
%TO.N,D_Out1*%
X208225000Y-189650000D02*
X210225000Y-191650000D01*
X210225000Y-191650000D02*
X211625000Y-191650000D01*
%TO.N,D_In2*%
X239350000Y-189750000D02*
X239350000Y-186900000D01*
%TO.N,D_Out2*%
X239325000Y-134900000D02*
X240625000Y-133600000D01*
X239325000Y-135175000D02*
X239325000Y-134900000D01*
%TO.N,Net-(D1-DOUT)*%
X181400000Y-185600000D02*
X177925000Y-189075000D01*
X203375000Y-189925000D02*
X199050000Y-185600000D01*
X198900000Y-185600000D02*
X181400000Y-185600000D01*
X203325000Y-191525000D02*
X203375000Y-191475000D01*
X177925000Y-189075000D02*
X175100000Y-189075000D01*
X175100000Y-189075000D02*
X173425000Y-187400000D01*
X203375000Y-191475000D02*
X203375000Y-189925000D01*
X199050000Y-185600000D02*
X198900000Y-185600000D01*
%TO.N,Net-(D4-DOUT)*%
X201850000Y-129425000D02*
X204550000Y-132125000D01*
X204550000Y-132125000D02*
X204575000Y-132125000D01*
%TO.N,Net-(D5-DOUT)*%
X202875000Y-154000000D02*
X181075000Y-154000000D01*
X181075000Y-154000000D02*
X179100000Y-155975000D01*
%TO.N,Net-(D6-DOUT)*%
X202575000Y-161800000D02*
X206950000Y-166175000D01*
X206950000Y-166175000D02*
X206950000Y-166275000D01*
%TO.N,Net-(D8-DOUT)*%
X239350000Y-155375000D02*
X239350000Y-153400000D01*
X239350000Y-168600000D02*
X239350000Y-166875000D01*
%TD*%
M02*
