%TF.GenerationSoftware,KiCad,Pcbnew,8.0.5*%
%TF.CreationDate,2025-06-19T13:46:46-07:00*%
%TF.ProjectId,clock,636c6f63-6b2e-46b6-9963-61645f706362,rev?*%
%TF.SameCoordinates,Original*%
%TF.FileFunction,Legend,Bot*%
%TF.FilePolarity,Positive*%
%FSLAX46Y46*%
G04 Gerber Fmt 4.6, Leading zero omitted, Abs format (unit mm)*
G04 Created by KiCad (PCBNEW 8.0.5) date 2025-06-19 13:46:46*
%MOMM*%
%LPD*%
G01*
G04 APERTURE LIST*
%ADD10C,0.300000*%
%ADD11C,0.000000*%
%ADD12C,0.500000*%
%ADD13R,1.700000X1.700000*%
%ADD14O,1.700000X1.700000*%
G04 APERTURE END LIST*
D10*
X216768182Y-129221418D02*
X216911040Y-129149989D01*
X216911040Y-129149989D02*
X217125325Y-129149989D01*
X217125325Y-129149989D02*
X217339611Y-129221418D01*
X217339611Y-129221418D02*
X217482468Y-129364275D01*
X217482468Y-129364275D02*
X217553897Y-129507132D01*
X217553897Y-129507132D02*
X217625325Y-129792846D01*
X217625325Y-129792846D02*
X217625325Y-130007132D01*
X217625325Y-130007132D02*
X217553897Y-130292846D01*
X217553897Y-130292846D02*
X217482468Y-130435703D01*
X217482468Y-130435703D02*
X217339611Y-130578561D01*
X217339611Y-130578561D02*
X217125325Y-130649989D01*
X217125325Y-130649989D02*
X216982468Y-130649989D01*
X216982468Y-130649989D02*
X216768182Y-130578561D01*
X216768182Y-130578561D02*
X216696754Y-130507132D01*
X216696754Y-130507132D02*
X216696754Y-130007132D01*
X216696754Y-130007132D02*
X216982468Y-130007132D01*
X215839611Y-129149989D02*
X215839611Y-129507132D01*
X216196754Y-129364275D02*
X215839611Y-129507132D01*
X215839611Y-129507132D02*
X215482468Y-129364275D01*
X216053897Y-129792846D02*
X215839611Y-129507132D01*
X215839611Y-129507132D02*
X215625325Y-129792846D01*
X214696754Y-129149989D02*
X214696754Y-129507132D01*
X215053897Y-129364275D02*
X214696754Y-129507132D01*
X214696754Y-129507132D02*
X214339611Y-129364275D01*
X214911040Y-129792846D02*
X214696754Y-129507132D01*
X214696754Y-129507132D02*
X214482468Y-129792846D01*
X213553897Y-129149989D02*
X213553897Y-129507132D01*
X213911040Y-129364275D02*
X213553897Y-129507132D01*
X213553897Y-129507132D02*
X213196754Y-129364275D01*
X213768183Y-129792846D02*
X213553897Y-129507132D01*
X213553897Y-129507132D02*
X213339611Y-129792846D01*
D11*
%TO.C,G\u002A\u002A\u002A*%
G36*
X212047397Y-142685259D02*
G01*
X212033800Y-142698856D01*
X212020202Y-142685259D01*
X212033800Y-142671661D01*
X212047397Y-142685259D01*
G37*
G36*
X214630909Y-136049713D02*
G01*
X214617311Y-136063310D01*
X214603714Y-136049713D01*
X214617311Y-136036115D01*
X214630909Y-136049713D01*
G37*
G36*
X214712493Y-136348856D02*
G01*
X214698896Y-136362454D01*
X214685299Y-136348856D01*
X214698896Y-136335259D01*
X214712493Y-136348856D01*
G37*
G36*
X216888082Y-142522089D02*
G01*
X216874485Y-142535687D01*
X216860887Y-142522089D01*
X216874485Y-142508492D01*
X216888082Y-142522089D01*
G37*
G36*
X217812708Y-128543931D02*
G01*
X217799110Y-128557528D01*
X217785513Y-128543931D01*
X217799110Y-128530334D01*
X217812708Y-128543931D01*
G37*
G36*
X219390010Y-138633224D02*
G01*
X219376412Y-138646822D01*
X219362815Y-138633224D01*
X219376412Y-138619627D01*
X219390010Y-138633224D01*
G37*
G36*
X219417204Y-138551640D02*
G01*
X219403607Y-138565237D01*
X219390010Y-138551640D01*
X219403607Y-138538042D01*
X219417204Y-138551640D01*
G37*
G36*
X214601567Y-136400980D02*
G01*
X214599644Y-136428562D01*
X214587284Y-136436673D01*
X214581895Y-136427052D01*
X214585137Y-136384549D01*
X214594926Y-136371962D01*
X214601567Y-136400980D01*
G37*
G36*
X216969667Y-142508492D02*
G01*
X216967704Y-142522889D01*
X216951537Y-142526622D01*
X216948282Y-142522636D01*
X216951537Y-142490362D01*
X216959717Y-142486108D01*
X216969667Y-142508492D01*
G37*
G36*
X219362815Y-140822411D02*
G01*
X219360852Y-140836808D01*
X219344685Y-140840541D01*
X219341430Y-140836555D01*
X219344685Y-140804281D01*
X219352865Y-140800026D01*
X219362815Y-140822411D01*
G37*
G36*
X214392655Y-142482087D02*
G01*
X214413350Y-142508492D01*
X214412560Y-142514992D01*
X214386155Y-142535687D01*
X214379655Y-142534897D01*
X214358960Y-142508492D01*
X214359751Y-142501992D01*
X214386155Y-142481297D01*
X214392655Y-142482087D01*
G37*
G36*
X214280959Y-128078844D02*
G01*
X214343127Y-128103428D01*
X214379400Y-128142807D01*
X214376972Y-128169116D01*
X214349656Y-128174786D01*
X214318168Y-128149606D01*
X214289246Y-128131707D01*
X214229539Y-128122411D01*
X214210753Y-128122045D01*
X214177752Y-128113587D01*
X214190212Y-128089917D01*
X214218674Y-128076261D01*
X214280959Y-128078844D01*
G37*
G36*
X214653022Y-129813871D02*
G01*
X214701559Y-129817580D01*
X214755881Y-129828983D01*
X214779811Y-129855509D01*
X214788808Y-129907860D01*
X214789102Y-129911038D01*
X214781319Y-129985358D01*
X214735165Y-130037036D01*
X214689275Y-130066395D01*
X214658851Y-130080069D01*
X214575592Y-130058634D01*
X214512652Y-130005589D01*
X214482912Y-129934756D01*
X214496526Y-129859908D01*
X214522821Y-129827804D01*
X214569826Y-129813062D01*
X214653022Y-129813871D01*
G37*
G36*
X217286317Y-136760129D02*
G01*
X217400515Y-136767792D01*
X217534268Y-136778514D01*
X217675610Y-136791212D01*
X217812575Y-136804805D01*
X217933197Y-136818212D01*
X218025511Y-136830351D01*
X218077552Y-136840141D01*
X218112926Y-136858093D01*
X218121960Y-136884801D01*
X218115506Y-136890383D01*
X218067575Y-136899654D01*
X217993090Y-136895388D01*
X217957955Y-136891503D01*
X217864860Y-136884316D01*
X217736992Y-136876560D01*
X217586412Y-136868940D01*
X217425181Y-136862162D01*
X217309792Y-136857057D01*
X217174324Y-136848852D01*
X217066553Y-136839717D01*
X216995370Y-136830439D01*
X216969667Y-136821806D01*
X216974821Y-136809997D01*
X217002251Y-136795697D01*
X217062668Y-136779418D01*
X217166421Y-136757794D01*
X217203639Y-136756605D01*
X217286317Y-136760129D01*
G37*
G36*
X211179094Y-135958318D02*
G01*
X211281592Y-135978414D01*
X211428499Y-136018417D01*
X211622695Y-136078875D01*
X211680035Y-136097575D01*
X211815091Y-136142665D01*
X211930591Y-136182653D01*
X212015770Y-136213762D01*
X212059866Y-136232218D01*
X212108493Y-136254108D01*
X212192395Y-136286821D01*
X212291022Y-136322109D01*
X212379678Y-136353380D01*
X212508374Y-136401042D01*
X212618489Y-136444139D01*
X212661836Y-136461856D01*
X212772212Y-136506968D01*
X212902623Y-136560265D01*
X213033211Y-136613633D01*
X213117433Y-136649311D01*
X213210953Y-136692549D01*
X213274760Y-136726589D01*
X213298361Y-136746183D01*
X213295092Y-136760239D01*
X213267802Y-136768112D01*
X213207549Y-136749315D01*
X213107997Y-136702389D01*
X213052762Y-136675489D01*
X212984862Y-136645903D01*
X212947629Y-136634402D01*
X212946647Y-136634356D01*
X212907884Y-136622334D01*
X212835790Y-136593167D01*
X212745164Y-136552818D01*
X212739781Y-136550332D01*
X212649093Y-136510388D01*
X212577090Y-136482022D01*
X212538936Y-136471233D01*
X212515222Y-136466755D01*
X212461750Y-136443153D01*
X212460172Y-136442255D01*
X212413958Y-136422501D01*
X212326971Y-136390182D01*
X212208425Y-136348340D01*
X212067534Y-136300022D01*
X211913513Y-136248270D01*
X211755575Y-136196128D01*
X211602935Y-136146641D01*
X211464807Y-136102852D01*
X211350406Y-136067805D01*
X211268944Y-136044545D01*
X211229638Y-136036115D01*
X211177885Y-136030725D01*
X211119463Y-136009128D01*
X211095577Y-135978816D01*
X211095797Y-135975663D01*
X211118123Y-135957584D01*
X211179094Y-135958318D01*
G37*
G36*
X219441825Y-135638935D02*
G01*
X219444399Y-135653712D01*
X219440034Y-135664832D01*
X219394842Y-135700016D01*
X219305772Y-135744808D01*
X219179202Y-135796962D01*
X219021507Y-135854231D01*
X218839066Y-135914370D01*
X218638255Y-135975133D01*
X218425451Y-136034272D01*
X218207033Y-136089542D01*
X218065618Y-136123761D01*
X217889200Y-136167019D01*
X217720271Y-136208968D01*
X217581551Y-136243998D01*
X217509348Y-136262343D01*
X217383278Y-136293787D01*
X217274553Y-136320211D01*
X217200823Y-136337289D01*
X217179810Y-136342431D01*
X217097924Y-136365937D01*
X216982083Y-136401958D01*
X216844582Y-136446615D01*
X216697718Y-136496029D01*
X216680908Y-136501786D01*
X216526594Y-136554501D01*
X216415835Y-136591651D01*
X216341411Y-136615132D01*
X216296098Y-136626841D01*
X216272673Y-136628675D01*
X216263915Y-136622531D01*
X216262601Y-136610306D01*
X216268250Y-136596719D01*
X216314829Y-136564045D01*
X216409867Y-136523858D01*
X216555060Y-136475494D01*
X216752108Y-136418284D01*
X216789590Y-136407909D01*
X216983695Y-136354005D01*
X217134836Y-136311620D01*
X217251165Y-136278400D01*
X217340830Y-136251993D01*
X217411983Y-136230045D01*
X217472772Y-136210203D01*
X217508439Y-136199012D01*
X217604129Y-136171768D01*
X217725081Y-136139521D01*
X217853500Y-136107091D01*
X218056699Y-136056850D01*
X218284474Y-135998751D01*
X218477765Y-135946711D01*
X218647171Y-135897632D01*
X218803290Y-135848411D01*
X218956721Y-135795949D01*
X219118061Y-135737145D01*
X219243859Y-135690446D01*
X219337841Y-135656798D01*
X219396716Y-135638389D01*
X219428654Y-135633131D01*
X219441825Y-135638935D01*
G37*
G36*
X216272222Y-124839583D02*
G01*
X216452222Y-124880320D01*
X216622732Y-124957161D01*
X216801144Y-125076132D01*
X216824834Y-125094129D01*
X216948900Y-125194496D01*
X217039685Y-125282962D01*
X217109189Y-125372569D01*
X217169415Y-125476360D01*
X217196591Y-125536636D01*
X217210327Y-125618224D01*
X217184215Y-125695173D01*
X217115273Y-125784461D01*
X217109082Y-125791144D01*
X217039770Y-125853795D01*
X216950152Y-125920679D01*
X216852748Y-125984111D01*
X216760080Y-126036403D01*
X216684666Y-126069872D01*
X216639026Y-126076830D01*
X216644685Y-126060953D01*
X216690023Y-126029406D01*
X216765236Y-125989035D01*
X216795802Y-125973383D01*
X216919184Y-125895852D01*
X217024661Y-125807701D01*
X217101333Y-125719121D01*
X217138304Y-125640297D01*
X217141731Y-125609746D01*
X217120145Y-125498266D01*
X217049183Y-125376248D01*
X216931139Y-125246954D01*
X216768304Y-125113646D01*
X216756143Y-125104827D01*
X216677268Y-125049164D01*
X216617972Y-125009880D01*
X216590296Y-124995002D01*
X216589125Y-124996735D01*
X216584985Y-125035122D01*
X216581719Y-125117798D01*
X216579494Y-125236712D01*
X216578474Y-125383814D01*
X216578828Y-125551052D01*
X216582314Y-126107103D01*
X216483646Y-126117573D01*
X216236932Y-126134093D01*
X215983065Y-126130658D01*
X215749812Y-126106466D01*
X215547473Y-126062619D01*
X215386349Y-126000218D01*
X215330729Y-125967923D01*
X215234006Y-125899245D01*
X215140510Y-125820197D01*
X215060831Y-125740793D01*
X215005554Y-125671043D01*
X214985269Y-125620959D01*
X214985397Y-125616701D01*
X214992468Y-125598609D01*
X215014608Y-125628698D01*
X215046565Y-125673391D01*
X215114199Y-125745433D01*
X215198315Y-125820431D01*
X215287970Y-125890056D01*
X215372221Y-125945980D01*
X215440125Y-125979878D01*
X215480737Y-125983419D01*
X215481193Y-125983055D01*
X215488958Y-125949874D01*
X215495300Y-125873827D01*
X215499576Y-125765829D01*
X215501144Y-125636798D01*
X215501613Y-125573467D01*
X215507794Y-125407440D01*
X215520393Y-125271956D01*
X215538446Y-125178846D01*
X215548969Y-125139280D01*
X215560619Y-125066563D01*
X215556549Y-125023838D01*
X215538314Y-125016101D01*
X215487248Y-125034150D01*
X215415297Y-125080607D01*
X215331414Y-125148079D01*
X215244555Y-125229172D01*
X215163673Y-125316495D01*
X215097721Y-125402655D01*
X215044745Y-125479638D01*
X215007912Y-125524903D01*
X214989477Y-125532120D01*
X214984442Y-125505840D01*
X214984474Y-125504143D01*
X215005919Y-125444852D01*
X215060792Y-125362883D01*
X215139863Y-125268455D01*
X215233904Y-125171785D01*
X215333686Y-125083089D01*
X215429981Y-125012584D01*
X215482290Y-124980280D01*
X215623541Y-124905652D01*
X215758155Y-124859247D01*
X215906067Y-124835491D01*
X216087205Y-124828811D01*
X216272222Y-124839583D01*
G37*
G36*
X213451701Y-125683136D02*
G01*
X213415236Y-125753299D01*
X213332206Y-125838657D01*
X213213510Y-125925323D01*
X213068314Y-126007514D01*
X212905789Y-126079442D01*
X212735102Y-126135323D01*
X212723483Y-126138403D01*
X212608954Y-126164544D01*
X212499165Y-126179305D01*
X212374522Y-126184435D01*
X212215430Y-126181681D01*
X212215342Y-126181678D01*
X212055701Y-126173366D01*
X211946212Y-126160027D01*
X211882765Y-126140392D01*
X211861253Y-126113190D01*
X211877570Y-126077150D01*
X211893314Y-126021554D01*
X211883040Y-125919627D01*
X211866358Y-125793589D01*
X211859776Y-125608700D01*
X211869312Y-125422170D01*
X211894498Y-125260932D01*
X211909058Y-125191413D01*
X211918703Y-125123040D01*
X211916736Y-125090964D01*
X211898492Y-125079818D01*
X211842742Y-125086161D01*
X211771637Y-125128993D01*
X211691684Y-125200069D01*
X211609388Y-125291144D01*
X211531255Y-125393973D01*
X211463791Y-125500310D01*
X211413503Y-125601909D01*
X211386897Y-125690526D01*
X211390477Y-125757915D01*
X211394507Y-125767734D01*
X211450912Y-125852254D01*
X211549011Y-125936954D01*
X211694640Y-126026996D01*
X211767470Y-126070159D01*
X211801520Y-126099565D01*
X211786036Y-126109498D01*
X211767875Y-126107394D01*
X211695502Y-126079528D01*
X211605340Y-126027568D01*
X211512814Y-125962085D01*
X211433351Y-125893651D01*
X211382376Y-125832840D01*
X211380330Y-125829354D01*
X211353524Y-125770832D01*
X211349555Y-125711789D01*
X211366474Y-125626992D01*
X211396218Y-125541473D01*
X211459541Y-125415829D01*
X211540182Y-125290049D01*
X211626779Y-125181426D01*
X211707970Y-125107252D01*
X211779574Y-125066164D01*
X212906961Y-125066164D01*
X212921216Y-125124177D01*
X212924873Y-125136391D01*
X212935459Y-125205275D01*
X212944531Y-125312422D01*
X212951222Y-125445691D01*
X212954666Y-125592941D01*
X212954817Y-125607635D01*
X212957424Y-125771272D01*
X212963787Y-125886007D01*
X212977628Y-125956937D01*
X213002668Y-125989158D01*
X213042629Y-125987766D01*
X213101234Y-125957859D01*
X213182203Y-125904533D01*
X213220966Y-125877475D01*
X213327506Y-125789263D01*
X213388009Y-125709764D01*
X213407140Y-125633354D01*
X213404262Y-125609959D01*
X213371016Y-125527656D01*
X213306011Y-125423832D01*
X213216117Y-125308623D01*
X213108199Y-125192164D01*
X213053471Y-125139773D01*
X212974707Y-125074551D01*
X212925331Y-125049818D01*
X212906961Y-125066164D01*
X211779574Y-125066164D01*
X211822119Y-125041751D01*
X211979586Y-124972999D01*
X212149881Y-124915432D01*
X212311370Y-124877296D01*
X212350052Y-124871558D01*
X212561700Y-124869311D01*
X212767642Y-124913258D01*
X212952447Y-125000434D01*
X213023874Y-125051037D01*
X213138610Y-125151905D01*
X213245300Y-125267319D01*
X213336949Y-125387715D01*
X213406562Y-125503526D01*
X213447145Y-125605188D01*
X213448791Y-125633354D01*
X213451701Y-125683136D01*
G37*
G36*
X214912340Y-119493287D02*
G01*
X215043338Y-119566171D01*
X215048829Y-119569627D01*
X215166026Y-119643385D01*
X215269988Y-119719841D01*
X215275726Y-119724599D01*
X215314941Y-119759991D01*
X215338196Y-119780979D01*
X215372762Y-119814381D01*
X215414975Y-119855173D01*
X215419647Y-119859688D01*
X215504000Y-119945239D01*
X215549657Y-119991147D01*
X215567686Y-120009275D01*
X215594409Y-120031940D01*
X215639060Y-120069810D01*
X215700978Y-120103275D01*
X215767507Y-120118943D01*
X215858807Y-120125434D01*
X215971047Y-120107091D01*
X216059180Y-120051932D01*
X216064611Y-120046982D01*
X216085259Y-120030635D01*
X216344185Y-120030635D01*
X216348701Y-120036577D01*
X216383592Y-120054840D01*
X216406612Y-120058167D01*
X216407938Y-120030711D01*
X216394565Y-120013789D01*
X216362008Y-120007801D01*
X216344185Y-120030635D01*
X216085259Y-120030635D01*
X216138715Y-119988315D01*
X216245047Y-119913765D01*
X216355997Y-119841029D01*
X216730723Y-119841029D01*
X216733978Y-119873303D01*
X216742158Y-119877557D01*
X216752108Y-119855173D01*
X216750145Y-119840776D01*
X216733978Y-119837043D01*
X216730723Y-119841029D01*
X216355997Y-119841029D01*
X216370877Y-119831274D01*
X216503476Y-119748783D01*
X216623022Y-119678406D01*
X217078446Y-119678406D01*
X217092044Y-119692004D01*
X217105641Y-119678406D01*
X217092044Y-119664809D01*
X217078446Y-119678406D01*
X216623022Y-119678406D01*
X216630112Y-119674232D01*
X216723508Y-119623470D01*
X217247426Y-119623470D01*
X217250680Y-119655744D01*
X217258860Y-119659999D01*
X217268810Y-119637614D01*
X217266848Y-119623217D01*
X217250680Y-119619484D01*
X217247426Y-119623470D01*
X216723508Y-119623470D01*
X216738058Y-119615562D01*
X216814581Y-119580714D01*
X216904836Y-119552352D01*
X217030608Y-119519446D01*
X217154402Y-119492582D01*
X217220133Y-119480802D01*
X217307315Y-119472293D01*
X217361605Y-119486702D01*
X217390771Y-119531888D01*
X217402575Y-119615713D01*
X217402946Y-119637614D01*
X217403638Y-119678406D01*
X217404785Y-119746036D01*
X217404740Y-119756912D01*
X217398052Y-119855173D01*
X217392118Y-119942364D01*
X217376905Y-120030711D01*
X217359891Y-120129523D01*
X217349129Y-120167914D01*
X217312142Y-120299858D01*
X217292489Y-120344680D01*
X217262678Y-120412668D01*
X217252958Y-120434835D01*
X217233609Y-120470760D01*
X217200710Y-120544765D01*
X217187553Y-120595276D01*
X217188346Y-120608490D01*
X217217402Y-120656084D01*
X217289114Y-120677034D01*
X217404655Y-120671310D01*
X217565198Y-120638881D01*
X217771915Y-120579714D01*
X217801902Y-120570344D01*
X217976254Y-120518686D01*
X218150160Y-120471373D01*
X218310827Y-120431602D01*
X218445460Y-120402570D01*
X218541267Y-120387475D01*
X218548054Y-120386791D01*
X218619889Y-120378758D01*
X218729849Y-120365697D01*
X218864218Y-120349260D01*
X219009281Y-120331101D01*
X219079585Y-120322655D01*
X219300299Y-120302805D01*
X219490247Y-120296308D01*
X219643899Y-120302999D01*
X219755724Y-120322713D01*
X219820191Y-120355284D01*
X219842217Y-120387406D01*
X219859964Y-120458170D01*
X219864610Y-120570009D01*
X219861949Y-120659727D01*
X219851542Y-120825812D01*
X219834641Y-121023882D01*
X219812655Y-121241145D01*
X219786993Y-121464806D01*
X219759064Y-121682071D01*
X219730276Y-121880146D01*
X219702039Y-122046239D01*
X219693955Y-122087077D01*
X219651710Y-122268744D01*
X219594110Y-122483302D01*
X219525329Y-122716968D01*
X219449542Y-122955958D01*
X219370922Y-123186487D01*
X219293645Y-123394772D01*
X219292345Y-123398105D01*
X219275135Y-123445112D01*
X219263987Y-123488919D01*
X219259101Y-123539044D01*
X219260676Y-123605003D01*
X219268910Y-123696313D01*
X219284002Y-123822493D01*
X219306151Y-123993059D01*
X219323292Y-124119315D01*
X219344554Y-124265144D01*
X219363968Y-124387066D01*
X219379921Y-124475056D01*
X219390799Y-124519092D01*
X219398665Y-124542547D01*
X219416245Y-124618276D01*
X219431151Y-124709456D01*
X219435389Y-124739802D01*
X219452009Y-124844340D01*
X219474310Y-124972697D01*
X219498682Y-125103781D01*
X219509579Y-125167738D01*
X219528486Y-125317994D01*
X219544697Y-125496986D01*
X219557859Y-125694357D01*
X219567616Y-125899753D01*
X219573613Y-126102818D01*
X219575494Y-126293197D01*
X219572906Y-126460535D01*
X219569730Y-126517914D01*
X219565491Y-126594477D01*
X219552896Y-126684666D01*
X219534120Y-126754835D01*
X219444763Y-126987074D01*
X219313301Y-127232843D01*
X219145216Y-127485041D01*
X219121189Y-127515376D01*
X218945989Y-127736570D01*
X218943219Y-127739572D01*
X218721099Y-127980329D01*
X218476028Y-128209220D01*
X218216256Y-128416142D01*
X218212223Y-128419417D01*
X218138530Y-128479258D01*
X218049061Y-128566089D01*
X217984098Y-128644979D01*
X217981491Y-128648850D01*
X217925218Y-128721077D01*
X217870092Y-128758791D01*
X217856445Y-128762005D01*
X217795486Y-128776361D01*
X217746789Y-128787617D01*
X217667273Y-128822821D01*
X217566776Y-128885329D01*
X217436170Y-128980322D01*
X217346208Y-129051586D01*
X217263757Y-129123362D01*
X217258494Y-129128666D01*
X217207837Y-129179716D01*
X217187240Y-129212452D01*
X217196093Y-129235967D01*
X217238026Y-129288379D01*
X217302804Y-129347260D01*
X217409606Y-129435946D01*
X217698362Y-129716489D01*
X217963363Y-130034862D01*
X218194688Y-130379584D01*
X218210279Y-130406105D01*
X218288038Y-130546523D01*
X218376506Y-130716670D01*
X218469496Y-130903666D01*
X218560820Y-131094633D01*
X218644293Y-131276690D01*
X218713728Y-131436959D01*
X218762937Y-131562561D01*
X218784074Y-131621886D01*
X218821089Y-131725697D01*
X218849640Y-131805671D01*
X218864839Y-131848107D01*
X218880183Y-131890859D01*
X218931718Y-132037073D01*
X218988475Y-132201286D01*
X219047570Y-132374825D01*
X219106120Y-132549018D01*
X219161241Y-132715192D01*
X219210051Y-132864677D01*
X219249667Y-132988798D01*
X219277205Y-133078885D01*
X219289781Y-133126265D01*
X219305738Y-133216056D01*
X219321055Y-133303032D01*
X219342645Y-133415055D01*
X219367890Y-133490991D01*
X219407368Y-133540875D01*
X219472362Y-133578785D01*
X219574154Y-133618796D01*
X219685539Y-133664769D01*
X219860177Y-133760576D01*
X219997843Y-133869272D01*
X220089830Y-133984677D01*
X220106382Y-134015496D01*
X220123846Y-134057723D01*
X220136027Y-134108141D01*
X220143879Y-134175990D01*
X220148358Y-134270508D01*
X220150420Y-134400935D01*
X220151018Y-134576510D01*
X220150585Y-134674409D01*
X220147236Y-134868860D01*
X220141111Y-135063109D01*
X220132839Y-135239095D01*
X220123049Y-135378759D01*
X220116696Y-135451191D01*
X220108096Y-135567495D01*
X220106346Y-135648343D01*
X220112251Y-135706310D01*
X220126616Y-135753974D01*
X220150244Y-135803910D01*
X220188524Y-135916313D01*
X220204573Y-136056229D01*
X220208023Y-136086308D01*
X220203303Y-136304079D01*
X220174350Y-136569852D01*
X220121145Y-136883846D01*
X220043674Y-137246286D01*
X220011739Y-137382016D01*
X219969536Y-137550863D01*
X219933408Y-137677539D01*
X219900796Y-137768852D01*
X219869143Y-137831609D01*
X219835890Y-137872616D01*
X219798479Y-137898681D01*
X219756475Y-137921363D01*
X219713618Y-137952060D01*
X219685988Y-137990692D01*
X219671579Y-138046499D01*
X219668385Y-138128725D01*
X219674399Y-138246608D01*
X219687616Y-138409392D01*
X219689057Y-138426125D01*
X219703796Y-138590251D01*
X219719532Y-138755150D01*
X219734469Y-138902493D01*
X219746814Y-139013952D01*
X219762339Y-139143744D01*
X219781625Y-139304842D01*
X219798904Y-139449070D01*
X219810163Y-139542250D01*
X219834422Y-139738958D01*
X219859802Y-139940189D01*
X219885028Y-140136192D01*
X219908824Y-140317211D01*
X219929917Y-140473494D01*
X219947030Y-140595288D01*
X219958889Y-140672839D01*
X219969582Y-140740172D01*
X219986693Y-140855048D01*
X220006362Y-140992375D01*
X220026116Y-141135152D01*
X220043291Y-141257776D01*
X220063450Y-141393308D01*
X220081646Y-141507426D01*
X220095369Y-141583867D01*
X220098133Y-141598773D01*
X220109988Y-141683268D01*
X220123487Y-141804334D01*
X220137172Y-141948069D01*
X220149583Y-142100569D01*
X220152617Y-142141294D01*
X220164202Y-142293793D01*
X220175218Y-142434530D01*
X220184544Y-142549343D01*
X220191057Y-142624070D01*
X220196220Y-142686083D01*
X220192954Y-142732925D01*
X220171054Y-142750548D01*
X220122989Y-142753246D01*
X220042686Y-142753246D01*
X220041949Y-142488096D01*
X220036500Y-142276745D01*
X220011187Y-141942130D01*
X219964777Y-141567788D01*
X219896732Y-141148749D01*
X219888103Y-141097989D01*
X219865706Y-140949248D01*
X219843978Y-140784857D01*
X219826613Y-140632047D01*
X219817658Y-140549709D01*
X219801671Y-140423927D01*
X219785621Y-140318891D01*
X219771911Y-140251319D01*
X219767987Y-140233927D01*
X219755196Y-140159055D01*
X219738263Y-140043385D01*
X219718453Y-139896184D01*
X219697033Y-139726718D01*
X219675270Y-139544252D01*
X219654956Y-139368781D01*
X219631183Y-139163917D01*
X219612466Y-139003812D01*
X219598109Y-138883040D01*
X219587419Y-138796178D01*
X219579699Y-138737803D01*
X219574256Y-138702491D01*
X219570394Y-138684817D01*
X219567419Y-138679358D01*
X219564635Y-138680690D01*
X219556126Y-138708754D01*
X219541789Y-138783066D01*
X219523380Y-138894711D01*
X219502247Y-139035074D01*
X219479738Y-139195537D01*
X219457201Y-139367486D01*
X219455329Y-139382271D01*
X219426197Y-139607454D01*
X219394870Y-139841770D01*
X219363521Y-140069436D01*
X219334319Y-140274668D01*
X219309437Y-140441683D01*
X219296683Y-140526766D01*
X219279837Y-140645416D01*
X219267302Y-140740826D01*
X219260084Y-140797144D01*
X219244195Y-140911990D01*
X219227267Y-141026372D01*
X219220241Y-141077346D01*
X219206962Y-141189167D01*
X219191420Y-141333186D01*
X219175012Y-141496311D01*
X219159132Y-141665451D01*
X219155190Y-141709053D01*
X219137228Y-141904714D01*
X219122632Y-142053605D01*
X219110295Y-142161945D01*
X219099108Y-142235951D01*
X219087962Y-142281844D01*
X219075748Y-142305842D01*
X219061359Y-142314162D01*
X219043684Y-142313025D01*
X219041098Y-142312454D01*
X219023182Y-142300721D01*
X219011699Y-142270354D01*
X219005638Y-142212427D01*
X219003987Y-142118016D01*
X219005736Y-141978192D01*
X219009234Y-141861629D01*
X219016882Y-141714278D01*
X219026982Y-141583692D01*
X219038285Y-141488685D01*
X219041421Y-141468714D01*
X219057462Y-141353757D01*
X219074420Y-141215914D01*
X219089110Y-141080762D01*
X219090824Y-141063801D01*
X219107310Y-140914011D01*
X219126674Y-140754993D01*
X219145078Y-140618449D01*
X219146335Y-140609770D01*
X219160724Y-140509195D01*
X219180637Y-140368560D01*
X219204336Y-140200215D01*
X219230081Y-140016511D01*
X219256133Y-139829798D01*
X219257652Y-139818892D01*
X219284650Y-139626764D01*
X219312167Y-139433808D01*
X219338225Y-139253703D01*
X219360846Y-139100127D01*
X219378052Y-138986758D01*
X219384373Y-138946137D01*
X219409748Y-138781613D01*
X219436268Y-138607901D01*
X219459122Y-138456458D01*
X219467455Y-138401094D01*
X219486479Y-138276945D01*
X219503353Y-138169626D01*
X219515189Y-138097628D01*
X219517459Y-138084331D01*
X219523402Y-138025998D01*
X219509054Y-138004087D01*
X219466960Y-138004149D01*
X219421068Y-138011775D01*
X219375262Y-138026782D01*
X219374869Y-138026993D01*
X219338655Y-138033748D01*
X219257414Y-138042958D01*
X219140045Y-138053800D01*
X218995446Y-138065448D01*
X218832515Y-138077078D01*
X218827512Y-138077413D01*
X218627422Y-138089700D01*
X218461393Y-138096610D01*
X218311807Y-138097975D01*
X218161044Y-138093627D01*
X217991486Y-138083398D01*
X217785513Y-138067122D01*
X217651421Y-138055345D01*
X217436382Y-138034895D01*
X217217852Y-138012541D01*
X217015074Y-137990275D01*
X216847290Y-137970085D01*
X216685181Y-137949377D01*
X216344359Y-137906910D01*
X216051058Y-137872228D01*
X215800906Y-137845043D01*
X215589534Y-137825063D01*
X215412571Y-137811999D01*
X215265647Y-137805561D01*
X215144392Y-137805459D01*
X215044435Y-137811402D01*
X214961407Y-137823101D01*
X214890936Y-137840266D01*
X214886333Y-137841661D01*
X214852046Y-137853624D01*
X214822137Y-137870592D01*
X214792500Y-137898797D01*
X214759027Y-137944469D01*
X214717614Y-138013841D01*
X214664152Y-138113144D01*
X214627478Y-138184509D01*
X214594537Y-138248610D01*
X214504662Y-138426471D01*
X214470894Y-138494984D01*
X214374734Y-138690083D01*
X214250800Y-138952785D01*
X214135659Y-139207903D01*
X214031666Y-139449642D01*
X213941178Y-139672205D01*
X213866551Y-139869797D01*
X213810141Y-140036622D01*
X213774305Y-140166884D01*
X213761398Y-140254787D01*
X213763113Y-140287158D01*
X213780695Y-140333694D01*
X213824755Y-140368620D01*
X213904482Y-140397860D01*
X214029061Y-140427336D01*
X214265336Y-140493170D01*
X214533551Y-140604999D01*
X214812653Y-140759450D01*
X215104331Y-140957780D01*
X215410272Y-141201245D01*
X215732167Y-141491103D01*
X216071703Y-141828611D01*
X216430569Y-142215027D01*
X216477457Y-142266830D01*
X216585331Y-142382951D01*
X216686084Y-142487552D01*
X216770157Y-142570821D01*
X216827993Y-142622950D01*
X216870099Y-142658120D01*
X216920729Y-142705688D01*
X216941068Y-142732850D01*
X216941019Y-142733084D01*
X216912628Y-142737700D01*
X216836133Y-142741940D01*
X216717526Y-142745684D01*
X216562797Y-142748809D01*
X216377937Y-142751192D01*
X216168936Y-142752712D01*
X215941786Y-142753246D01*
X214941099Y-142753246D01*
X214754777Y-142630869D01*
X214726295Y-142612246D01*
X214643756Y-142559324D01*
X214583669Y-142522380D01*
X214557447Y-142508492D01*
X214550322Y-142505750D01*
X214509048Y-142481557D01*
X214446387Y-142440505D01*
X214381585Y-142398727D01*
X214331755Y-142376793D01*
X214309795Y-142388582D01*
X214307771Y-142433706D01*
X214309005Y-142454385D01*
X214310281Y-142532342D01*
X214308800Y-142624070D01*
X214304571Y-142753246D01*
X214070242Y-142753246D01*
X213983515Y-142752836D01*
X213904012Y-142749763D01*
X213861796Y-142741648D01*
X213846962Y-142726141D01*
X213849606Y-142700891D01*
X213852071Y-142666196D01*
X213825582Y-142663008D01*
X213806143Y-142665162D01*
X213787868Y-142636688D01*
X213792491Y-142616109D01*
X213828661Y-142580242D01*
X213855949Y-142550737D01*
X213869453Y-142490904D01*
X213868620Y-142455401D01*
X213860690Y-142440255D01*
X213837264Y-142461913D01*
X213789944Y-142523853D01*
X213763143Y-142561332D01*
X213729581Y-142615310D01*
X213721035Y-142641087D01*
X213721297Y-142641392D01*
X213708908Y-142664168D01*
X213666536Y-142702893D01*
X213654496Y-142711707D01*
X213629808Y-142724773D01*
X213595586Y-142734688D01*
X213545420Y-142741788D01*
X213472906Y-142746410D01*
X213371635Y-142748893D01*
X213235201Y-142749573D01*
X213057197Y-142748787D01*
X212831216Y-142746874D01*
X212060995Y-142739648D01*
X212125097Y-142675546D01*
X212129187Y-142670918D01*
X212162195Y-142621264D01*
X212214773Y-142531047D01*
X212283222Y-142407063D01*
X212363844Y-142256111D01*
X212452940Y-142084988D01*
X212546810Y-141900493D01*
X212562811Y-141868733D01*
X212657507Y-141682794D01*
X212747708Y-141508914D01*
X212829490Y-141354433D01*
X212898931Y-141226688D01*
X212952105Y-141133018D01*
X212985089Y-141080762D01*
X213049041Y-141001056D01*
X213151609Y-140887676D01*
X213266720Y-140771743D01*
X213382675Y-140664456D01*
X213487771Y-140577014D01*
X213570309Y-140520616D01*
X213606284Y-140500228D01*
X213661696Y-140460895D01*
X213683917Y-140422067D01*
X213684487Y-140368357D01*
X213684111Y-140364016D01*
X213690792Y-140258099D01*
X213722820Y-140109441D01*
X213779027Y-139922520D01*
X213858246Y-139701812D01*
X213898676Y-139593335D01*
X213949785Y-139437884D01*
X213979950Y-139307251D01*
X213991218Y-139186358D01*
X213985634Y-139060127D01*
X213965246Y-138913483D01*
X213925689Y-138693647D01*
X213881448Y-138494280D01*
X214009700Y-138494280D01*
X214016192Y-138530677D01*
X214025475Y-138530256D01*
X214030475Y-138494984D01*
X214026120Y-138468253D01*
X214014045Y-138478554D01*
X214009700Y-138494280D01*
X213881448Y-138494280D01*
X213881158Y-138492971D01*
X213832141Y-138328970D01*
X213774665Y-138192367D01*
X213704762Y-138073890D01*
X213618460Y-137964262D01*
X213511790Y-137854210D01*
X213465835Y-137810565D01*
X213351755Y-137709562D01*
X213251660Y-137638850D01*
X213151916Y-137593314D01*
X213038890Y-137567840D01*
X212898948Y-137557312D01*
X212718455Y-137556618D01*
X212692483Y-137557047D01*
X212544666Y-137562004D01*
X212360435Y-137571231D01*
X212154329Y-137583851D01*
X211940889Y-137598991D01*
X211734656Y-137615777D01*
X211693157Y-137619389D01*
X211483198Y-137637111D01*
X211268343Y-137654443D01*
X211063355Y-137670243D01*
X210883000Y-137683366D01*
X210742044Y-137692668D01*
X210704971Y-137694919D01*
X210574764Y-137703110D01*
X210468465Y-137710237D01*
X210396206Y-137715598D01*
X210368114Y-137718496D01*
X210365988Y-137721395D01*
X210361002Y-137762872D01*
X210361197Y-137842676D01*
X210365877Y-137948212D01*
X210374347Y-138066889D01*
X210385909Y-138186112D01*
X210399870Y-138293289D01*
X210406083Y-138335232D01*
X210418839Y-138435973D01*
X210425153Y-138510559D01*
X210423724Y-138545251D01*
X210421368Y-138563897D01*
X210426249Y-138624826D01*
X210439875Y-138708421D01*
X210451128Y-138776404D01*
X210466854Y-138893646D01*
X210482941Y-139033055D01*
X210497246Y-139177122D01*
X210504146Y-139251658D01*
X210520051Y-139416199D01*
X210539088Y-139606616D01*
X210559442Y-139804881D01*
X210579302Y-139992967D01*
X210590575Y-140098211D01*
X210605200Y-140236869D01*
X210617332Y-140356738D01*
X210627856Y-140468255D01*
X210637659Y-140581855D01*
X210647627Y-140707975D01*
X210658647Y-140857050D01*
X210671604Y-141039516D01*
X210687385Y-141265809D01*
X210692401Y-141336347D01*
X210703235Y-141478508D01*
X210713407Y-141599464D01*
X210721960Y-141688190D01*
X210727939Y-141733664D01*
X210726672Y-141799918D01*
X210697814Y-141843163D01*
X210651510Y-141847765D01*
X210635985Y-141838461D01*
X210621422Y-141817828D01*
X210608680Y-141780312D01*
X210596789Y-141719686D01*
X210584777Y-141629724D01*
X210571674Y-141504199D01*
X210556509Y-141336884D01*
X210538313Y-141121554D01*
X210533278Y-141060961D01*
X210501049Y-140677052D01*
X210471948Y-140337524D01*
X210446152Y-140044350D01*
X210423835Y-139799501D01*
X210405174Y-139604949D01*
X210390344Y-139462668D01*
X210389288Y-139453138D01*
X210374489Y-139312902D01*
X210360089Y-139166137D01*
X210349068Y-139043114D01*
X210343764Y-138983317D01*
X210332411Y-138890390D01*
X210320684Y-138848514D01*
X210307616Y-138855401D01*
X210292239Y-138908763D01*
X210287162Y-138930293D01*
X210264457Y-139015827D01*
X210237136Y-139109134D01*
X210229116Y-139136443D01*
X210203563Y-139240597D01*
X210187362Y-139332270D01*
X210187304Y-139332752D01*
X210170466Y-139430052D01*
X210146920Y-139522634D01*
X210139431Y-139548435D01*
X210117843Y-139633955D01*
X210091808Y-139747154D01*
X210065411Y-139870591D01*
X210041864Y-139985286D01*
X209991982Y-140229113D01*
X209951337Y-140429675D01*
X209918616Y-140594045D01*
X209892501Y-140729291D01*
X209871677Y-140842484D01*
X209854828Y-140940692D01*
X209840638Y-141030987D01*
X209827791Y-141120437D01*
X209814972Y-141216113D01*
X209801729Y-141320388D01*
X209768523Y-141608016D01*
X209737505Y-141911739D01*
X209710960Y-142208314D01*
X209691175Y-142474498D01*
X209687471Y-142531259D01*
X209679303Y-142637236D01*
X209670163Y-142702650D01*
X209657121Y-142737274D01*
X209637248Y-142750882D01*
X209607613Y-142753246D01*
X209541977Y-142753246D01*
X209557966Y-142256940D01*
X209562883Y-142126199D01*
X209571395Y-141952805D01*
X209581334Y-141793371D01*
X209591835Y-141661368D01*
X209602032Y-141570269D01*
X209611811Y-141508524D01*
X209633719Y-141381503D01*
X209663206Y-141218235D01*
X209698537Y-141027697D01*
X209737975Y-140818863D01*
X209779785Y-140600709D01*
X209822233Y-140382208D01*
X209863582Y-140172337D01*
X209902096Y-139980070D01*
X209936042Y-139814381D01*
X209963682Y-139684247D01*
X209983282Y-139598642D01*
X210049547Y-139331193D01*
X210109336Y-139086652D01*
X210157529Y-138883809D01*
X210195099Y-138716944D01*
X210223020Y-138580337D01*
X210242265Y-138468266D01*
X210253807Y-138375011D01*
X210258620Y-138294850D01*
X210257677Y-138222064D01*
X210251953Y-138150930D01*
X210242419Y-138075730D01*
X210225771Y-137969282D01*
X210200560Y-137860953D01*
X210167385Y-137786200D01*
X210120364Y-137732985D01*
X210053617Y-137689272D01*
X209957919Y-137612112D01*
X209869533Y-137479303D01*
X209799963Y-137298214D01*
X209749669Y-137070455D01*
X209719111Y-136797636D01*
X209708748Y-136481368D01*
X209709602Y-136437747D01*
X209875599Y-136437747D01*
X209875990Y-136650097D01*
X209881737Y-136823622D01*
X209893319Y-136969047D01*
X209911217Y-137097094D01*
X209917721Y-137134812D01*
X209942504Y-137271037D01*
X209968621Y-137379526D01*
X210001961Y-137463123D01*
X210048415Y-137524676D01*
X210113874Y-137567029D01*
X210204228Y-137593027D01*
X210325368Y-137605516D01*
X210483184Y-137607342D01*
X210683567Y-137601350D01*
X210932408Y-137590385D01*
X211258243Y-137574919D01*
X211636114Y-137554933D01*
X211961122Y-137535145D01*
X212232886Y-137515579D01*
X212451025Y-137496263D01*
X212615156Y-137477220D01*
X212687896Y-137468842D01*
X212928601Y-137468884D01*
X213146979Y-137516712D01*
X213348908Y-137614142D01*
X213540264Y-137762989D01*
X213553150Y-137775157D01*
X213652011Y-137877306D01*
X213747166Y-137988501D01*
X213819631Y-138086745D01*
X213923843Y-138247331D01*
X213923843Y-138162825D01*
X214473332Y-138162825D01*
X214476924Y-138218503D01*
X214486367Y-138223116D01*
X214490641Y-138184509D01*
X214486850Y-138147099D01*
X214476924Y-138150516D01*
X214473332Y-138162825D01*
X213923843Y-138162825D01*
X213923843Y-138077980D01*
X214474086Y-138077980D01*
X214477791Y-138102925D01*
X214480620Y-138102478D01*
X214501088Y-138072132D01*
X214516221Y-138005618D01*
X214521196Y-137932741D01*
X214634903Y-137932741D01*
X214640392Y-137973255D01*
X214655790Y-137976536D01*
X214679850Y-137934259D01*
X214702981Y-137887360D01*
X214736101Y-137847239D01*
X214783783Y-137817681D01*
X214852652Y-137797436D01*
X214949329Y-137785253D01*
X215080440Y-137779880D01*
X215252607Y-137780067D01*
X215472455Y-137784562D01*
X215511665Y-137785612D01*
X215697235Y-137792004D01*
X215873718Y-137800240D01*
X216029791Y-137809655D01*
X216154128Y-137819583D01*
X216235406Y-137829361D01*
X216352692Y-137847638D01*
X216495095Y-137867494D01*
X216629731Y-137884297D01*
X216712809Y-137893953D01*
X216857862Y-137911083D01*
X217018813Y-137930319D01*
X217173628Y-137949039D01*
X217424644Y-137974376D01*
X217717953Y-137993220D01*
X218021924Y-138003037D01*
X218327333Y-138004074D01*
X218624958Y-137996572D01*
X218905578Y-137980776D01*
X219159970Y-137956931D01*
X219378911Y-137925280D01*
X219553179Y-137886068D01*
X219562189Y-137883451D01*
X219670599Y-137845869D01*
X219746520Y-137800322D01*
X219799597Y-137735287D01*
X219839472Y-137639245D01*
X219875789Y-137500676D01*
X219876516Y-137497525D01*
X219929716Y-137250047D01*
X219975546Y-136998520D01*
X220016797Y-136726166D01*
X220056262Y-136416210D01*
X220057791Y-136403220D01*
X220074672Y-136249534D01*
X220083580Y-136137606D01*
X220084706Y-136056229D01*
X220078242Y-135994195D01*
X220064378Y-135940299D01*
X220053667Y-135910357D01*
X220016166Y-135847286D01*
X219965483Y-135823150D01*
X219939978Y-135818116D01*
X219913992Y-135795422D01*
X219920470Y-135741565D01*
X219967713Y-135523548D01*
X220007808Y-135268130D01*
X220037112Y-135000173D01*
X220054234Y-134735779D01*
X220057787Y-134491052D01*
X220046380Y-134282095D01*
X220044725Y-134266238D01*
X220031866Y-134154675D01*
X220017648Y-134080731D01*
X219996104Y-134029593D01*
X219961266Y-133986446D01*
X219907168Y-133936477D01*
X219900223Y-133930425D01*
X219790017Y-133853333D01*
X219659377Y-133787556D01*
X219528319Y-133741745D01*
X219416857Y-133724552D01*
X219373818Y-133726559D01*
X219350020Y-133742608D01*
X219360109Y-133785740D01*
X219369887Y-133818211D01*
X219387761Y-133900406D01*
X219403337Y-133996501D01*
X219412347Y-134057853D01*
X219425376Y-134129914D01*
X219435358Y-134166213D01*
X219438414Y-134168724D01*
X219472455Y-134160784D01*
X219527096Y-134127352D01*
X219563513Y-134102895D01*
X219611754Y-134083779D01*
X219625906Y-134098387D01*
X219604235Y-134139638D01*
X219557427Y-134187697D01*
X219545006Y-134200450D01*
X219498537Y-134237034D01*
X219430747Y-134281578D01*
X219339579Y-134333656D01*
X219218424Y-134396841D01*
X219060671Y-134474706D01*
X218859710Y-134570823D01*
X218835519Y-134581870D01*
X218746560Y-134619948D01*
X218624981Y-134669921D01*
X218483710Y-134726626D01*
X218335679Y-134784906D01*
X218193819Y-134839598D01*
X218071059Y-134885544D01*
X218040711Y-134897222D01*
X217938982Y-134941040D01*
X217839902Y-134988893D01*
X217778512Y-135019813D01*
X217674031Y-135070851D01*
X217548847Y-135130913D01*
X217418382Y-135192547D01*
X217362980Y-135218632D01*
X217182838Y-135305089D01*
X216998732Y-135395623D01*
X216818244Y-135486313D01*
X216648954Y-135573234D01*
X216498443Y-135652463D01*
X216374294Y-135720076D01*
X216284088Y-135772149D01*
X216235406Y-135804761D01*
X216221267Y-135815477D01*
X216159895Y-135853861D01*
X216082239Y-135895890D01*
X216049080Y-135913309D01*
X215927458Y-135985719D01*
X215789012Y-136077808D01*
X215646516Y-136180179D01*
X215512740Y-136283434D01*
X215400456Y-136378174D01*
X215322436Y-136455001D01*
X215266425Y-136525849D01*
X215213402Y-136608751D01*
X215186016Y-136672467D01*
X215166075Y-136747280D01*
X215078348Y-136937958D01*
X215047127Y-136977218D01*
X214940085Y-137111822D01*
X214938369Y-137113568D01*
X214878676Y-137180363D01*
X214829590Y-137251924D01*
X214786986Y-137337990D01*
X214746741Y-137448301D01*
X214704729Y-137592594D01*
X214656824Y-137780607D01*
X214640571Y-137863317D01*
X214634903Y-137932741D01*
X214521196Y-137932741D01*
X214522129Y-137919066D01*
X214529972Y-137826113D01*
X214549166Y-137737725D01*
X214555741Y-137717458D01*
X214620783Y-137523253D01*
X214675943Y-137372682D01*
X214724688Y-137257488D01*
X214770484Y-137169416D01*
X214816796Y-137100211D01*
X214910679Y-136977218D01*
X214793815Y-136513465D01*
X214765424Y-136401527D01*
X214721261Y-136232170D01*
X214686289Y-136106771D01*
X214658560Y-136019461D01*
X214636126Y-135964366D01*
X214617038Y-135935615D01*
X214599349Y-135927336D01*
X214590506Y-135938512D01*
X214580373Y-135990333D01*
X214576362Y-136070109D01*
X214574581Y-136130865D01*
X214564809Y-136256357D01*
X214549388Y-136376051D01*
X214548065Y-136384674D01*
X214539083Y-136469560D01*
X214529976Y-136595836D01*
X214521841Y-136743808D01*
X214521378Y-136752233D01*
X214513919Y-136927482D01*
X214508230Y-137110312D01*
X214507752Y-137129205D01*
X214502555Y-137316376D01*
X214496756Y-137498620D01*
X214490798Y-137663574D01*
X214489480Y-137695002D01*
X214485124Y-137798877D01*
X214481686Y-137863726D01*
X214480178Y-137892164D01*
X214478613Y-137917486D01*
X214474409Y-138011827D01*
X214474086Y-138077980D01*
X213923843Y-138077980D01*
X213923843Y-137863726D01*
X213923434Y-137765508D01*
X213921126Y-137673318D01*
X214038214Y-137673318D01*
X214041806Y-137728995D01*
X214051249Y-137733608D01*
X214055523Y-137695002D01*
X214051732Y-137657592D01*
X214041806Y-137661008D01*
X214038214Y-137673318D01*
X213921126Y-137673318D01*
X213918864Y-137582985D01*
X213907490Y-137440476D01*
X213887162Y-137328164D01*
X213855731Y-137236233D01*
X213811046Y-137154868D01*
X213759123Y-137085206D01*
X213918894Y-137085206D01*
X213925226Y-137131042D01*
X213951292Y-137213968D01*
X213966613Y-137260891D01*
X214000211Y-137375986D01*
X214025284Y-137477443D01*
X214051066Y-137599820D01*
X214052230Y-137450248D01*
X214052399Y-137435042D01*
X214054380Y-137341494D01*
X214058065Y-137212175D01*
X214063001Y-137062117D01*
X214068729Y-136906351D01*
X214069179Y-136894654D01*
X214073531Y-136743808D01*
X214073023Y-136646867D01*
X214067542Y-136603569D01*
X214056977Y-136613653D01*
X214041216Y-136676858D01*
X214020146Y-136792922D01*
X214001366Y-136871742D01*
X213976781Y-136936257D01*
X213963251Y-136972936D01*
X213965101Y-137015884D01*
X213968151Y-137030967D01*
X213942380Y-137057790D01*
X213931536Y-137063169D01*
X213918894Y-137085206D01*
X213759123Y-137085206D01*
X213750958Y-137074252D01*
X213658383Y-136937649D01*
X213598500Y-136790280D01*
X213563340Y-136673839D01*
X213457972Y-136430746D01*
X213315292Y-136191728D01*
X213144408Y-135969361D01*
X213090475Y-135914531D01*
X213234257Y-135914531D01*
X213251211Y-135961948D01*
X213297556Y-136030689D01*
X213337872Y-136089011D01*
X213404229Y-136191602D01*
X213466675Y-136294403D01*
X213511348Y-136370886D01*
X213563140Y-136459104D01*
X213600128Y-136521593D01*
X213616677Y-136553963D01*
X213650688Y-136640324D01*
X213680201Y-136737267D01*
X213685614Y-136757297D01*
X213720687Y-136852938D01*
X213760496Y-136918819D01*
X213799079Y-136947268D01*
X213830472Y-136930614D01*
X213832585Y-136926890D01*
X213852343Y-136873979D01*
X213871222Y-136799667D01*
X213879824Y-136757991D01*
X213900732Y-136657754D01*
X213922824Y-136552818D01*
X213935179Y-136493273D01*
X213953529Y-136400487D01*
X213965312Y-136335259D01*
X213967409Y-136322553D01*
X213979806Y-136251994D01*
X213998218Y-136150708D01*
X214019488Y-136036115D01*
X214023753Y-136013106D01*
X214046067Y-135884670D01*
X214065268Y-135762041D01*
X214077593Y-135668985D01*
X214084380Y-135620453D01*
X214100116Y-135553918D01*
X214116875Y-135523945D01*
X214135144Y-135495321D01*
X214140756Y-135437968D01*
X214132751Y-135378038D01*
X214111837Y-135341182D01*
X214071594Y-135338740D01*
X214034384Y-135388395D01*
X214002458Y-135491959D01*
X213998318Y-135511447D01*
X213990373Y-135595175D01*
X214008485Y-135645474D01*
X214024237Y-135667600D01*
X214029699Y-135690038D01*
X214020532Y-135695311D01*
X213949367Y-135734831D01*
X213911136Y-135748226D01*
X213892877Y-135736386D01*
X213881629Y-135700200D01*
X213877758Y-135648108D01*
X213891480Y-135546950D01*
X213922920Y-135429202D01*
X213966977Y-135312910D01*
X214018545Y-135216116D01*
X214061293Y-135142198D01*
X214078186Y-135073770D01*
X214071756Y-134987536D01*
X214065436Y-134952049D01*
X214048210Y-134890918D01*
X214031084Y-134866736D01*
X214009734Y-134877179D01*
X213956327Y-134918624D01*
X213884008Y-134982428D01*
X213803216Y-135058670D01*
X213724389Y-135137428D01*
X213657964Y-135208783D01*
X213614379Y-135262812D01*
X213575589Y-135319905D01*
X213454921Y-135500929D01*
X213388722Y-135604275D01*
X213359529Y-135649850D01*
X213291823Y-135762834D01*
X213254212Y-135836045D01*
X213242007Y-135867379D01*
X213234257Y-135914531D01*
X213090475Y-135914531D01*
X212954428Y-135776223D01*
X212754463Y-135624890D01*
X212750519Y-135622567D01*
X212702303Y-135597735D01*
X212614158Y-135554674D01*
X212494096Y-135497128D01*
X212350124Y-135428837D01*
X212190252Y-135353545D01*
X212022490Y-135274994D01*
X211854848Y-135196924D01*
X211695334Y-135123079D01*
X211551958Y-135057200D01*
X211432731Y-135003030D01*
X211345660Y-134964310D01*
X211298757Y-134944783D01*
X211283376Y-134937371D01*
X211227024Y-134906409D01*
X211142578Y-134857996D01*
X211041686Y-134798749D01*
X210955205Y-134744980D01*
X210797183Y-134632717D01*
X210699779Y-134549778D01*
X210907340Y-134549778D01*
X210911914Y-134602427D01*
X210941205Y-134636325D01*
X211005765Y-134672175D01*
X211030642Y-134685495D01*
X211102361Y-134730693D01*
X211148394Y-134769660D01*
X211168271Y-134786697D01*
X211238155Y-134830310D01*
X211349033Y-134890391D01*
X211495204Y-134964018D01*
X211670970Y-135048265D01*
X211870631Y-135140209D01*
X211978079Y-135188943D01*
X212122053Y-135254541D01*
X212251359Y-135313734D01*
X212254548Y-135315199D01*
X212463499Y-135410621D01*
X212625481Y-135483320D01*
X212742501Y-135534169D01*
X212816563Y-135564039D01*
X212849673Y-135573803D01*
X212872529Y-135582065D01*
X212917934Y-135614868D01*
X212923351Y-135619731D01*
X212942717Y-135634304D01*
X212953962Y-135631584D01*
X212957078Y-135604275D01*
X212952057Y-135545081D01*
X212938889Y-135446706D01*
X212917567Y-135301854D01*
X212913317Y-135273334D01*
X212895046Y-135151149D01*
X212882115Y-135066115D01*
X212872318Y-135004232D01*
X212863450Y-134951504D01*
X212853306Y-134893931D01*
X212844402Y-134840956D01*
X212833707Y-134767609D01*
X212822120Y-134675811D01*
X212808588Y-134556637D01*
X212796456Y-134442534D01*
X212902176Y-134442534D01*
X212902505Y-134500934D01*
X212910030Y-134589133D01*
X212922658Y-134691246D01*
X212938293Y-134791388D01*
X212954841Y-134873674D01*
X212970205Y-134922220D01*
X212982240Y-134958732D01*
X212998287Y-135036731D01*
X213012153Y-135132980D01*
X213023359Y-135206789D01*
X213042345Y-135275040D01*
X213063076Y-135298345D01*
X213085320Y-135295856D01*
X213239388Y-135278280D01*
X213351411Y-135262933D01*
X213432033Y-135245965D01*
X213491902Y-135223528D01*
X213541663Y-135191773D01*
X213591961Y-135146851D01*
X213653444Y-135084913D01*
X213669515Y-135068718D01*
X213752982Y-134988139D01*
X213828289Y-134920592D01*
X213880811Y-134879300D01*
X213885243Y-134876364D01*
X213899929Y-134863457D01*
X214129302Y-134863457D01*
X214135477Y-134954888D01*
X214159211Y-135089972D01*
X214163996Y-135114962D01*
X214198500Y-135266678D01*
X214236069Y-135375440D01*
X214273135Y-135437968D01*
X214281017Y-135451264D01*
X214337661Y-135504165D01*
X214388155Y-135531514D01*
X214446596Y-135546608D01*
X214459549Y-135546026D01*
X214487595Y-135532494D01*
X214498283Y-135491160D01*
X214496311Y-135409023D01*
X214497857Y-135366362D01*
X214510425Y-135273358D01*
X214511594Y-135267096D01*
X214608731Y-135267096D01*
X214612553Y-135314938D01*
X214630262Y-135406521D01*
X214659708Y-135532137D01*
X214698646Y-135682719D01*
X214744826Y-135849202D01*
X214796002Y-136022518D01*
X214825216Y-136118829D01*
X214876434Y-136291114D01*
X214914211Y-136424705D01*
X214940892Y-136528466D01*
X214958819Y-136611264D01*
X214970336Y-136681963D01*
X214980322Y-136738378D01*
X214998653Y-136803525D01*
X215017744Y-136844473D01*
X215032752Y-136851750D01*
X215038832Y-136815882D01*
X215050715Y-136765398D01*
X215079457Y-136698699D01*
X215107767Y-136629219D01*
X215120385Y-136566415D01*
X215128225Y-136539936D01*
X215168457Y-136481115D01*
X215231345Y-136418093D01*
X215271132Y-136383602D01*
X215323548Y-136331648D01*
X215362446Y-136277269D01*
X215394420Y-136207859D01*
X215422620Y-136121383D01*
X215531862Y-136121383D01*
X215532977Y-136143917D01*
X215536205Y-136142490D01*
X215569335Y-136119003D01*
X215623521Y-136076065D01*
X215636915Y-136065482D01*
X215698751Y-136025365D01*
X215743616Y-136009055D01*
X215751279Y-136007773D01*
X215802121Y-135986765D01*
X215881136Y-135945344D01*
X215974772Y-135890464D01*
X216065784Y-135835746D01*
X216260248Y-135724335D01*
X216483466Y-135601908D01*
X216724641Y-135473988D01*
X216972974Y-135346101D01*
X217217668Y-135223771D01*
X217447923Y-135112525D01*
X217652942Y-135017885D01*
X217821926Y-134945378D01*
X217842541Y-134936906D01*
X217943610Y-134893390D01*
X218065792Y-134838649D01*
X218187100Y-134782493D01*
X218237726Y-134758854D01*
X218331189Y-134716701D01*
X218399946Y-134687724D01*
X218431854Y-134677149D01*
X218438844Y-134675802D01*
X218488027Y-134656866D01*
X218573661Y-134618865D01*
X218686879Y-134565988D01*
X218818812Y-134502422D01*
X218960593Y-134432356D01*
X219103356Y-134359978D01*
X219118580Y-134352194D01*
X219203582Y-134309097D01*
X219261627Y-134274223D01*
X219296057Y-134237210D01*
X219310217Y-134187697D01*
X219307450Y-134115320D01*
X219291099Y-134009717D01*
X219264508Y-133860526D01*
X219254703Y-133807745D01*
X219230167Y-133689383D01*
X219195946Y-133537254D01*
X219151282Y-133348237D01*
X219095421Y-133119210D01*
X219027607Y-132847051D01*
X218947083Y-132528637D01*
X218853095Y-132160848D01*
X218842365Y-132120748D01*
X218780499Y-131923795D01*
X218696809Y-131694962D01*
X218596550Y-131446057D01*
X218484980Y-131188890D01*
X218367356Y-130935267D01*
X218248935Y-130696996D01*
X218134974Y-130485885D01*
X218030730Y-130313743D01*
X218029928Y-130312525D01*
X217962119Y-130219787D01*
X217866593Y-130102647D01*
X217752178Y-129970649D01*
X217627700Y-129833334D01*
X217501984Y-129700246D01*
X217383859Y-129580928D01*
X217282150Y-129484921D01*
X217205684Y-129421768D01*
X217128961Y-129366911D01*
X217050176Y-129442392D01*
X217014438Y-129479011D01*
X216987513Y-129523202D01*
X216980008Y-129579987D01*
X216981889Y-129607689D01*
X216986120Y-129669981D01*
X216990836Y-129759072D01*
X216979392Y-129845740D01*
X216944465Y-129929820D01*
X216932767Y-129953903D01*
X216900882Y-130042273D01*
X216888082Y-130116974D01*
X216887936Y-130121233D01*
X216887784Y-130125655D01*
X216882432Y-130149265D01*
X216870291Y-130202818D01*
X216869680Y-130205512D01*
X216832151Y-130286897D01*
X216812276Y-130321389D01*
X216792379Y-130381280D01*
X216804956Y-130431092D01*
X216806981Y-130434975D01*
X216831187Y-130527488D01*
X216821420Y-130648125D01*
X216777176Y-130803646D01*
X216746084Y-130898491D01*
X216699698Y-131084690D01*
X216699368Y-131086948D01*
X216670273Y-131286086D01*
X216654550Y-131521768D01*
X216652228Y-131596180D01*
X216652410Y-131688941D01*
X216658297Y-131729683D01*
X216669993Y-131719746D01*
X216672229Y-131713839D01*
X216688903Y-131656947D01*
X216713906Y-131559978D01*
X216744746Y-131433746D01*
X216778929Y-131289062D01*
X216813960Y-131136742D01*
X216847346Y-130987597D01*
X216876594Y-130852440D01*
X216899209Y-130742085D01*
X216912699Y-130667344D01*
X216916536Y-130646512D01*
X216938767Y-130580920D01*
X216966550Y-130548272D01*
X216976398Y-130545617D01*
X216986804Y-130547849D01*
X216991844Y-130562479D01*
X216990600Y-130595323D01*
X216982157Y-130652192D01*
X216965595Y-130738903D01*
X216940000Y-130861269D01*
X216904452Y-131025104D01*
X216858036Y-131236222D01*
X216842482Y-131306603D01*
X216781038Y-131580217D01*
X216725853Y-131818673D01*
X216677818Y-132018338D01*
X216637824Y-132175577D01*
X216606760Y-132286759D01*
X216585518Y-132348250D01*
X216580241Y-132361883D01*
X216559469Y-132426766D01*
X216529586Y-132528708D01*
X216493753Y-132656748D01*
X216455137Y-132799927D01*
X216434731Y-132876019D01*
X216394332Y-133023764D01*
X216344508Y-133203597D01*
X216287656Y-133407069D01*
X216226171Y-133625729D01*
X216162452Y-133851127D01*
X216098895Y-134074815D01*
X216037896Y-134288342D01*
X215981853Y-134483258D01*
X215970008Y-134524093D01*
X215933163Y-134651114D01*
X215894221Y-134783460D01*
X215867426Y-134871846D01*
X215855070Y-134913362D01*
X215835288Y-134991654D01*
X215827483Y-135041573D01*
X215827297Y-135045305D01*
X215816828Y-135096524D01*
X215793483Y-135180556D01*
X215761703Y-135281217D01*
X215739056Y-135351110D01*
X215694592Y-135496182D01*
X215648045Y-135655851D01*
X215627914Y-135728081D01*
X215604101Y-135813525D01*
X215567445Y-135952609D01*
X215542763Y-136056511D01*
X215541001Y-136065010D01*
X215531862Y-136121383D01*
X215422620Y-136121383D01*
X215426067Y-136110812D01*
X215463983Y-135973525D01*
X215529668Y-135728081D01*
X215399828Y-135513158D01*
X215301129Y-135359831D01*
X215187394Y-135203843D01*
X215073707Y-135066871D01*
X214965512Y-134954525D01*
X214868254Y-134872412D01*
X214787377Y-134826142D01*
X214728324Y-134821324D01*
X214721540Y-134825201D01*
X214718591Y-134829452D01*
X214691201Y-134868941D01*
X214669061Y-134939233D01*
X214664451Y-134970475D01*
X214665391Y-135024028D01*
X214681371Y-135086062D01*
X214716298Y-135169532D01*
X214774081Y-135287397D01*
X214794042Y-135327276D01*
X214880499Y-135514803D01*
X214933266Y-135660086D01*
X214952412Y-135763453D01*
X214938005Y-135825231D01*
X214890114Y-135845751D01*
X214862893Y-135832766D01*
X214848468Y-135777764D01*
X214840020Y-135732928D01*
X214814474Y-135709360D01*
X214796302Y-135705170D01*
X214817104Y-135685734D01*
X214817999Y-135685145D01*
X214829763Y-135663080D01*
X214821758Y-135619569D01*
X214791257Y-135546209D01*
X214735530Y-135434598D01*
X214682010Y-135334892D01*
X214642550Y-135271560D01*
X214619135Y-135250298D01*
X214608731Y-135267096D01*
X214511594Y-135267096D01*
X214531699Y-135159370D01*
X214557798Y-135042785D01*
X214584841Y-134941989D01*
X214608947Y-134875369D01*
X214623025Y-134829452D01*
X214620726Y-134778871D01*
X214876364Y-134778871D01*
X214891894Y-134798253D01*
X214941970Y-134839855D01*
X215014515Y-134892011D01*
X215069049Y-134932364D01*
X215167894Y-135018300D01*
X215248246Y-135102771D01*
X215299404Y-135162374D01*
X215347953Y-135201681D01*
X215404645Y-135217408D01*
X215491676Y-135220269D01*
X215532396Y-135219442D01*
X215614257Y-135208712D01*
X215646832Y-135186276D01*
X215648710Y-135179297D01*
X215665645Y-135125835D01*
X215695008Y-135038164D01*
X215732209Y-134929600D01*
X215772657Y-134813459D01*
X215811760Y-134703058D01*
X215844926Y-134611713D01*
X215853715Y-134586565D01*
X215870255Y-134524093D01*
X215870222Y-134492488D01*
X215846109Y-134492462D01*
X215783794Y-134507329D01*
X215699193Y-134534596D01*
X215642616Y-134553574D01*
X215518590Y-134591618D01*
X215369892Y-134634410D01*
X215213990Y-134677094D01*
X215068352Y-134714815D01*
X214950449Y-134742717D01*
X214899081Y-134759452D01*
X214876364Y-134778871D01*
X214620726Y-134778871D01*
X214620302Y-134769541D01*
X214606839Y-134747996D01*
X214575710Y-134734842D01*
X214515973Y-134732935D01*
X214415009Y-134740490D01*
X214287311Y-134753846D01*
X214198102Y-134772660D01*
X214172351Y-134789707D01*
X214147805Y-134805956D01*
X214129302Y-134863457D01*
X213899929Y-134863457D01*
X213939731Y-134828478D01*
X213943627Y-134789707D01*
X213895687Y-134757910D01*
X213794667Y-134730946D01*
X213676496Y-134704618D01*
X213379453Y-134614046D01*
X213102583Y-134496138D01*
X213086062Y-134488016D01*
X212999483Y-134450008D01*
X212934897Y-134429105D01*
X212905242Y-134429665D01*
X212902176Y-134442534D01*
X212796456Y-134442534D01*
X212792057Y-134401162D01*
X212771474Y-134200462D01*
X212763294Y-134121965D01*
X212747365Y-133991249D01*
X212729857Y-133892827D01*
X212707014Y-133811863D01*
X212675078Y-133733521D01*
X212630293Y-133642967D01*
X212620993Y-133624939D01*
X212585405Y-133553910D01*
X212559222Y-133492902D01*
X212540300Y-133431200D01*
X212526498Y-133358085D01*
X212515672Y-133262840D01*
X212505680Y-133134750D01*
X212494380Y-132963096D01*
X212493837Y-132954509D01*
X212486383Y-132793847D01*
X212482470Y-132616637D01*
X212481815Y-132430761D01*
X212484139Y-132244100D01*
X212489160Y-132064534D01*
X212496595Y-131899944D01*
X212506165Y-131758211D01*
X212517587Y-131647216D01*
X212530581Y-131574840D01*
X212544864Y-131548963D01*
X212547426Y-131553440D01*
X212552759Y-131600363D01*
X212556697Y-131693969D01*
X212559166Y-131828796D01*
X212560089Y-131999383D01*
X212559392Y-132200271D01*
X212556999Y-132425997D01*
X212544875Y-133303032D01*
X212652524Y-133527389D01*
X212667823Y-133558633D01*
X212723391Y-133660727D01*
X212769599Y-133727694D01*
X212801282Y-133751747D01*
X212828667Y-133738492D01*
X212822960Y-133690558D01*
X212791494Y-133579072D01*
X212763697Y-133444306D01*
X212744180Y-133295183D01*
X212732867Y-133126064D01*
X212729680Y-132931308D01*
X212734540Y-132705276D01*
X212747370Y-132442327D01*
X212768093Y-132136821D01*
X212774360Y-132059141D01*
X213663845Y-132059141D01*
X213668064Y-132310667D01*
X213678274Y-132614345D01*
X213685553Y-132785601D01*
X213700490Y-133074494D01*
X213716868Y-133312336D01*
X213734913Y-133501315D01*
X213754855Y-133643620D01*
X213776919Y-133741438D01*
X213801335Y-133796959D01*
X213808693Y-133805631D01*
X213828681Y-133819233D01*
X213862248Y-133829489D01*
X213916197Y-133836928D01*
X213997329Y-133842078D01*
X214112445Y-133845468D01*
X214268347Y-133847626D01*
X214471838Y-133849083D01*
X214550147Y-133849432D01*
X214745018Y-133849589D01*
X214930679Y-133848808D01*
X215095836Y-133847185D01*
X215229194Y-133844817D01*
X215319459Y-133841802D01*
X215532099Y-133830976D01*
X215574245Y-133730173D01*
X215608609Y-133632565D01*
X215649368Y-133467612D01*
X215685594Y-133258549D01*
X215717533Y-133003339D01*
X215745430Y-132699946D01*
X215769531Y-132346336D01*
X215790082Y-131940473D01*
X215796266Y-131757608D01*
X215796529Y-131625931D01*
X215790776Y-131544614D01*
X215778959Y-131511796D01*
X215773775Y-131510245D01*
X215724220Y-131504855D01*
X215629510Y-131498864D01*
X215496634Y-131492579D01*
X215332577Y-131486306D01*
X215144327Y-131480351D01*
X214938870Y-131475019D01*
X214884208Y-131473732D01*
X214663391Y-131468041D01*
X214493152Y-131462634D01*
X214370357Y-131457306D01*
X214291874Y-131451853D01*
X214254571Y-131446070D01*
X214255315Y-131439754D01*
X214290973Y-131432698D01*
X214312122Y-131430155D01*
X214412695Y-131424011D01*
X214547933Y-131421552D01*
X214702751Y-131422899D01*
X214862065Y-131428170D01*
X214889052Y-131429416D01*
X215063581Y-131437190D01*
X215242482Y-131444741D01*
X215406190Y-131451262D01*
X215535138Y-131455944D01*
X215800288Y-131464764D01*
X215800288Y-131086948D01*
X215800114Y-131042489D01*
X215797394Y-130909770D01*
X215791884Y-130800507D01*
X215784243Y-130725008D01*
X215775130Y-130693584D01*
X215754272Y-130689150D01*
X215685696Y-130682200D01*
X215579349Y-130674714D01*
X215444751Y-130667340D01*
X215291423Y-130660722D01*
X215173650Y-130656757D01*
X215006709Y-130654139D01*
X214884131Y-130657914D01*
X214799668Y-130669133D01*
X214747072Y-130688844D01*
X214720097Y-130718096D01*
X214715420Y-130742604D01*
X214712493Y-130757939D01*
X214693711Y-130815908D01*
X214646307Y-130856073D01*
X214589928Y-130859185D01*
X214579486Y-130853343D01*
X214535839Y-130809908D01*
X214489627Y-130743827D01*
X214430999Y-130644460D01*
X214106571Y-130657821D01*
X213980747Y-130664351D01*
X213863075Y-130675176D01*
X213791007Y-130689367D01*
X213759618Y-130707630D01*
X213757689Y-130711231D01*
X213743094Y-130765920D01*
X213728618Y-130862337D01*
X213715444Y-130989348D01*
X213704754Y-131135817D01*
X213697729Y-131290612D01*
X213692686Y-131453781D01*
X213815063Y-131470093D01*
X213863134Y-131476629D01*
X213903872Y-131483681D01*
X213894869Y-131487538D01*
X213838789Y-131490489D01*
X213827720Y-131491148D01*
X213756659Y-131504793D01*
X213713265Y-131528567D01*
X213708106Y-131536237D01*
X213687747Y-131598313D01*
X213673625Y-131704878D01*
X213665678Y-131857849D01*
X213663845Y-132059141D01*
X212774360Y-132059141D01*
X212796629Y-131783119D01*
X212802253Y-131716737D01*
X212818894Y-131513852D01*
X212833265Y-131328854D01*
X212844855Y-131169001D01*
X212853155Y-131041549D01*
X212857652Y-130953758D01*
X212857838Y-130912884D01*
X212847902Y-130891266D01*
X212827735Y-130904531D01*
X212803256Y-130948914D01*
X212779517Y-131012733D01*
X212761569Y-131084306D01*
X212754463Y-131151949D01*
X212751700Y-131195007D01*
X212730158Y-131243148D01*
X212688123Y-131241121D01*
X212626628Y-131188631D01*
X212595959Y-131152891D01*
X212543454Y-131068628D01*
X212516999Y-130972085D01*
X212509710Y-130842909D01*
X212514771Y-130742578D01*
X212539134Y-130635132D01*
X212555679Y-130597143D01*
X213755570Y-130597143D01*
X213943953Y-130597143D01*
X213947084Y-130597141D01*
X214042705Y-130594963D01*
X214114683Y-130589475D01*
X214147649Y-130581831D01*
X214150056Y-130577722D01*
X214152875Y-130549553D01*
X214284175Y-130549553D01*
X214284664Y-130550896D01*
X214319556Y-130578467D01*
X214377639Y-130588399D01*
X214430232Y-130575582D01*
X214443240Y-130564601D01*
X214559994Y-130564601D01*
X214560845Y-130617539D01*
X214573551Y-130675695D01*
X214582145Y-130726319D01*
X214586663Y-130740009D01*
X214622362Y-130760312D01*
X214644078Y-130742604D01*
X214642810Y-130682322D01*
X214615894Y-130576747D01*
X214604326Y-130551617D01*
X214578917Y-130539346D01*
X214559994Y-130564601D01*
X214443240Y-130564601D01*
X214452531Y-130556758D01*
X214499494Y-130483046D01*
X214522480Y-130406611D01*
X214647950Y-130406611D01*
X214693379Y-130501877D01*
X214704979Y-130524691D01*
X214749786Y-130580896D01*
X214805631Y-130597143D01*
X214854831Y-130590925D01*
X214889242Y-130562662D01*
X214906835Y-130501607D01*
X214913355Y-130397091D01*
X214913439Y-130369949D01*
X214901612Y-130287912D01*
X215081737Y-130287912D01*
X215084358Y-130332792D01*
X215088262Y-130340468D01*
X215097131Y-130369949D01*
X215105245Y-130396920D01*
X215119463Y-130474766D01*
X215134014Y-130583546D01*
X215467151Y-130591181D01*
X215800288Y-130598817D01*
X215800288Y-130202818D01*
X216697718Y-130202818D01*
X216711316Y-130216415D01*
X216724913Y-130202818D01*
X216711316Y-130189220D01*
X216697718Y-130202818D01*
X215800288Y-130202818D01*
X215800288Y-130149265D01*
X215800215Y-130121233D01*
X216697718Y-130121233D01*
X216711316Y-130134830D01*
X216724913Y-130121233D01*
X216711316Y-130107636D01*
X216697718Y-130121233D01*
X215800215Y-130121233D01*
X215800095Y-130075570D01*
X215797502Y-129907502D01*
X215791755Y-129790450D01*
X215782691Y-129721994D01*
X215770148Y-129699713D01*
X215758454Y-129703364D01*
X215721649Y-129729670D01*
X215711668Y-129736804D01*
X215647311Y-129795309D01*
X215577012Y-129866742D01*
X215512400Y-129938965D01*
X215465104Y-129999841D01*
X215446755Y-130037232D01*
X215440947Y-130061311D01*
X215413373Y-130082483D01*
X215353186Y-130100570D01*
X215249660Y-130120078D01*
X215232917Y-130123228D01*
X215155808Y-130154822D01*
X215105775Y-130218433D01*
X215103141Y-130223675D01*
X215081737Y-130287912D01*
X214901612Y-130287912D01*
X214900966Y-130283432D01*
X214867208Y-130246912D01*
X214811597Y-130260151D01*
X214733558Y-130322914D01*
X214663192Y-130391709D01*
X214647950Y-130406611D01*
X214522480Y-130406611D01*
X214526962Y-130391709D01*
X214525660Y-130308686D01*
X214517810Y-130284696D01*
X214478914Y-130230610D01*
X214430332Y-130219559D01*
X214382593Y-130246758D01*
X214346227Y-130307425D01*
X214331765Y-130396774D01*
X214331742Y-130400354D01*
X214322969Y-130465798D01*
X214303135Y-130502848D01*
X214294009Y-130510568D01*
X214284175Y-130549553D01*
X214152875Y-130549553D01*
X214154441Y-130533904D01*
X214149194Y-130463880D01*
X214147222Y-130393282D01*
X214179207Y-130276581D01*
X214206307Y-130220487D01*
X214218243Y-130168585D01*
X214193510Y-130140457D01*
X214127720Y-130123011D01*
X214098949Y-130115049D01*
X214304571Y-130115049D01*
X214304769Y-130121902D01*
X214316168Y-130148401D01*
X214354713Y-130158533D01*
X214433746Y-130156588D01*
X214483297Y-130153969D01*
X214537015Y-130157051D01*
X214550520Y-130168585D01*
X214558815Y-130175670D01*
X214562922Y-130216415D01*
X214573244Y-130265847D01*
X214617629Y-130292243D01*
X214666395Y-130288579D01*
X214719562Y-130246489D01*
X214739688Y-130170184D01*
X214741389Y-130135404D01*
X214755118Y-130112315D01*
X214791902Y-130121526D01*
X214862588Y-130162348D01*
X214932229Y-130194146D01*
X214997984Y-130196888D01*
X215033900Y-130166730D01*
X215032038Y-130111661D01*
X214984463Y-130039670D01*
X214932035Y-129983863D01*
X215071708Y-129983863D01*
X215098973Y-130009623D01*
X215157940Y-130040035D01*
X215174686Y-130046871D01*
X215239059Y-130070032D01*
X215275913Y-130078294D01*
X215318211Y-130067626D01*
X215354611Y-130025906D01*
X215365170Y-129943805D01*
X215365589Y-129925205D01*
X215374825Y-129857825D01*
X215392365Y-129822089D01*
X215399803Y-129815852D01*
X215417732Y-129766923D01*
X215414591Y-129722940D01*
X215505626Y-129722940D01*
X215507853Y-129766923D01*
X215508129Y-129772370D01*
X215512653Y-129790616D01*
X215523284Y-129807392D01*
X215541088Y-129773326D01*
X215549836Y-129729670D01*
X215538245Y-129700167D01*
X215512338Y-129706649D01*
X215505626Y-129722940D01*
X215414591Y-129722940D01*
X215413149Y-129702750D01*
X215386926Y-129650762D01*
X215353136Y-129628567D01*
X215673554Y-129628567D01*
X215688299Y-129645323D01*
X215696275Y-129644308D01*
X215732301Y-129618128D01*
X215736657Y-129607689D01*
X215721913Y-129590933D01*
X215713936Y-129591948D01*
X215677911Y-129618128D01*
X215673554Y-129628567D01*
X215353136Y-129628567D01*
X215343758Y-129622407D01*
X215301202Y-129626838D01*
X215283586Y-129670685D01*
X215273184Y-129704688D01*
X215228734Y-129740652D01*
X215218244Y-129745346D01*
X215170568Y-129789567D01*
X215153945Y-129816432D01*
X215128187Y-129858062D01*
X215118940Y-129878250D01*
X215089140Y-129942615D01*
X215071864Y-129978847D01*
X215071708Y-129983863D01*
X214932035Y-129983863D01*
X214930094Y-129981797D01*
X215010490Y-129904773D01*
X215053492Y-129859341D01*
X215073933Y-129816432D01*
X215062264Y-129774267D01*
X215041173Y-129745661D01*
X215000203Y-129731297D01*
X214926283Y-129737953D01*
X214900083Y-129741966D01*
X214841654Y-129744030D01*
X214808445Y-129720339D01*
X214778941Y-129659430D01*
X214768008Y-129635125D01*
X214727361Y-129579668D01*
X214674363Y-129563738D01*
X214645186Y-129566701D01*
X214611592Y-129593063D01*
X214591888Y-129659041D01*
X214585219Y-129692710D01*
X214568655Y-129734342D01*
X214533974Y-129745416D01*
X214463425Y-129736661D01*
X214352840Y-129718977D01*
X214371723Y-129830746D01*
X214374086Y-129845739D01*
X214375303Y-129906258D01*
X214375907Y-129936291D01*
X214347588Y-130003931D01*
X214319706Y-130055668D01*
X214304571Y-130115049D01*
X214098949Y-130115049D01*
X214077882Y-130109219D01*
X214023623Y-130070139D01*
X213983689Y-130006679D01*
X214032622Y-130006679D01*
X214033612Y-130010560D01*
X214063969Y-130027622D01*
X214117625Y-130036252D01*
X214168596Y-130031674D01*
X214173841Y-130029912D01*
X214233188Y-129996291D01*
X214283346Y-129948913D01*
X214304315Y-129906258D01*
X214295031Y-129876766D01*
X214264561Y-129812053D01*
X214220262Y-129730347D01*
X214185350Y-129671388D01*
X214149153Y-129621404D01*
X214122933Y-129607568D01*
X214098259Y-129622421D01*
X214083375Y-129640237D01*
X214074202Y-129681678D01*
X214093053Y-129748055D01*
X214106148Y-129787405D01*
X214107912Y-129822089D01*
X214109250Y-129848391D01*
X214079338Y-129914567D01*
X214075486Y-129921132D01*
X214045088Y-129976739D01*
X214032622Y-130006679D01*
X213983689Y-130006679D01*
X213975945Y-129994372D01*
X213958019Y-129962125D01*
X213921037Y-129914300D01*
X213895420Y-129907622D01*
X213888064Y-129919640D01*
X213867561Y-129979412D01*
X213846464Y-130062311D01*
X213843216Y-130075075D01*
X213817754Y-130194325D01*
X213816202Y-130202818D01*
X213793899Y-130324858D01*
X213783599Y-130393182D01*
X213774375Y-130454370D01*
X213755570Y-130597143D01*
X212555679Y-130597143D01*
X212590686Y-130516764D01*
X212633366Y-130436978D01*
X212660050Y-130393182D01*
X212917633Y-130393182D01*
X212931230Y-130406779D01*
X212944828Y-130393182D01*
X212931230Y-130379584D01*
X212917633Y-130393182D01*
X212660050Y-130393182D01*
X212673620Y-130370909D01*
X212699465Y-130339168D01*
X212707723Y-130328364D01*
X212721731Y-130274719D01*
X212726800Y-130202818D01*
X212863243Y-130202818D01*
X212876840Y-130216415D01*
X212890438Y-130202818D01*
X212876840Y-130189220D01*
X212863243Y-130202818D01*
X212726800Y-130202818D01*
X212727269Y-130196167D01*
X212738142Y-130093914D01*
X212750044Y-130070490D01*
X212895248Y-130070490D01*
X212917633Y-130080441D01*
X212932030Y-130078478D01*
X212935763Y-130062311D01*
X212931777Y-130059056D01*
X212899503Y-130062311D01*
X212895248Y-130070490D01*
X212750044Y-130070490D01*
X212778644Y-130014206D01*
X212785089Y-130006095D01*
X212814807Y-129951677D01*
X212849073Y-129870252D01*
X212866533Y-129822089D01*
X213978232Y-129822089D01*
X213991830Y-129835687D01*
X214005427Y-129822089D01*
X213991830Y-129808492D01*
X213978232Y-129822089D01*
X212866533Y-129822089D01*
X212883707Y-129774714D01*
X212914528Y-129677960D01*
X212937356Y-129592884D01*
X212948010Y-129532382D01*
X212945176Y-129520930D01*
X213973965Y-129520930D01*
X213995327Y-129555246D01*
X214033656Y-129553568D01*
X214087012Y-129522946D01*
X214093460Y-129517333D01*
X214154027Y-129489023D01*
X214201547Y-129512315D01*
X214231357Y-129585198D01*
X214238300Y-129615623D01*
X214256843Y-129649075D01*
X214296850Y-129661125D01*
X214374702Y-129660361D01*
X214376517Y-129660283D01*
X214458957Y-129651604D01*
X214507005Y-129628631D01*
X214540099Y-129582174D01*
X214569879Y-129542848D01*
X214639491Y-129509781D01*
X214720773Y-129520026D01*
X214799776Y-129574021D01*
X214870064Y-129622467D01*
X214970845Y-129652926D01*
X214989038Y-129655466D01*
X215068805Y-129669971D01*
X215123709Y-129685000D01*
X215143502Y-129688946D01*
X215195603Y-129671000D01*
X215233943Y-129627434D01*
X215238816Y-129576778D01*
X215235407Y-129552014D01*
X215259847Y-129524276D01*
X215310061Y-129521655D01*
X215369960Y-129547715D01*
X215372017Y-129549141D01*
X215473045Y-129587966D01*
X215581685Y-129576623D01*
X215687508Y-129516147D01*
X215704655Y-129501471D01*
X215744545Y-129460123D01*
X215768236Y-129413160D01*
X215781769Y-129344334D01*
X215791187Y-129237400D01*
X215796610Y-129128666D01*
X215791766Y-129044692D01*
X215772518Y-128970630D01*
X215735293Y-128883867D01*
X215685257Y-128747381D01*
X215664579Y-128605119D01*
X215663954Y-128573691D01*
X215653299Y-128499973D01*
X215652231Y-128498919D01*
X215840197Y-128498919D01*
X215877564Y-128546027D01*
X215964373Y-128606421D01*
X216101977Y-128681187D01*
X216196433Y-128727290D01*
X216281814Y-128763562D01*
X216329417Y-128774584D01*
X216344185Y-128762005D01*
X216344007Y-128760811D01*
X216330287Y-128726786D01*
X216299004Y-128658962D01*
X216256231Y-128570560D01*
X216217190Y-128497918D01*
X217736388Y-128497918D01*
X217738042Y-128513450D01*
X217758921Y-128583174D01*
X217790971Y-128610001D01*
X217823754Y-128591392D01*
X217846829Y-128524804D01*
X217848711Y-128511796D01*
X217853620Y-128419417D01*
X217848036Y-128322579D01*
X217833938Y-128240835D01*
X217813308Y-128193737D01*
X217808795Y-128190772D01*
X217787589Y-128207133D01*
X217766160Y-128260209D01*
X217748092Y-128335819D01*
X217736973Y-128419783D01*
X217736388Y-128497918D01*
X216217190Y-128497918D01*
X216214459Y-128492837D01*
X216158640Y-128412977D01*
X216113142Y-128378360D01*
X216104163Y-128376839D01*
X216039261Y-128383140D01*
X215958554Y-128406765D01*
X215885284Y-128439552D01*
X215842690Y-128473339D01*
X215840197Y-128498919D01*
X215652231Y-128498919D01*
X215628942Y-128475944D01*
X215615553Y-128477272D01*
X215554716Y-128488036D01*
X215461581Y-128507269D01*
X215350195Y-128532140D01*
X215273383Y-128549833D01*
X215125073Y-128583397D01*
X215011481Y-128607550D01*
X214919846Y-128624523D01*
X214837406Y-128636546D01*
X214751400Y-128645849D01*
X214649066Y-128654662D01*
X214531279Y-128666775D01*
X214442032Y-128685980D01*
X214389722Y-128716625D01*
X214365111Y-128764460D01*
X214358960Y-128835236D01*
X214357067Y-128859847D01*
X214329798Y-128936357D01*
X214280713Y-128995876D01*
X214223440Y-129019841D01*
X214186104Y-129035569D01*
X214135901Y-129089490D01*
X214084792Y-129170264D01*
X214037910Y-129265844D01*
X214000390Y-129364181D01*
X213977364Y-129453226D01*
X213973965Y-129520930D01*
X212945176Y-129520930D01*
X212942310Y-129509349D01*
X212934810Y-129512881D01*
X212896702Y-129547300D01*
X212837745Y-129610539D01*
X212767180Y-129692914D01*
X212539856Y-129989561D01*
X212289535Y-130374054D01*
X212055535Y-130801064D01*
X211834626Y-131276076D01*
X211817321Y-131316789D01*
X211737712Y-131514783D01*
X211653669Y-131739099D01*
X211567582Y-131982025D01*
X211481842Y-132235851D01*
X211398840Y-132492867D01*
X211320968Y-132745363D01*
X211250616Y-132985627D01*
X211190174Y-133205949D01*
X211142035Y-133398620D01*
X211108589Y-133555927D01*
X211092227Y-133670162D01*
X211091566Y-133677961D01*
X211080885Y-133748636D01*
X211066416Y-133792539D01*
X211049634Y-133834073D01*
X211033414Y-133901319D01*
X211020217Y-133966607D01*
X210998462Y-134065030D01*
X210973245Y-134173267D01*
X210950248Y-134277112D01*
X210927480Y-134396281D01*
X210913200Y-134490597D01*
X210907340Y-134549778D01*
X210699779Y-134549778D01*
X210663429Y-134518826D01*
X210560176Y-134409512D01*
X210493654Y-134310983D01*
X210470095Y-134229445D01*
X210473158Y-134203952D01*
X210493741Y-134187773D01*
X210526178Y-134213025D01*
X210561563Y-134275248D01*
X210566038Y-134285211D01*
X210607365Y-134354756D01*
X210659815Y-134419351D01*
X210712938Y-134469005D01*
X210756285Y-134493728D01*
X210779406Y-134483528D01*
X210781218Y-134477368D01*
X210795668Y-134421276D01*
X210815654Y-134337364D01*
X210837533Y-134241774D01*
X210857661Y-134150648D01*
X210872395Y-134080129D01*
X210878089Y-134046358D01*
X210875722Y-134043441D01*
X210837081Y-134037664D01*
X210760758Y-134037371D01*
X210659312Y-134041717D01*
X210545297Y-134049852D01*
X210431271Y-134060930D01*
X210329790Y-134074102D01*
X210253410Y-134088523D01*
X210195481Y-134105921D01*
X210141149Y-134135272D01*
X210102411Y-134180713D01*
X210076629Y-134249895D01*
X210061164Y-134350466D01*
X210053377Y-134490075D01*
X210050631Y-134676372D01*
X210050595Y-134683674D01*
X210050951Y-134858699D01*
X210053244Y-135044594D01*
X210057106Y-135219608D01*
X210062172Y-135361991D01*
X210075770Y-135653284D01*
X209980588Y-135732884D01*
X209885406Y-135812485D01*
X209876970Y-136331123D01*
X209875599Y-136437747D01*
X209709602Y-136437747D01*
X209712279Y-136301013D01*
X209731043Y-136075936D01*
X209766774Y-135896194D01*
X209820380Y-135757726D01*
X209892765Y-135656471D01*
X209986823Y-135560205D01*
X209970004Y-135356244D01*
X209961225Y-135245876D01*
X209941998Y-134955043D01*
X209932736Y-134714163D01*
X209933427Y-134520612D01*
X209944056Y-134371766D01*
X209964611Y-134265000D01*
X209986956Y-134199350D01*
X210023187Y-134119103D01*
X210056329Y-134071331D01*
X210061992Y-134066644D01*
X210145348Y-134021750D01*
X210269536Y-133981995D01*
X210422263Y-133950608D01*
X210591236Y-133930818D01*
X210617672Y-133928695D01*
X210718113Y-133917732D01*
X210793595Y-133904982D01*
X210829441Y-133892787D01*
X210837429Y-133878195D01*
X210858923Y-133818692D01*
X210886907Y-133726456D01*
X210917381Y-133614163D01*
X210925549Y-133583871D01*
X210957734Y-133474766D01*
X211003777Y-133327275D01*
X211060597Y-133150657D01*
X211125114Y-132954168D01*
X211194246Y-132747066D01*
X211264913Y-132538608D01*
X211334035Y-132338053D01*
X211398530Y-132154657D01*
X211455318Y-131997678D01*
X211554939Y-131734664D01*
X211732386Y-131298859D01*
X211912145Y-130897377D01*
X212091860Y-130535117D01*
X212269171Y-130216980D01*
X212441723Y-129947865D01*
X212475031Y-129902222D01*
X212544918Y-129811556D01*
X212630464Y-129704368D01*
X212720101Y-129595307D01*
X212785215Y-129515338D01*
X212863570Y-129413496D01*
X212925217Y-129326946D01*
X212960672Y-129268569D01*
X212969266Y-129250297D01*
X212989240Y-129192910D01*
X212986400Y-129139989D01*
X212960759Y-129064608D01*
X212942751Y-129021199D01*
X212897942Y-128924605D01*
X212841981Y-128812912D01*
X212780691Y-128696789D01*
X212719896Y-128586905D01*
X212665421Y-128493928D01*
X212623087Y-128428526D01*
X212598718Y-128401366D01*
X212585241Y-128407551D01*
X212565177Y-128457022D01*
X212548773Y-128548353D01*
X212538804Y-128594314D01*
X212526525Y-128650930D01*
X212472271Y-128760962D01*
X212395278Y-128831527D01*
X212301041Y-128855807D01*
X212290992Y-128855572D01*
X212210453Y-128840440D01*
X212150885Y-128797357D01*
X212108561Y-128719798D01*
X212079753Y-128601238D01*
X212067705Y-128496025D01*
X212221239Y-128496025D01*
X212231855Y-128582690D01*
X212254917Y-128650497D01*
X212289626Y-128687824D01*
X212327844Y-128675939D01*
X212337778Y-128659623D01*
X212346012Y-128594314D01*
X212334817Y-128505644D01*
X212305748Y-128412151D01*
X212281747Y-128353199D01*
X212273819Y-128326372D01*
X212319346Y-128326372D01*
X212332943Y-128339970D01*
X212346541Y-128326372D01*
X212332943Y-128312775D01*
X212319346Y-128326372D01*
X212273819Y-128326372D01*
X212268139Y-128307151D01*
X212276620Y-128288852D01*
X212307353Y-128285580D01*
X212326778Y-128281667D01*
X212332943Y-128258385D01*
X212324714Y-128248851D01*
X212279500Y-128231190D01*
X212254650Y-128254063D01*
X212234743Y-128316170D01*
X212222903Y-128402005D01*
X212221239Y-128496025D01*
X212067705Y-128496025D01*
X212060734Y-128435152D01*
X212045997Y-128304613D01*
X212018559Y-128186589D01*
X211980294Y-128117636D01*
X211930228Y-128095216D01*
X211913284Y-128092748D01*
X211846573Y-128068835D01*
X211755545Y-128025827D01*
X211655040Y-127971548D01*
X211559896Y-127913821D01*
X211484956Y-127860469D01*
X211432912Y-127812335D01*
X211329318Y-127673330D01*
X211256992Y-127511650D01*
X211226057Y-127347357D01*
X211225687Y-127332528D01*
X211230236Y-127232067D01*
X211243747Y-127106769D01*
X211263796Y-126980227D01*
X211283242Y-126854430D01*
X211293066Y-126730302D01*
X211289159Y-126640291D01*
X211284677Y-126614637D01*
X211268274Y-126558375D01*
X211237526Y-126536608D01*
X211176444Y-126534299D01*
X211130347Y-126541347D01*
X211037837Y-126565933D01*
X210921601Y-126603797D01*
X210796434Y-126650419D01*
X210695435Y-126688751D01*
X210586705Y-126725819D01*
X210502848Y-126749685D01*
X210456498Y-126756411D01*
X210442903Y-126752146D01*
X210415581Y-126724064D01*
X210391883Y-126666901D01*
X210371138Y-126576439D01*
X210352678Y-126448462D01*
X210335832Y-126278750D01*
X210319933Y-126063085D01*
X210304311Y-125797250D01*
X210295874Y-125630784D01*
X210288412Y-125443702D01*
X210285656Y-125294588D01*
X210287622Y-125174076D01*
X210294328Y-125072803D01*
X210305789Y-124981404D01*
X210315541Y-124916876D01*
X210330786Y-124806999D01*
X210343648Y-124697843D01*
X210354333Y-124583898D01*
X210363050Y-124459652D01*
X210370006Y-124319596D01*
X210375407Y-124158217D01*
X210378386Y-124019887D01*
X211171430Y-124019887D01*
X211184963Y-124745399D01*
X211187623Y-124875360D01*
X211194771Y-125122511D01*
X211205040Y-125336022D01*
X211219882Y-125530066D01*
X211240751Y-125718814D01*
X211269098Y-125916436D01*
X211306375Y-126137103D01*
X211354037Y-126394987D01*
X211359692Y-126425922D01*
X211385181Y-126631992D01*
X211383776Y-126802910D01*
X211383746Y-126803199D01*
X211363002Y-127020267D01*
X211350768Y-127191525D01*
X211348333Y-127325060D01*
X211356984Y-127428961D01*
X211378009Y-127511316D01*
X211412696Y-127580214D01*
X211462334Y-127643743D01*
X211528209Y-127709990D01*
X211633557Y-127791897D01*
X211792037Y-127885982D01*
X211990742Y-127983902D01*
X212222718Y-128083037D01*
X212481012Y-128180765D01*
X212758670Y-128274468D01*
X212931616Y-128326372D01*
X213048740Y-128361523D01*
X213344266Y-128439310D01*
X213638296Y-128505209D01*
X213787547Y-128530415D01*
X214045316Y-128557445D01*
X214345363Y-128572486D01*
X214500883Y-128576096D01*
X214639562Y-128576549D01*
X214751895Y-128572050D01*
X214852761Y-128561489D01*
X214957044Y-128543758D01*
X215079624Y-128517746D01*
X215254364Y-128476978D01*
X215610811Y-128383172D01*
X215951583Y-128279562D01*
X216263791Y-128170212D01*
X216534549Y-128059182D01*
X216556219Y-128049405D01*
X216763397Y-127952844D01*
X216964364Y-127853981D01*
X217152913Y-127756311D01*
X217265912Y-127694474D01*
X217631500Y-127694474D01*
X217633284Y-127732252D01*
X217676275Y-127782995D01*
X217761785Y-127838658D01*
X217857758Y-127871694D01*
X217973396Y-127867253D01*
X218075457Y-127812785D01*
X218115593Y-127774872D01*
X218132835Y-127739572D01*
X218115642Y-127705458D01*
X218087475Y-127680051D01*
X218052111Y-127679993D01*
X217989726Y-127706247D01*
X217968196Y-127716247D01*
X217912577Y-127734535D01*
X217859802Y-127730371D01*
X217783847Y-127703397D01*
X217746305Y-127690010D01*
X217669612Y-127677711D01*
X217631500Y-127694474D01*
X217265912Y-127694474D01*
X217322833Y-127663325D01*
X217467914Y-127578516D01*
X217581948Y-127505378D01*
X217594554Y-127495859D01*
X217758318Y-127495859D01*
X217777927Y-127568330D01*
X217828712Y-127617191D01*
X217894715Y-127635644D01*
X217959959Y-127619343D01*
X218008466Y-127563937D01*
X218018461Y-127515376D01*
X218001218Y-127442793D01*
X217956595Y-127384716D01*
X217895608Y-127360955D01*
X217838892Y-127376863D01*
X217781940Y-127428363D01*
X217758318Y-127495859D01*
X217594554Y-127495859D01*
X217658726Y-127447403D01*
X217692037Y-127408084D01*
X217695632Y-127400209D01*
X217737789Y-127357644D01*
X217805132Y-127319399D01*
X217813896Y-127315763D01*
X217879012Y-127294414D01*
X217929508Y-127299580D01*
X217995071Y-127333458D01*
X218021189Y-127347143D01*
X218147774Y-127382186D01*
X218289627Y-127383156D01*
X218424311Y-127349227D01*
X218435729Y-127344177D01*
X218543642Y-127274200D01*
X218656636Y-127167317D01*
X218762731Y-127036340D01*
X218849945Y-126894079D01*
X218890341Y-126810786D01*
X218920871Y-126724843D01*
X218934529Y-126635714D01*
X218937227Y-126517914D01*
X218936013Y-126468659D01*
X218909002Y-126282125D01*
X218842945Y-126122775D01*
X218732923Y-125977594D01*
X218655616Y-125908058D01*
X218513938Y-125834883D01*
X218350680Y-125811219D01*
X218311250Y-125811669D01*
X218210950Y-125820264D01*
X218145073Y-125846813D01*
X218098545Y-125900495D01*
X218056294Y-125990489D01*
X217999066Y-126097271D01*
X217876396Y-126244768D01*
X217705454Y-126391180D01*
X217489663Y-126533232D01*
X217471701Y-126543684D01*
X217349143Y-126610031D01*
X217262900Y-126645218D01*
X217206968Y-126651083D01*
X217175341Y-126629465D01*
X217173668Y-126594666D01*
X217180274Y-126517663D01*
X217193928Y-126409885D01*
X217213378Y-126282731D01*
X217215156Y-126271880D01*
X217279605Y-125741584D01*
X217305575Y-125181926D01*
X217292628Y-124602229D01*
X217282032Y-124436300D01*
X217269954Y-124288736D01*
X217257355Y-124168961D01*
X217245169Y-124085829D01*
X217234326Y-124048187D01*
X217178101Y-124000894D01*
X217058631Y-123948375D01*
X216886927Y-123907042D01*
X216799515Y-123888735D01*
X216721566Y-123867237D01*
X216679711Y-123849085D01*
X216665725Y-123829453D01*
X216639348Y-123766318D01*
X216614937Y-123681503D01*
X216594455Y-123599221D01*
X216572840Y-123533455D01*
X216556812Y-123520128D01*
X216544629Y-123558511D01*
X216534549Y-123647878D01*
X216534413Y-123649497D01*
X216525028Y-123739438D01*
X216511097Y-123789451D01*
X216485062Y-123813708D01*
X216439367Y-123826382D01*
X216391841Y-123830526D01*
X216299801Y-123830145D01*
X216180672Y-123824871D01*
X216046088Y-123815727D01*
X215907680Y-123803739D01*
X215777082Y-123789933D01*
X215665926Y-123775334D01*
X215585847Y-123760967D01*
X215548476Y-123747858D01*
X215546269Y-123745435D01*
X215518065Y-123702662D01*
X215475700Y-123627383D01*
X215427454Y-123534217D01*
X215335570Y-123349713D01*
X215353980Y-123499284D01*
X215367019Y-123601370D01*
X215373889Y-123684415D01*
X215363216Y-123731994D01*
X215326855Y-123754458D01*
X215256657Y-123762156D01*
X215144476Y-123765440D01*
X215034919Y-123767556D01*
X214867349Y-123766092D01*
X214696296Y-123759995D01*
X214531406Y-123750016D01*
X214382323Y-123736905D01*
X214258693Y-123721411D01*
X214170162Y-123704285D01*
X214126375Y-123686277D01*
X214122183Y-123681175D01*
X214098294Y-123624850D01*
X214072240Y-123525728D01*
X214045625Y-123393411D01*
X214020054Y-123237501D01*
X213997131Y-123067600D01*
X213978460Y-122893309D01*
X213965644Y-122724231D01*
X213959760Y-122630127D01*
X213950053Y-122499455D01*
X213940139Y-122389197D01*
X213931440Y-122316308D01*
X213925328Y-122279233D01*
X213917457Y-122249496D01*
X213909187Y-122258242D01*
X213897808Y-122310547D01*
X213880607Y-122411490D01*
X213869478Y-122491778D01*
X213854964Y-122622614D01*
X213843281Y-122744984D01*
X213839651Y-122783007D01*
X213833732Y-122853406D01*
X213824786Y-122959801D01*
X213811613Y-123139841D01*
X213810769Y-123152339D01*
X213798822Y-123315878D01*
X213786645Y-123460826D01*
X213775109Y-123578258D01*
X213765085Y-123659249D01*
X213757444Y-123694873D01*
X213743190Y-123702532D01*
X213677896Y-123715627D01*
X213563704Y-123728750D01*
X213404049Y-123741535D01*
X213202366Y-123753621D01*
X213122405Y-123757787D01*
X212958588Y-123765854D01*
X212838445Y-123770399D01*
X212754396Y-123771097D01*
X212698861Y-123767621D01*
X212664261Y-123759645D01*
X212643016Y-123746843D01*
X212627547Y-123728889D01*
X212606790Y-123685879D01*
X212601583Y-123621661D01*
X212602599Y-123616943D01*
X212611565Y-123557887D01*
X212622471Y-123465114D01*
X212633186Y-123356511D01*
X212639181Y-123275078D01*
X212640319Y-123186870D01*
X212632677Y-123148383D01*
X212618085Y-123157536D01*
X212598375Y-123212249D01*
X212575376Y-123310441D01*
X212550918Y-123450030D01*
X212533765Y-123558190D01*
X212515161Y-123668182D01*
X212500134Y-123749132D01*
X212490879Y-123788661D01*
X212484684Y-123797051D01*
X212437891Y-123820752D01*
X212364528Y-123836963D01*
X212143978Y-123864479D01*
X211873081Y-123899420D01*
X211649054Y-123929824D01*
X211473705Y-123955435D01*
X211348843Y-123975995D01*
X211276277Y-123991248D01*
X211171430Y-124019887D01*
X210378386Y-124019887D01*
X210379460Y-123970005D01*
X210382374Y-123749448D01*
X210384355Y-123491035D01*
X210385611Y-123189256D01*
X210386087Y-122962548D01*
X210585103Y-122962548D01*
X210601051Y-122982582D01*
X210622622Y-122972607D01*
X210650670Y-122921815D01*
X210654005Y-122907796D01*
X212647595Y-122907796D01*
X212647944Y-122912734D01*
X212672879Y-122928192D01*
X212691034Y-122907631D01*
X212698162Y-122853406D01*
X212696439Y-122815797D01*
X212689576Y-122800773D01*
X212672879Y-122833010D01*
X212658909Y-122868524D01*
X212647595Y-122907796D01*
X210654005Y-122907796D01*
X210669886Y-122841033D01*
X210679167Y-122744984D01*
X210677405Y-122648391D01*
X210663498Y-122565977D01*
X210636338Y-122512465D01*
X210628913Y-122507509D01*
X210615602Y-122522954D01*
X210608298Y-122581764D01*
X210606069Y-122689373D01*
X210606030Y-122703805D01*
X210603430Y-122808280D01*
X210597565Y-122892565D01*
X210589563Y-122939566D01*
X210585103Y-122962548D01*
X210386087Y-122962548D01*
X210386348Y-122838599D01*
X210386558Y-122658451D01*
X210386572Y-122351886D01*
X210385980Y-122092651D01*
X210384670Y-121876110D01*
X210382530Y-121697624D01*
X210379449Y-121552554D01*
X210375314Y-121436263D01*
X210370014Y-121344112D01*
X210363437Y-121271462D01*
X210355470Y-121213676D01*
X210346003Y-121166115D01*
X210329634Y-121095509D01*
X210291612Y-120926723D01*
X210258870Y-120771995D01*
X210225342Y-120603032D01*
X210211281Y-120531295D01*
X210189910Y-120424766D01*
X210172981Y-120343183D01*
X210167235Y-120311600D01*
X210167598Y-120212572D01*
X210201137Y-120149349D01*
X210265626Y-120127122D01*
X210318082Y-120120407D01*
X210387786Y-120094068D01*
X210396220Y-120089116D01*
X210453242Y-120074720D01*
X210530190Y-120091882D01*
X210549003Y-120097938D01*
X210642732Y-120121789D01*
X210742044Y-120140151D01*
X210820995Y-120152689D01*
X210937163Y-120173312D01*
X211054785Y-120195965D01*
X211155103Y-120214267D01*
X211291335Y-120234874D01*
X211408318Y-120248336D01*
X211555626Y-120263793D01*
X211691184Y-120286918D01*
X211789046Y-120316455D01*
X211844520Y-120332816D01*
X211946424Y-120354258D01*
X212076622Y-120376551D01*
X212221385Y-120397367D01*
X212366986Y-120414382D01*
X212448006Y-120424973D01*
X212518310Y-120439476D01*
X212550443Y-120453365D01*
X212550500Y-120453455D01*
X212582794Y-120466934D01*
X212653914Y-120481372D01*
X212748566Y-120493660D01*
X212776583Y-120496351D01*
X212855606Y-120500944D01*
X212925668Y-120496888D01*
X213001698Y-120481461D01*
X213098626Y-120451938D01*
X213211124Y-120412668D01*
X216860887Y-120412668D01*
X216874485Y-120426265D01*
X216888082Y-120412668D01*
X216874485Y-120399070D01*
X216860887Y-120412668D01*
X213211124Y-120412668D01*
X213231383Y-120405596D01*
X213352483Y-120364015D01*
X213532166Y-120309498D01*
X213569277Y-120300063D01*
X216536815Y-120300063D01*
X216536828Y-120300073D01*
X216568817Y-120312335D01*
X216629731Y-120328083D01*
X216654317Y-120333198D01*
X216685875Y-120334948D01*
X216681699Y-120330536D01*
X217002672Y-120330536D01*
X217003117Y-120334948D01*
X217005927Y-120362810D01*
X217014106Y-120367065D01*
X217024057Y-120344680D01*
X217022128Y-120330536D01*
X217111451Y-120330536D01*
X217112877Y-120344680D01*
X217114706Y-120362810D01*
X217122886Y-120367065D01*
X217132836Y-120344680D01*
X217130873Y-120330284D01*
X217114706Y-120326551D01*
X217111451Y-120330536D01*
X217022128Y-120330536D01*
X217022094Y-120330284D01*
X217005927Y-120326551D01*
X217002672Y-120330536D01*
X216681699Y-120330536D01*
X216670523Y-120318728D01*
X216665869Y-120315872D01*
X216624516Y-120300400D01*
X216575950Y-120290755D01*
X216540080Y-120289716D01*
X216536815Y-120300063D01*
X213569277Y-120300063D01*
X213723060Y-120260965D01*
X213939493Y-120214885D01*
X214194742Y-120167914D01*
X217187226Y-120167914D01*
X217200823Y-120181511D01*
X217214421Y-120167914D01*
X217200823Y-120154316D01*
X217187226Y-120167914D01*
X214194742Y-120167914D01*
X214195791Y-120167721D01*
X214228023Y-120162154D01*
X214349781Y-120140374D01*
X214428599Y-120119166D01*
X214472898Y-120089474D01*
X214491095Y-120042241D01*
X214491187Y-120028969D01*
X214689571Y-120028969D01*
X214696063Y-120065367D01*
X214705347Y-120064946D01*
X214710026Y-120031940D01*
X215365170Y-120031940D01*
X215378768Y-120045537D01*
X215392365Y-120031940D01*
X215378768Y-120018342D01*
X215367437Y-120029673D01*
X215365170Y-120031940D01*
X214710026Y-120031940D01*
X214710347Y-120029673D01*
X214705992Y-120002942D01*
X214693916Y-120013243D01*
X214689571Y-120028969D01*
X214491187Y-120028969D01*
X214491549Y-119977003D01*
X215235006Y-119977003D01*
X215238261Y-120009277D01*
X215246441Y-120013532D01*
X215256391Y-119991147D01*
X215254428Y-119976750D01*
X215238261Y-119973017D01*
X215235006Y-119977003D01*
X214491549Y-119977003D01*
X214491609Y-119968412D01*
X214482860Y-119858932D01*
X214481406Y-119841029D01*
X214691109Y-119841029D01*
X214694364Y-119873303D01*
X214702543Y-119877557D01*
X214712493Y-119855173D01*
X214710531Y-119840776D01*
X214694364Y-119837043D01*
X214691109Y-119841029D01*
X214481406Y-119841029D01*
X214479424Y-119816614D01*
X214479242Y-119814381D01*
X215147611Y-119814381D01*
X215161209Y-119827978D01*
X215174806Y-119814381D01*
X215161209Y-119800783D01*
X215147611Y-119814381D01*
X214479242Y-119814381D01*
X214474814Y-119759991D01*
X214875663Y-119759991D01*
X214889260Y-119773588D01*
X214902858Y-119759991D01*
X214889260Y-119746394D01*
X214875663Y-119759991D01*
X214474814Y-119759991D01*
X214471273Y-119716495D01*
X214465313Y-119643668D01*
X214462644Y-119611593D01*
X214460760Y-119569627D01*
X214766883Y-119569627D01*
X214780481Y-119583224D01*
X214794078Y-119569627D01*
X214780481Y-119556030D01*
X214766883Y-119569627D01*
X214460760Y-119569627D01*
X214459909Y-119550670D01*
X214464116Y-119488042D01*
X214576519Y-119488042D01*
X214590117Y-119501640D01*
X214603714Y-119488042D01*
X214590117Y-119474445D01*
X214576519Y-119488042D01*
X214464116Y-119488042D01*
X214466242Y-119456386D01*
X214483514Y-119383420D01*
X214508847Y-119348184D01*
X214513571Y-119346755D01*
X214573648Y-119351464D01*
X214667079Y-119380847D01*
X214783449Y-119429817D01*
X214901689Y-119488042D01*
X214912340Y-119493287D01*
G37*
%TD*%
%LPC*%
D12*
%TO.C,mouse-bite-2mm-slot14*%
X221050000Y-193950000D03*
X222550000Y-193950000D03*
X221050000Y-193200000D03*
X222550000Y-193200000D03*
X221050000Y-192450000D03*
X222550000Y-192450000D03*
%TD*%
%TO.C,mouse-bite-2mm-slot9*%
X229200000Y-201240000D03*
X229200000Y-202740000D03*
X229950000Y-201240000D03*
X229950000Y-202740000D03*
X230700000Y-201240000D03*
X230700000Y-202740000D03*
%TD*%
%TO.C,mouse-bite-2mm-slot13*%
X221050000Y-176650000D03*
X222550000Y-176650000D03*
X221050000Y-175900000D03*
X222550000Y-175900000D03*
X221050000Y-175150000D03*
X222550000Y-175150000D03*
%TD*%
%TO.C,mouse-bite-2mm-slot1*%
X180840000Y-117240000D03*
X180840000Y-118740000D03*
X181590000Y-117240000D03*
X181590000Y-118740000D03*
X182340000Y-117240000D03*
X182340000Y-118740000D03*
%TD*%
%TO.C,mouse-bite-2mm-slot3*%
X229200000Y-117250000D03*
X229200000Y-118750000D03*
X229950000Y-117250000D03*
X229950000Y-118750000D03*
X230700000Y-117250000D03*
X230700000Y-118750000D03*
%TD*%
%TO.C,mouse-bite-2mm-slot12*%
X221050000Y-159350000D03*
X222550000Y-159350000D03*
X221050000Y-158600000D03*
X222550000Y-158600000D03*
X221050000Y-157850000D03*
X222550000Y-157850000D03*
%TD*%
%TO.C,mouse-bite-2mm-slot6*%
X198140000Y-201250000D03*
X198140000Y-202750000D03*
X198890000Y-201250000D03*
X198890000Y-202750000D03*
X199640000Y-201250000D03*
X199640000Y-202750000D03*
%TD*%
D13*
%TO.C,J7*%
X251870000Y-157460000D03*
D14*
X251870000Y-160000000D03*
X251870000Y-162540000D03*
%TD*%
D13*
%TO.C,J5*%
X218000000Y-157460000D03*
D14*
X218000000Y-160000000D03*
X218000000Y-162540000D03*
%TD*%
D12*
%TO.C,mouse-bite-2mm-slot8*%
X246500000Y-117250000D03*
X246500000Y-118750000D03*
X247250000Y-117250000D03*
X247250000Y-118750000D03*
X248000000Y-117250000D03*
X248000000Y-118750000D03*
%TD*%
%TO.C,mouse-bite-2mm-slot4*%
X163540000Y-201255000D03*
X163540000Y-202755000D03*
X164290000Y-201255000D03*
X164290000Y-202755000D03*
X165040000Y-201255000D03*
X165040000Y-202755000D03*
%TD*%
%TO.C,mouse-bite-2mm-slot11*%
X221050000Y-142050000D03*
X222550000Y-142050000D03*
X221050000Y-141300000D03*
X222550000Y-141300000D03*
X221050000Y-140550000D03*
X222550000Y-140550000D03*
%TD*%
%TO.C,mouse-bite-2mm-slot10*%
X246500000Y-201240000D03*
X246500000Y-202740000D03*
X247250000Y-201240000D03*
X247250000Y-202740000D03*
X248000000Y-201240000D03*
X248000000Y-202740000D03*
%TD*%
%TO.C,mouse-bite-2mm-slot5*%
X180840000Y-201255000D03*
X180840000Y-202755000D03*
X181590000Y-201255000D03*
X181590000Y-202755000D03*
X182340000Y-201255000D03*
X182340000Y-202755000D03*
%TD*%
%TO.C,mouse-bite-2mm-slot3*%
X215440000Y-117240000D03*
X215440000Y-118740000D03*
X216190000Y-117240000D03*
X216190000Y-118740000D03*
X216940000Y-117240000D03*
X216940000Y-118740000D03*
%TD*%
D13*
%TO.C,J6*%
X225580000Y-157460000D03*
D14*
X225580000Y-160000000D03*
X225580000Y-162540000D03*
%TD*%
D12*
%TO.C,mouse-bite-2mm-slot3*%
X221050000Y-124750000D03*
X222550000Y-124750000D03*
X221050000Y-124000000D03*
X222550000Y-124000000D03*
X221050000Y-123250000D03*
X222550000Y-123250000D03*
%TD*%
%TO.C,mouse-bite-2mm-slot*%
X163540000Y-117240000D03*
X163540000Y-118740000D03*
X164290000Y-117240000D03*
X164290000Y-118740000D03*
X165040000Y-117240000D03*
X165040000Y-118740000D03*
%TD*%
%TO.C,mouse-bite-2mm-slot7*%
X215440000Y-201255000D03*
X215440000Y-202755000D03*
X216190000Y-201255000D03*
X216190000Y-202755000D03*
X216940000Y-201255000D03*
X216940000Y-202755000D03*
%TD*%
%TO.C,mouse-bite-2mm-slot2*%
X198140000Y-117240000D03*
X198140000Y-118740000D03*
X198890000Y-117240000D03*
X198890000Y-118740000D03*
X199640000Y-117240000D03*
X199640000Y-118740000D03*
%TD*%
D13*
%TO.C,J1*%
X162400000Y-157460000D03*
D14*
X162400000Y-160000000D03*
X162400000Y-162540000D03*
%TD*%
%LPD*%
M02*
