%TF.GenerationSoftware,KiCad,Pcbnew,8.0.5*%
%TF.CreationDate,2025-06-19T13:46:46-07:00*%
%TF.ProjectId,clock,636c6f63-6b2e-46b6-9963-61645f706362,rev?*%
%TF.SameCoordinates,Original*%
%TF.FileFunction,Soldermask,Top*%
%TF.FilePolarity,Negative*%
%FSLAX46Y46*%
G04 Gerber Fmt 4.6, Leading zero omitted, Abs format (unit mm)*
G04 Created by KiCad (PCBNEW 8.0.5) date 2025-06-19 13:46:46*
%MOMM*%
%LPD*%
G01*
G04 APERTURE LIST*
G04 Aperture macros list*
%AMFreePoly0*
4,1,32,0.000019,0.750046,0.000046,0.750019,0.000050,0.750000,0.000050,0.749994,0.166891,0.731196,0.325413,0.675727,0.467617,0.586374,0.586374,0.467617,0.675727,0.325413,0.731196,0.166891,0.750000,0.000000,0.731196,-0.166891,0.675727,-0.325413,0.586374,-0.467617,0.467617,-0.586374,0.325413,-0.675727,0.166891,-0.731196,0.000050,-0.749994,0.000050,-0.750000,0.000046,-0.750019,
0.000019,-0.750046,0.000000,-0.750050,-1.250000,-0.750050,-1.250019,-0.750046,-1.250046,-0.750019,-1.250050,-0.750000,-1.250050,0.750000,-1.250046,0.750019,-1.250019,0.750046,-1.250000,0.750050,0.000000,0.750050,0.000019,0.750046,0.000019,0.750046,$1*%
G04 Aperture macros list end*
%ADD10C,0.500000*%
%ADD11FreePoly0,270.000000*%
%ADD12FreePoly0,90.000000*%
%ADD13FreePoly0,0.000000*%
%ADD14FreePoly0,180.000000*%
%ADD15R,1.700000X1.700000*%
%ADD16O,1.700000X1.700000*%
G04 APERTURE END LIST*
D10*
%TO.C,mouse-bite-2mm-slot14*%
X221050000Y-193950000D03*
X222550000Y-193950000D03*
X221050000Y-193200000D03*
X222550000Y-193200000D03*
X221050000Y-192450000D03*
X222550000Y-192450000D03*
%TD*%
%TO.C,mouse-bite-2mm-slot9*%
X229200000Y-201240000D03*
X229200000Y-202740000D03*
X229950000Y-201240000D03*
X229950000Y-202740000D03*
X230700000Y-201240000D03*
X230700000Y-202740000D03*
%TD*%
D11*
%TO.C,D5*%
X204070000Y-136050000D03*
D12*
X206945000Y-150550000D03*
X209820000Y-150550000D03*
D11*
X206945000Y-136050000D03*
%TD*%
D10*
%TO.C,mouse-bite-2mm-slot13*%
X221050000Y-176650000D03*
X222550000Y-176650000D03*
X221050000Y-175900000D03*
X222550000Y-175900000D03*
X221050000Y-175150000D03*
X222550000Y-175150000D03*
%TD*%
%TO.C,mouse-bite-2mm-slot1*%
X180840000Y-117240000D03*
X180840000Y-118740000D03*
X181590000Y-117240000D03*
X181590000Y-118740000D03*
X182340000Y-117240000D03*
X182340000Y-118740000D03*
%TD*%
D12*
%TO.C,D2*%
X176320000Y-184050000D03*
D11*
X173445000Y-169550000D03*
X170570000Y-169550000D03*
D12*
X173445000Y-184050000D03*
%TD*%
D10*
%TO.C,mouse-bite-2mm-slot3*%
X229200000Y-117250000D03*
X229200000Y-118750000D03*
X229950000Y-117250000D03*
X229950000Y-118750000D03*
X230700000Y-117250000D03*
X230700000Y-118750000D03*
%TD*%
%TO.C,mouse-bite-2mm-slot12*%
X221050000Y-159350000D03*
X222550000Y-159350000D03*
X221050000Y-158600000D03*
X222550000Y-158600000D03*
X221050000Y-157850000D03*
X222550000Y-157850000D03*
%TD*%
%TO.C,mouse-bite-2mm-slot6*%
X198140000Y-201250000D03*
X198140000Y-202750000D03*
X198890000Y-201250000D03*
X198890000Y-202750000D03*
X199640000Y-201250000D03*
X199640000Y-202750000D03*
%TD*%
D13*
%TO.C,D4*%
X182950000Y-129280000D03*
D14*
X197450000Y-126405000D03*
X197450000Y-123530000D03*
D13*
X182950000Y-126405000D03*
%TD*%
%TO.C,D6*%
X182950000Y-162780000D03*
D14*
X197450000Y-159905000D03*
X197450000Y-157030000D03*
D13*
X182950000Y-159905000D03*
%TD*%
D15*
%TO.C,J7*%
X251870000Y-157460000D03*
D16*
X251870000Y-160000000D03*
X251870000Y-162540000D03*
%TD*%
D15*
%TO.C,J5*%
X218000000Y-157460000D03*
D16*
X218000000Y-160000000D03*
X218000000Y-162540000D03*
%TD*%
D10*
%TO.C,mouse-bite-2mm-slot8*%
X246500000Y-117250000D03*
X246500000Y-118750000D03*
X247250000Y-117250000D03*
X247250000Y-118750000D03*
X248000000Y-117250000D03*
X248000000Y-118750000D03*
%TD*%
%TO.C,mouse-bite-2mm-slot4*%
X163540000Y-201255000D03*
X163540000Y-202755000D03*
X164290000Y-201255000D03*
X164290000Y-202755000D03*
X165040000Y-201255000D03*
X165040000Y-202755000D03*
%TD*%
%TO.C,mouse-bite-2mm-slot11*%
X221050000Y-142050000D03*
X222550000Y-142050000D03*
X221050000Y-141300000D03*
X222550000Y-141300000D03*
X221050000Y-140550000D03*
X222550000Y-140550000D03*
%TD*%
%TO.C,mouse-bite-2mm-slot10*%
X246500000Y-201240000D03*
X246500000Y-202740000D03*
X247250000Y-201240000D03*
X247250000Y-202740000D03*
X248000000Y-201240000D03*
X248000000Y-202740000D03*
%TD*%
%TO.C,mouse-bite-2mm-slot5*%
X180840000Y-201255000D03*
X180840000Y-202755000D03*
X181590000Y-201255000D03*
X181590000Y-202755000D03*
X182340000Y-201255000D03*
X182340000Y-202755000D03*
%TD*%
%TO.C,mouse-bite-2mm-slot3*%
X215440000Y-117240000D03*
X215440000Y-118740000D03*
X216190000Y-117240000D03*
X216190000Y-118740000D03*
X216940000Y-117240000D03*
X216940000Y-118740000D03*
%TD*%
D15*
%TO.C,J6*%
X225580000Y-157460000D03*
D16*
X225580000Y-160000000D03*
X225580000Y-162540000D03*
%TD*%
D10*
%TO.C,mouse-bite-2mm-slot3*%
X221050000Y-124750000D03*
X222550000Y-124750000D03*
X221050000Y-124000000D03*
X222550000Y-124000000D03*
X221050000Y-123250000D03*
X222550000Y-123250000D03*
%TD*%
D11*
%TO.C,D7*%
X204070000Y-169550000D03*
D12*
X206945000Y-184050000D03*
X209820000Y-184050000D03*
D11*
X206945000Y-169550000D03*
%TD*%
D13*
%TO.C,D1*%
X182950000Y-196280000D03*
D14*
X197450000Y-193405000D03*
X197450000Y-190530000D03*
D13*
X182950000Y-193405000D03*
%TD*%
D12*
%TO.C,D3*%
X176320000Y-150550000D03*
D11*
X173445000Y-136050000D03*
X170570000Y-136050000D03*
D12*
X173445000Y-150550000D03*
%TD*%
D10*
%TO.C,mouse-bite-2mm-slot*%
X163540000Y-117240000D03*
X163540000Y-118740000D03*
X164290000Y-117240000D03*
X164290000Y-118740000D03*
X165040000Y-117240000D03*
X165040000Y-118740000D03*
%TD*%
%TO.C,mouse-bite-2mm-slot7*%
X215440000Y-201255000D03*
X215440000Y-202755000D03*
X216190000Y-201255000D03*
X216190000Y-202755000D03*
X216940000Y-201255000D03*
X216940000Y-202755000D03*
%TD*%
%TO.C,mouse-bite-2mm-slot2*%
X198140000Y-117240000D03*
X198140000Y-118740000D03*
X198890000Y-117240000D03*
X198890000Y-118740000D03*
X199640000Y-117240000D03*
X199640000Y-118740000D03*
%TD*%
D12*
%TO.C,D9*%
X242205000Y-151550000D03*
D11*
X239330000Y-137050000D03*
X236455000Y-137050000D03*
D12*
X239330000Y-151550000D03*
%TD*%
D15*
%TO.C,J1*%
X162400000Y-157460000D03*
D16*
X162400000Y-160000000D03*
X162400000Y-162540000D03*
%TD*%
D12*
%TO.C,D8*%
X242215000Y-185050000D03*
D11*
X239340000Y-170550000D03*
X236465000Y-170550000D03*
D12*
X239340000Y-185050000D03*
%TD*%
M02*
