%TF.GenerationSoftware,KiCad,Pcbnew,8.0.5*%
%TF.CreationDate,2025-06-19T13:46:46-07:00*%
%TF.ProjectId,clock,636c6f63-6b2e-46b6-9963-61645f706362,rev?*%
%TF.SameCoordinates,Original*%
%TF.FileFunction,Copper,L3,Inr*%
%TF.FilePolarity,Positive*%
%FSLAX46Y46*%
G04 Gerber Fmt 4.6, Leading zero omitted, Abs format (unit mm)*
G04 Created by KiCad (PCBNEW 8.0.5) date 2025-06-19 13:46:46*
%MOMM*%
%LPD*%
G01*
G04 APERTURE LIST*
%TA.AperFunction,ComponentPad*%
%ADD10R,1.700000X1.700000*%
%TD*%
%TA.AperFunction,ComponentPad*%
%ADD11O,1.700000X1.700000*%
%TD*%
%TA.AperFunction,ViaPad*%
%ADD12C,0.800000*%
%TD*%
G04 APERTURE END LIST*
D10*
%TO.N,GND*%
%TO.C,J7*%
X251870000Y-157460000D03*
D11*
%TO.N,D_Out2*%
X251870000Y-160000000D03*
%TO.N,5V2*%
X251870000Y-162540000D03*
%TD*%
D10*
%TO.N,GND*%
%TO.C,J5*%
X218000000Y-157460000D03*
D11*
%TO.N,D_Out1*%
X218000000Y-160000000D03*
%TO.N,5V*%
X218000000Y-162540000D03*
%TD*%
D10*
%TO.N,GND*%
%TO.C,J6*%
X225580000Y-157460000D03*
D11*
%TO.N,D_In2*%
X225580000Y-160000000D03*
%TO.N,5V2*%
X225580000Y-162540000D03*
%TD*%
D10*
%TO.N,GND*%
%TO.C,J1*%
X162400000Y-157460000D03*
D11*
%TO.N,D_In1*%
X162400000Y-160000000D03*
%TO.N,5V*%
X162400000Y-162540000D03*
%TD*%
D12*
%TO.N,GND*%
X208800000Y-186450000D03*
X199950000Y-124825000D03*
X232925000Y-139300000D03*
X199850000Y-191400000D03*
X171875000Y-133575000D03*
X208650000Y-152775000D03*
X199575000Y-158250000D03*
X233050000Y-172075000D03*
X171625000Y-167400000D03*
%TO.N,5V*%
X177650000Y-153025000D03*
X203000000Y-167050000D03*
X180475000Y-130250000D03*
X180425000Y-195300000D03*
X180400000Y-163825000D03*
X177350000Y-186525000D03*
X202700000Y-133525000D03*
%TO.N,Net-(D2-DOUT)*%
X173450000Y-155850000D03*
X173450000Y-163225000D03*
%TO.N,Net-(D3-DOUT)*%
X174875000Y-130725000D03*
X178125000Y-127450000D03*
%TO.N,D_In1*%
X178325000Y-193450000D03*
X170025000Y-193400000D03*
%TO.N,D_Out1*%
X211625000Y-191650000D03*
X208225000Y-189650000D03*
%TO.N,5V2*%
X245675000Y-149300000D03*
X245825000Y-182625000D03*
%TO.N,D_In2*%
X239350000Y-186900000D03*
X239350000Y-189750000D03*
%TO.N,D_Out2*%
X239325000Y-135175000D03*
X240625000Y-133600000D03*
%TO.N,Net-(D1-DOUT)*%
X203325000Y-191525000D03*
X173425000Y-187400000D03*
%TO.N,Net-(D4-DOUT)*%
X204575000Y-132125000D03*
X201850000Y-129425000D03*
%TO.N,Net-(D5-DOUT)*%
X179100000Y-155975000D03*
X202875000Y-154000000D03*
%TO.N,Net-(D6-DOUT)*%
X206950000Y-166275000D03*
X202575000Y-161800000D03*
%TO.N,Net-(D8-DOUT)*%
X239350000Y-153400000D03*
X239350000Y-155375000D03*
X239350000Y-168600000D03*
X239350000Y-166875000D03*
%TD*%
%TA.AperFunction,Conductor*%
%TO.N,5V*%
G36*
X217412293Y-118906258D02*
G01*
X217415330Y-118908725D01*
X217508791Y-118987149D01*
X217690709Y-119092179D01*
X217888101Y-119164024D01*
X218094970Y-119200500D01*
X218160118Y-119200500D01*
X219260118Y-119200500D01*
X219295125Y-119200500D01*
X219304853Y-119200881D01*
X219493563Y-119215733D01*
X219512772Y-119218776D01*
X219692085Y-119261825D01*
X219710577Y-119267833D01*
X219846833Y-119324272D01*
X219880946Y-119338403D01*
X219898283Y-119347237D01*
X220055504Y-119443582D01*
X220071246Y-119455019D01*
X220211464Y-119574777D01*
X220225222Y-119588535D01*
X220344980Y-119728753D01*
X220356417Y-119744495D01*
X220452762Y-119901716D01*
X220461596Y-119919053D01*
X220532163Y-120089415D01*
X220538176Y-120107921D01*
X220581222Y-120287222D01*
X220584266Y-120306440D01*
X220599118Y-120495146D01*
X220599500Y-120504875D01*
X220599500Y-122105032D01*
X220635975Y-122311898D01*
X220707820Y-122509288D01*
X220707823Y-122509295D01*
X220812849Y-122691205D01*
X220812853Y-122691212D01*
X220882344Y-122774027D01*
X220910357Y-122838035D01*
X220899318Y-122907027D01*
X220852731Y-122959099D01*
X220849358Y-122961118D01*
X220834793Y-122969527D01*
X220834785Y-122969533D01*
X220769533Y-123034785D01*
X220769526Y-123034794D01*
X220723388Y-123114706D01*
X220723387Y-123114709D01*
X220699500Y-123203856D01*
X220699500Y-123296143D01*
X220723387Y-123385290D01*
X220723388Y-123385293D01*
X220769526Y-123465205D01*
X220769533Y-123465214D01*
X220840535Y-123536216D01*
X220838367Y-123538383D01*
X220870987Y-123583070D01*
X220875131Y-123652817D01*
X220840909Y-123713732D01*
X220838497Y-123715821D01*
X220769533Y-123784785D01*
X220769526Y-123784794D01*
X220723388Y-123864706D01*
X220723387Y-123864709D01*
X220699500Y-123953856D01*
X220699500Y-124046143D01*
X220723387Y-124135290D01*
X220723388Y-124135293D01*
X220769526Y-124215205D01*
X220769533Y-124215214D01*
X220840535Y-124286216D01*
X220838367Y-124288383D01*
X220870987Y-124333070D01*
X220875131Y-124402817D01*
X220840909Y-124463732D01*
X220838497Y-124465821D01*
X220769533Y-124534785D01*
X220769526Y-124534794D01*
X220723388Y-124614706D01*
X220723387Y-124614709D01*
X220723386Y-124614711D01*
X220723386Y-124614712D01*
X220699500Y-124703856D01*
X220699500Y-124796144D01*
X220700399Y-124799500D01*
X220723387Y-124885290D01*
X220723388Y-124885293D01*
X220769526Y-124965205D01*
X220769529Y-124965209D01*
X220769531Y-124965212D01*
X220834788Y-125030469D01*
X220849355Y-125038879D01*
X220897570Y-125089445D01*
X220910794Y-125158052D01*
X220884826Y-125222917D01*
X220882345Y-125225972D01*
X220812848Y-125308794D01*
X220707823Y-125490704D01*
X220707820Y-125490711D01*
X220635975Y-125688101D01*
X220599500Y-125894967D01*
X220599500Y-139405032D01*
X220635975Y-139611898D01*
X220707820Y-139809288D01*
X220707823Y-139809295D01*
X220812849Y-139991205D01*
X220812853Y-139991212D01*
X220882344Y-140074027D01*
X220910357Y-140138035D01*
X220899318Y-140207027D01*
X220852731Y-140259099D01*
X220849358Y-140261118D01*
X220834793Y-140269527D01*
X220834785Y-140269533D01*
X220769533Y-140334785D01*
X220769526Y-140334794D01*
X220723388Y-140414706D01*
X220723387Y-140414709D01*
X220699500Y-140503856D01*
X220699500Y-140596143D01*
X220723387Y-140685290D01*
X220723388Y-140685293D01*
X220769526Y-140765205D01*
X220769533Y-140765214D01*
X220840535Y-140836216D01*
X220838367Y-140838383D01*
X220870987Y-140883070D01*
X220875131Y-140952817D01*
X220840909Y-141013732D01*
X220838497Y-141015821D01*
X220769533Y-141084785D01*
X220769526Y-141084794D01*
X220723388Y-141164706D01*
X220723387Y-141164709D01*
X220699500Y-141253856D01*
X220699500Y-141346143D01*
X220723387Y-141435290D01*
X220723388Y-141435293D01*
X220769526Y-141515205D01*
X220769533Y-141515214D01*
X220840535Y-141586216D01*
X220838367Y-141588383D01*
X220870987Y-141633070D01*
X220875131Y-141702817D01*
X220840909Y-141763732D01*
X220838497Y-141765821D01*
X220769533Y-141834785D01*
X220769526Y-141834794D01*
X220723388Y-141914706D01*
X220723387Y-141914709D01*
X220723386Y-141914711D01*
X220723386Y-141914712D01*
X220699500Y-142003856D01*
X220699500Y-142096144D01*
X220700399Y-142099500D01*
X220723387Y-142185290D01*
X220723388Y-142185293D01*
X220769526Y-142265205D01*
X220769529Y-142265209D01*
X220769531Y-142265212D01*
X220834788Y-142330469D01*
X220849355Y-142338879D01*
X220897570Y-142389445D01*
X220910794Y-142458052D01*
X220884826Y-142522917D01*
X220882345Y-142525972D01*
X220812848Y-142608794D01*
X220707823Y-142790704D01*
X220707820Y-142790711D01*
X220635975Y-142988101D01*
X220599500Y-143194967D01*
X220599500Y-156705032D01*
X220635975Y-156911898D01*
X220707820Y-157109288D01*
X220707823Y-157109295D01*
X220812849Y-157291205D01*
X220812853Y-157291212D01*
X220882344Y-157374027D01*
X220910357Y-157438035D01*
X220899318Y-157507027D01*
X220852731Y-157559099D01*
X220849358Y-157561118D01*
X220834793Y-157569527D01*
X220834785Y-157569533D01*
X220769533Y-157634785D01*
X220769526Y-157634794D01*
X220723388Y-157714706D01*
X220723387Y-157714709D01*
X220699500Y-157803856D01*
X220699500Y-157896143D01*
X220723387Y-157985290D01*
X220723388Y-157985293D01*
X220769526Y-158065205D01*
X220769533Y-158065214D01*
X220840535Y-158136216D01*
X220838367Y-158138383D01*
X220870987Y-158183070D01*
X220875131Y-158252817D01*
X220840909Y-158313732D01*
X220838497Y-158315821D01*
X220769533Y-158384785D01*
X220769526Y-158384794D01*
X220723388Y-158464706D01*
X220723387Y-158464709D01*
X220699500Y-158553856D01*
X220699500Y-158646143D01*
X220723387Y-158735290D01*
X220723388Y-158735293D01*
X220769526Y-158815205D01*
X220769533Y-158815214D01*
X220840535Y-158886216D01*
X220838367Y-158888383D01*
X220870987Y-158933070D01*
X220875131Y-159002817D01*
X220840909Y-159063732D01*
X220838497Y-159065821D01*
X220769533Y-159134785D01*
X220769526Y-159134794D01*
X220723388Y-159214706D01*
X220723387Y-159214709D01*
X220723386Y-159214711D01*
X220723386Y-159214712D01*
X220699500Y-159303856D01*
X220699500Y-159396144D01*
X220700399Y-159399500D01*
X220723387Y-159485290D01*
X220723388Y-159485293D01*
X220769526Y-159565205D01*
X220769529Y-159565209D01*
X220769531Y-159565212D01*
X220834788Y-159630469D01*
X220849355Y-159638879D01*
X220897570Y-159689445D01*
X220910794Y-159758052D01*
X220884826Y-159822917D01*
X220882345Y-159825972D01*
X220812848Y-159908794D01*
X220707823Y-160090704D01*
X220707820Y-160090711D01*
X220635975Y-160288101D01*
X220599500Y-160494967D01*
X220599500Y-174005032D01*
X220635975Y-174211898D01*
X220707820Y-174409288D01*
X220707823Y-174409295D01*
X220812849Y-174591205D01*
X220812853Y-174591212D01*
X220882344Y-174674027D01*
X220910357Y-174738035D01*
X220899318Y-174807027D01*
X220852731Y-174859099D01*
X220849358Y-174861118D01*
X220834793Y-174869527D01*
X220834785Y-174869533D01*
X220769533Y-174934785D01*
X220769526Y-174934794D01*
X220723388Y-175014706D01*
X220723387Y-175014709D01*
X220699500Y-175103856D01*
X220699500Y-175196143D01*
X220723387Y-175285290D01*
X220723388Y-175285293D01*
X220769526Y-175365205D01*
X220769533Y-175365214D01*
X220840535Y-175436216D01*
X220838367Y-175438383D01*
X220870987Y-175483070D01*
X220875131Y-175552817D01*
X220840909Y-175613732D01*
X220838497Y-175615821D01*
X220769533Y-175684785D01*
X220769526Y-175684794D01*
X220723388Y-175764706D01*
X220723387Y-175764709D01*
X220699500Y-175853856D01*
X220699500Y-175946143D01*
X220723387Y-176035290D01*
X220723388Y-176035293D01*
X220769526Y-176115205D01*
X220769533Y-176115214D01*
X220840535Y-176186216D01*
X220838367Y-176188383D01*
X220870987Y-176233070D01*
X220875131Y-176302817D01*
X220840909Y-176363732D01*
X220838497Y-176365821D01*
X220769533Y-176434785D01*
X220769526Y-176434794D01*
X220723388Y-176514706D01*
X220723387Y-176514709D01*
X220723386Y-176514711D01*
X220723386Y-176514712D01*
X220699500Y-176603856D01*
X220699500Y-176696144D01*
X220700399Y-176699500D01*
X220723387Y-176785290D01*
X220723388Y-176785293D01*
X220769526Y-176865205D01*
X220769529Y-176865209D01*
X220769531Y-176865212D01*
X220834788Y-176930469D01*
X220849355Y-176938879D01*
X220897570Y-176989445D01*
X220910794Y-177058052D01*
X220884826Y-177122917D01*
X220882345Y-177125972D01*
X220812848Y-177208794D01*
X220707823Y-177390704D01*
X220707820Y-177390711D01*
X220635975Y-177588101D01*
X220599500Y-177794967D01*
X220599500Y-191305032D01*
X220635975Y-191511898D01*
X220686241Y-191650000D01*
X220707821Y-191709291D01*
X220782280Y-191838259D01*
X220812849Y-191891205D01*
X220812853Y-191891212D01*
X220882344Y-191974027D01*
X220910357Y-192038035D01*
X220899318Y-192107027D01*
X220852731Y-192159099D01*
X220849358Y-192161118D01*
X220834793Y-192169527D01*
X220834785Y-192169533D01*
X220769533Y-192234785D01*
X220769526Y-192234794D01*
X220723388Y-192314706D01*
X220723387Y-192314709D01*
X220723386Y-192314711D01*
X220723386Y-192314712D01*
X220699500Y-192403856D01*
X220699500Y-192496144D01*
X220710944Y-192538855D01*
X220723387Y-192585290D01*
X220723388Y-192585293D01*
X220769526Y-192665205D01*
X220769533Y-192665214D01*
X220840535Y-192736216D01*
X220838367Y-192738383D01*
X220870987Y-192783070D01*
X220875131Y-192852817D01*
X220840909Y-192913732D01*
X220838497Y-192915821D01*
X220769533Y-192984785D01*
X220769526Y-192984794D01*
X220723388Y-193064706D01*
X220723387Y-193064709D01*
X220699500Y-193153856D01*
X220699500Y-193246143D01*
X220723387Y-193335290D01*
X220723388Y-193335293D01*
X220769526Y-193415205D01*
X220769533Y-193415214D01*
X220840535Y-193486216D01*
X220838367Y-193488383D01*
X220870987Y-193533070D01*
X220875131Y-193602817D01*
X220840909Y-193663732D01*
X220838497Y-193665821D01*
X220769533Y-193734785D01*
X220769526Y-193734794D01*
X220723388Y-193814706D01*
X220723387Y-193814709D01*
X220723386Y-193814711D01*
X220723386Y-193814712D01*
X220699500Y-193903856D01*
X220699500Y-193996144D01*
X220720063Y-194072888D01*
X220723387Y-194085290D01*
X220723388Y-194085293D01*
X220769526Y-194165205D01*
X220769529Y-194165209D01*
X220769531Y-194165212D01*
X220834788Y-194230469D01*
X220849355Y-194238879D01*
X220897570Y-194289445D01*
X220910794Y-194358052D01*
X220884826Y-194422917D01*
X220882345Y-194425972D01*
X220812848Y-194508794D01*
X220707823Y-194690704D01*
X220707820Y-194690711D01*
X220635975Y-194888101D01*
X220599500Y-195094967D01*
X220599500Y-199495124D01*
X220599118Y-199504853D01*
X220584266Y-199693559D01*
X220581222Y-199712777D01*
X220538176Y-199892078D01*
X220532163Y-199910584D01*
X220461596Y-200080946D01*
X220452762Y-200098283D01*
X220356417Y-200255504D01*
X220344980Y-200271246D01*
X220225222Y-200411464D01*
X220211464Y-200425222D01*
X220071246Y-200544980D01*
X220055504Y-200556417D01*
X219898283Y-200652762D01*
X219880946Y-200661596D01*
X219710584Y-200732163D01*
X219692078Y-200738176D01*
X219512777Y-200781222D01*
X219493559Y-200784266D01*
X219304854Y-200799118D01*
X219295125Y-200799500D01*
X218094967Y-200799500D01*
X217888101Y-200835975D01*
X217690711Y-200907820D01*
X217690704Y-200907823D01*
X217508794Y-201012849D01*
X217508788Y-201012852D01*
X217417290Y-201089629D01*
X217353282Y-201117641D01*
X217284290Y-201106602D01*
X217232219Y-201060015D01*
X217230198Y-201056639D01*
X217220472Y-201039794D01*
X217220469Y-201039788D01*
X217155212Y-200974531D01*
X217155209Y-200974529D01*
X217155205Y-200974526D01*
X217075293Y-200928388D01*
X217075290Y-200928387D01*
X217075289Y-200928386D01*
X217075288Y-200928386D01*
X216986144Y-200904500D01*
X216893856Y-200904500D01*
X216804712Y-200928386D01*
X216804711Y-200928386D01*
X216804709Y-200928387D01*
X216804706Y-200928388D01*
X216724794Y-200974526D01*
X216724785Y-200974533D01*
X216653784Y-201045535D01*
X216651616Y-201043367D01*
X216606930Y-201075987D01*
X216537183Y-201080131D01*
X216476268Y-201045909D01*
X216474178Y-201043497D01*
X216405214Y-200974533D01*
X216405212Y-200974531D01*
X216405209Y-200974529D01*
X216405205Y-200974526D01*
X216325293Y-200928388D01*
X216325290Y-200928387D01*
X216325289Y-200928386D01*
X216325288Y-200928386D01*
X216236144Y-200904500D01*
X216143856Y-200904500D01*
X216054712Y-200928386D01*
X216054711Y-200928386D01*
X216054709Y-200928387D01*
X216054706Y-200928388D01*
X215974794Y-200974526D01*
X215974785Y-200974533D01*
X215903784Y-201045535D01*
X215901616Y-201043367D01*
X215856930Y-201075987D01*
X215787183Y-201080131D01*
X215726268Y-201045909D01*
X215724178Y-201043497D01*
X215655214Y-200974533D01*
X215655212Y-200974531D01*
X215655209Y-200974529D01*
X215655205Y-200974526D01*
X215575293Y-200928388D01*
X215575290Y-200928387D01*
X215575289Y-200928386D01*
X215575288Y-200928386D01*
X215486144Y-200904500D01*
X215393856Y-200904500D01*
X215304712Y-200928386D01*
X215304711Y-200928386D01*
X215304709Y-200928387D01*
X215304706Y-200928388D01*
X215224794Y-200974526D01*
X215224785Y-200974533D01*
X215159533Y-201039785D01*
X215159526Y-201039794D01*
X215156324Y-201045341D01*
X215105754Y-201093553D01*
X215037146Y-201106772D01*
X214972283Y-201080800D01*
X214969235Y-201078323D01*
X214891212Y-201012853D01*
X214891210Y-201012851D01*
X214891209Y-201012851D01*
X214800250Y-200960336D01*
X214709295Y-200907823D01*
X214709292Y-200907822D01*
X214709291Y-200907821D01*
X214684364Y-200898748D01*
X214511898Y-200835975D01*
X214305032Y-200799500D01*
X214305030Y-200799500D01*
X214200057Y-200799500D01*
X200951463Y-200794518D01*
X200951268Y-200794500D01*
X200939882Y-200794500D01*
X200900093Y-200794500D01*
X200900047Y-200794499D01*
X200848050Y-200794480D01*
X200847849Y-200794500D01*
X200794967Y-200794500D01*
X200588101Y-200830975D01*
X200390711Y-200902820D01*
X200390704Y-200902823D01*
X200208794Y-201007849D01*
X200208788Y-201007852D01*
X200117290Y-201084629D01*
X200053282Y-201112641D01*
X199984290Y-201101602D01*
X199932219Y-201055015D01*
X199930198Y-201051639D01*
X199923359Y-201039794D01*
X199920469Y-201034788D01*
X199855212Y-200969531D01*
X199855209Y-200969529D01*
X199855205Y-200969526D01*
X199775293Y-200923388D01*
X199775290Y-200923387D01*
X199775289Y-200923386D01*
X199775288Y-200923386D01*
X199686144Y-200899500D01*
X199593856Y-200899500D01*
X199504712Y-200923386D01*
X199504711Y-200923386D01*
X199504709Y-200923387D01*
X199504706Y-200923388D01*
X199424794Y-200969526D01*
X199424785Y-200969533D01*
X199353784Y-201040535D01*
X199351616Y-201038367D01*
X199306930Y-201070987D01*
X199237183Y-201075131D01*
X199176268Y-201040909D01*
X199174178Y-201038497D01*
X199105214Y-200969533D01*
X199105212Y-200969531D01*
X199105209Y-200969529D01*
X199105205Y-200969526D01*
X199025293Y-200923388D01*
X199025290Y-200923387D01*
X199025289Y-200923386D01*
X199025288Y-200923386D01*
X198936144Y-200899500D01*
X198843856Y-200899500D01*
X198754712Y-200923386D01*
X198754711Y-200923386D01*
X198754709Y-200923387D01*
X198754706Y-200923388D01*
X198674794Y-200969526D01*
X198674785Y-200969533D01*
X198603784Y-201040535D01*
X198601616Y-201038367D01*
X198556930Y-201070987D01*
X198487183Y-201075131D01*
X198426268Y-201040909D01*
X198424178Y-201038497D01*
X198355214Y-200969533D01*
X198355212Y-200969531D01*
X198355209Y-200969529D01*
X198355205Y-200969526D01*
X198275293Y-200923388D01*
X198275290Y-200923387D01*
X198275289Y-200923386D01*
X198275288Y-200923386D01*
X198186144Y-200899500D01*
X198093856Y-200899500D01*
X198004712Y-200923386D01*
X198004711Y-200923386D01*
X198004709Y-200923387D01*
X198004706Y-200923388D01*
X197924794Y-200969526D01*
X197924785Y-200969533D01*
X197859533Y-201034785D01*
X197859528Y-201034793D01*
X197856324Y-201040341D01*
X197805754Y-201088553D01*
X197737146Y-201101772D01*
X197672283Y-201075800D01*
X197669235Y-201073323D01*
X197591212Y-201007853D01*
X197591210Y-201007851D01*
X197591209Y-201007851D01*
X197453571Y-200928386D01*
X197409295Y-200902823D01*
X197409292Y-200902822D01*
X197409291Y-200902821D01*
X197384364Y-200893748D01*
X197211898Y-200830975D01*
X197005032Y-200794500D01*
X197005030Y-200794500D01*
X196952151Y-200794500D01*
X196951949Y-200794480D01*
X196899952Y-200794499D01*
X196899907Y-200794500D01*
X196849022Y-200794500D01*
X196848821Y-200794518D01*
X183599943Y-200799500D01*
X183494967Y-200799500D01*
X183288101Y-200835975D01*
X183090711Y-200907820D01*
X183090704Y-200907823D01*
X182908794Y-201012849D01*
X182908788Y-201012852D01*
X182817290Y-201089629D01*
X182753282Y-201117641D01*
X182684290Y-201106602D01*
X182632219Y-201060015D01*
X182630198Y-201056639D01*
X182620472Y-201039794D01*
X182620469Y-201039788D01*
X182555212Y-200974531D01*
X182555209Y-200974529D01*
X182555205Y-200974526D01*
X182475293Y-200928388D01*
X182475290Y-200928387D01*
X182475289Y-200928386D01*
X182475288Y-200928386D01*
X182386144Y-200904500D01*
X182293856Y-200904500D01*
X182204712Y-200928386D01*
X182204711Y-200928386D01*
X182204709Y-200928387D01*
X182204706Y-200928388D01*
X182124794Y-200974526D01*
X182124785Y-200974533D01*
X182053784Y-201045535D01*
X182051616Y-201043367D01*
X182006930Y-201075987D01*
X181937183Y-201080131D01*
X181876268Y-201045909D01*
X181874178Y-201043497D01*
X181805214Y-200974533D01*
X181805212Y-200974531D01*
X181805209Y-200974529D01*
X181805205Y-200974526D01*
X181725293Y-200928388D01*
X181725290Y-200928387D01*
X181725289Y-200928386D01*
X181725288Y-200928386D01*
X181636144Y-200904500D01*
X181543856Y-200904500D01*
X181454712Y-200928386D01*
X181454711Y-200928386D01*
X181454709Y-200928387D01*
X181454706Y-200928388D01*
X181374794Y-200974526D01*
X181374785Y-200974533D01*
X181303784Y-201045535D01*
X181301616Y-201043367D01*
X181256930Y-201075987D01*
X181187183Y-201080131D01*
X181126268Y-201045909D01*
X181124178Y-201043497D01*
X181055214Y-200974533D01*
X181055212Y-200974531D01*
X181055209Y-200974529D01*
X181055205Y-200974526D01*
X180975293Y-200928388D01*
X180975290Y-200928387D01*
X180975289Y-200928386D01*
X180975288Y-200928386D01*
X180886144Y-200904500D01*
X180793856Y-200904500D01*
X180704712Y-200928386D01*
X180704711Y-200928386D01*
X180704709Y-200928387D01*
X180704706Y-200928388D01*
X180624794Y-200974526D01*
X180624785Y-200974533D01*
X180559533Y-201039785D01*
X180559526Y-201039794D01*
X180556324Y-201045341D01*
X180505754Y-201093553D01*
X180437146Y-201106772D01*
X180372283Y-201080800D01*
X180369235Y-201078323D01*
X180291212Y-201012853D01*
X180291210Y-201012851D01*
X180291209Y-201012851D01*
X180200250Y-200960336D01*
X180109295Y-200907823D01*
X180109292Y-200907822D01*
X180109291Y-200907821D01*
X180084364Y-200898748D01*
X179911898Y-200835975D01*
X179705032Y-200799500D01*
X179705030Y-200799500D01*
X179639882Y-200799500D01*
X166339882Y-200799500D01*
X166300000Y-200799500D01*
X166194970Y-200799500D01*
X166194967Y-200799500D01*
X165988101Y-200835975D01*
X165790711Y-200907820D01*
X165790704Y-200907823D01*
X165608794Y-201012849D01*
X165608788Y-201012852D01*
X165517290Y-201089629D01*
X165453282Y-201117641D01*
X165384290Y-201106602D01*
X165332219Y-201060015D01*
X165330198Y-201056639D01*
X165320472Y-201039794D01*
X165320469Y-201039788D01*
X165255212Y-200974531D01*
X165255209Y-200974529D01*
X165255205Y-200974526D01*
X165175293Y-200928388D01*
X165175290Y-200928387D01*
X165175289Y-200928386D01*
X165175288Y-200928386D01*
X165086144Y-200904500D01*
X164993856Y-200904500D01*
X164904712Y-200928386D01*
X164904711Y-200928386D01*
X164904709Y-200928387D01*
X164904706Y-200928388D01*
X164824794Y-200974526D01*
X164824785Y-200974533D01*
X164753784Y-201045535D01*
X164751616Y-201043367D01*
X164706930Y-201075987D01*
X164637183Y-201080131D01*
X164576268Y-201045909D01*
X164574178Y-201043497D01*
X164505214Y-200974533D01*
X164505212Y-200974531D01*
X164505209Y-200974529D01*
X164505205Y-200974526D01*
X164425293Y-200928388D01*
X164425290Y-200928387D01*
X164425289Y-200928386D01*
X164425288Y-200928386D01*
X164336144Y-200904500D01*
X164243856Y-200904500D01*
X164154712Y-200928386D01*
X164154711Y-200928386D01*
X164154709Y-200928387D01*
X164154706Y-200928388D01*
X164074794Y-200974526D01*
X164074785Y-200974533D01*
X164003784Y-201045535D01*
X164001616Y-201043367D01*
X163956930Y-201075987D01*
X163887183Y-201080131D01*
X163826268Y-201045909D01*
X163824178Y-201043497D01*
X163755214Y-200974533D01*
X163755212Y-200974531D01*
X163755209Y-200974529D01*
X163755205Y-200974526D01*
X163675293Y-200928388D01*
X163675290Y-200928387D01*
X163675289Y-200928386D01*
X163675288Y-200928386D01*
X163586144Y-200904500D01*
X163493856Y-200904500D01*
X163404712Y-200928386D01*
X163404711Y-200928386D01*
X163404709Y-200928387D01*
X163404706Y-200928388D01*
X163324794Y-200974526D01*
X163324785Y-200974533D01*
X163259533Y-201039785D01*
X163259526Y-201039794D01*
X163256324Y-201045341D01*
X163205754Y-201093553D01*
X163137146Y-201106772D01*
X163072283Y-201080800D01*
X163069235Y-201078323D01*
X162991212Y-201012853D01*
X162991210Y-201012851D01*
X162991209Y-201012851D01*
X162900250Y-200960336D01*
X162809295Y-200907823D01*
X162809292Y-200907822D01*
X162809291Y-200907821D01*
X162784364Y-200898748D01*
X162611898Y-200835975D01*
X162405032Y-200799500D01*
X162405030Y-200799500D01*
X162339882Y-200799500D01*
X161104875Y-200799500D01*
X161095146Y-200799118D01*
X160906440Y-200784266D01*
X160887222Y-200781222D01*
X160707921Y-200738176D01*
X160689415Y-200732163D01*
X160519053Y-200661596D01*
X160501716Y-200652762D01*
X160344495Y-200556417D01*
X160328753Y-200544980D01*
X160188535Y-200425222D01*
X160174777Y-200411464D01*
X160055019Y-200271246D01*
X160043582Y-200255504D01*
X159947237Y-200098283D01*
X159938403Y-200080946D01*
X159924272Y-200046833D01*
X159867833Y-199910577D01*
X159861825Y-199892085D01*
X159818776Y-199712772D01*
X159815733Y-199693559D01*
X159800882Y-199504853D01*
X159800500Y-199495124D01*
X159800500Y-193400000D01*
X169119540Y-193400000D01*
X169139326Y-193588256D01*
X169139327Y-193588259D01*
X169197818Y-193768277D01*
X169197821Y-193768284D01*
X169292467Y-193932216D01*
X169353050Y-193999500D01*
X169419129Y-194072888D01*
X169572265Y-194184148D01*
X169572270Y-194184151D01*
X169745192Y-194261142D01*
X169745197Y-194261144D01*
X169930354Y-194300500D01*
X169930355Y-194300500D01*
X170119644Y-194300500D01*
X170119646Y-194300500D01*
X170304803Y-194261144D01*
X170477730Y-194184151D01*
X170630871Y-194072888D01*
X170757533Y-193932216D01*
X170852179Y-193768284D01*
X170910674Y-193588256D01*
X170925205Y-193450000D01*
X177419540Y-193450000D01*
X177439326Y-193638256D01*
X177439327Y-193638259D01*
X177497818Y-193818277D01*
X177497821Y-193818284D01*
X177592467Y-193982216D01*
X177608030Y-193999500D01*
X177719129Y-194122888D01*
X177872265Y-194234148D01*
X177872270Y-194234151D01*
X178045192Y-194311142D01*
X178045197Y-194311144D01*
X178230354Y-194350500D01*
X178230355Y-194350500D01*
X178419644Y-194350500D01*
X178419646Y-194350500D01*
X178604803Y-194311144D01*
X178777730Y-194234151D01*
X178930871Y-194122888D01*
X179057533Y-193982216D01*
X179152179Y-193818284D01*
X179210674Y-193638256D01*
X179230460Y-193450000D01*
X179210674Y-193261744D01*
X179152179Y-193081716D01*
X179057533Y-192917784D01*
X178930871Y-192777112D01*
X178930186Y-192776614D01*
X178777734Y-192665851D01*
X178777729Y-192665848D01*
X178604807Y-192588857D01*
X178604802Y-192588855D01*
X178459001Y-192557865D01*
X178419646Y-192549500D01*
X178230354Y-192549500D01*
X178197897Y-192556398D01*
X178045197Y-192588855D01*
X178045192Y-192588857D01*
X177872270Y-192665848D01*
X177872265Y-192665851D01*
X177719129Y-192777111D01*
X177592466Y-192917785D01*
X177497821Y-193081715D01*
X177497818Y-193081722D01*
X177439327Y-193261740D01*
X177439326Y-193261744D01*
X177419540Y-193450000D01*
X170925205Y-193450000D01*
X170930460Y-193400000D01*
X170910674Y-193211744D01*
X170852179Y-193031716D01*
X170757533Y-192867784D01*
X170630871Y-192727112D01*
X170630870Y-192727111D01*
X170477734Y-192615851D01*
X170477729Y-192615848D01*
X170304807Y-192538857D01*
X170304802Y-192538855D01*
X170159001Y-192507865D01*
X170119646Y-192499500D01*
X169930354Y-192499500D01*
X169897897Y-192506398D01*
X169745197Y-192538855D01*
X169745192Y-192538857D01*
X169572270Y-192615848D01*
X169572265Y-192615851D01*
X169419129Y-192727111D01*
X169292466Y-192867785D01*
X169197821Y-193031715D01*
X169197818Y-193031722D01*
X169158135Y-193153856D01*
X169139326Y-193211744D01*
X169119540Y-193400000D01*
X159800500Y-193400000D01*
X159800500Y-191400000D01*
X198944540Y-191400000D01*
X198964326Y-191588256D01*
X198964327Y-191588259D01*
X199022818Y-191768277D01*
X199022821Y-191768284D01*
X199117467Y-191932216D01*
X199212747Y-192038035D01*
X199244129Y-192072888D01*
X199397265Y-192184148D01*
X199397270Y-192184151D01*
X199570192Y-192261142D01*
X199570197Y-192261144D01*
X199755354Y-192300500D01*
X199755355Y-192300500D01*
X199944644Y-192300500D01*
X199944646Y-192300500D01*
X200129803Y-192261144D01*
X200302730Y-192184151D01*
X200455871Y-192072888D01*
X200582533Y-191932216D01*
X200677179Y-191768284D01*
X200735674Y-191588256D01*
X200742322Y-191525000D01*
X202419540Y-191525000D01*
X202439326Y-191713256D01*
X202439327Y-191713259D01*
X202497818Y-191893277D01*
X202497821Y-191893284D01*
X202592467Y-192057216D01*
X202652047Y-192123386D01*
X202719129Y-192197888D01*
X202872265Y-192309148D01*
X202872270Y-192309151D01*
X203045192Y-192386142D01*
X203045197Y-192386144D01*
X203230354Y-192425500D01*
X203230355Y-192425500D01*
X203419644Y-192425500D01*
X203419646Y-192425500D01*
X203604803Y-192386144D01*
X203777730Y-192309151D01*
X203930871Y-192197888D01*
X204057533Y-192057216D01*
X204152179Y-191893284D01*
X204210674Y-191713256D01*
X204217322Y-191650000D01*
X210719540Y-191650000D01*
X210739326Y-191838256D01*
X210739327Y-191838259D01*
X210797818Y-192018277D01*
X210797821Y-192018284D01*
X210892467Y-192182216D01*
X210998971Y-192300500D01*
X211019129Y-192322888D01*
X211172265Y-192434148D01*
X211172270Y-192434151D01*
X211345192Y-192511142D01*
X211345197Y-192511144D01*
X211530354Y-192550500D01*
X211530355Y-192550500D01*
X211719644Y-192550500D01*
X211719646Y-192550500D01*
X211904803Y-192511144D01*
X212077730Y-192434151D01*
X212230871Y-192322888D01*
X212357533Y-192182216D01*
X212452179Y-192018284D01*
X212510674Y-191838256D01*
X212530460Y-191650000D01*
X212510674Y-191461744D01*
X212452179Y-191281716D01*
X212357533Y-191117784D01*
X212230871Y-190977112D01*
X212230870Y-190977111D01*
X212077734Y-190865851D01*
X212077729Y-190865848D01*
X211904807Y-190788857D01*
X211904802Y-190788855D01*
X211759001Y-190757865D01*
X211719646Y-190749500D01*
X211530354Y-190749500D01*
X211497897Y-190756398D01*
X211345197Y-190788855D01*
X211345192Y-190788857D01*
X211172270Y-190865848D01*
X211172265Y-190865851D01*
X211019129Y-190977111D01*
X210892466Y-191117785D01*
X210797821Y-191281715D01*
X210797818Y-191281722D01*
X210739327Y-191461740D01*
X210739326Y-191461744D01*
X210719540Y-191650000D01*
X204217322Y-191650000D01*
X204230460Y-191525000D01*
X204210674Y-191336744D01*
X204152179Y-191156716D01*
X204057533Y-190992784D01*
X203930871Y-190852112D01*
X203843808Y-190788857D01*
X203777734Y-190740851D01*
X203777729Y-190740848D01*
X203604807Y-190663857D01*
X203604802Y-190663855D01*
X203459001Y-190632865D01*
X203419646Y-190624500D01*
X203230354Y-190624500D01*
X203197897Y-190631398D01*
X203045197Y-190663855D01*
X203045192Y-190663857D01*
X202872270Y-190740848D01*
X202872265Y-190740851D01*
X202719129Y-190852111D01*
X202592466Y-190992785D01*
X202497821Y-191156715D01*
X202497818Y-191156722D01*
X202439327Y-191336740D01*
X202439326Y-191336744D01*
X202419540Y-191525000D01*
X200742322Y-191525000D01*
X200755460Y-191400000D01*
X200735674Y-191211744D01*
X200677179Y-191031716D01*
X200582533Y-190867784D01*
X200455871Y-190727112D01*
X200368808Y-190663857D01*
X200302734Y-190615851D01*
X200302729Y-190615848D01*
X200129807Y-190538857D01*
X200129802Y-190538855D01*
X199984001Y-190507865D01*
X199944646Y-190499500D01*
X199755354Y-190499500D01*
X199722897Y-190506398D01*
X199570197Y-190538855D01*
X199570192Y-190538857D01*
X199397270Y-190615848D01*
X199397265Y-190615851D01*
X199244129Y-190727111D01*
X199117466Y-190867785D01*
X199022821Y-191031715D01*
X199022818Y-191031722D01*
X198981100Y-191160118D01*
X198964326Y-191211744D01*
X198944540Y-191400000D01*
X159800500Y-191400000D01*
X159800500Y-189650000D01*
X207319540Y-189650000D01*
X207339326Y-189838256D01*
X207339327Y-189838259D01*
X207397818Y-190018277D01*
X207397821Y-190018284D01*
X207492467Y-190182216D01*
X207619129Y-190322888D01*
X207772265Y-190434148D01*
X207772270Y-190434151D01*
X207945192Y-190511142D01*
X207945197Y-190511144D01*
X208130354Y-190550500D01*
X208130355Y-190550500D01*
X208319644Y-190550500D01*
X208319646Y-190550500D01*
X208504803Y-190511144D01*
X208677730Y-190434151D01*
X208830871Y-190322888D01*
X208957533Y-190182216D01*
X209052179Y-190018284D01*
X209110674Y-189838256D01*
X209130460Y-189650000D01*
X209110674Y-189461744D01*
X209052179Y-189281716D01*
X208957533Y-189117784D01*
X208830871Y-188977112D01*
X208830870Y-188977111D01*
X208677734Y-188865851D01*
X208677729Y-188865848D01*
X208504807Y-188788857D01*
X208504802Y-188788855D01*
X208359001Y-188757865D01*
X208319646Y-188749500D01*
X208130354Y-188749500D01*
X208097897Y-188756398D01*
X207945197Y-188788855D01*
X207945192Y-188788857D01*
X207772270Y-188865848D01*
X207772265Y-188865851D01*
X207619129Y-188977111D01*
X207492466Y-189117785D01*
X207397821Y-189281715D01*
X207397818Y-189281722D01*
X207339327Y-189461740D01*
X207339326Y-189461744D01*
X207319540Y-189650000D01*
X159800500Y-189650000D01*
X159800500Y-187400000D01*
X172519540Y-187400000D01*
X172539326Y-187588256D01*
X172539327Y-187588259D01*
X172597818Y-187768277D01*
X172597821Y-187768284D01*
X172692467Y-187932216D01*
X172819129Y-188072888D01*
X172972265Y-188184148D01*
X172972270Y-188184151D01*
X173145192Y-188261142D01*
X173145197Y-188261144D01*
X173330354Y-188300500D01*
X173330355Y-188300500D01*
X173519644Y-188300500D01*
X173519646Y-188300500D01*
X173704803Y-188261144D01*
X173877730Y-188184151D01*
X174030871Y-188072888D01*
X174157533Y-187932216D01*
X174252179Y-187768284D01*
X174310674Y-187588256D01*
X174330460Y-187400000D01*
X174310674Y-187211744D01*
X174252179Y-187031716D01*
X174157533Y-186867784D01*
X174030871Y-186727112D01*
X174030870Y-186727111D01*
X173877734Y-186615851D01*
X173877729Y-186615848D01*
X173704807Y-186538857D01*
X173704802Y-186538855D01*
X173559001Y-186507865D01*
X173519646Y-186499500D01*
X173330354Y-186499500D01*
X173297897Y-186506398D01*
X173145197Y-186538855D01*
X173145192Y-186538857D01*
X172972270Y-186615848D01*
X172972265Y-186615851D01*
X172819129Y-186727111D01*
X172692466Y-186867785D01*
X172597821Y-187031715D01*
X172597818Y-187031722D01*
X172568197Y-187122888D01*
X172539326Y-187211744D01*
X172519540Y-187400000D01*
X159800500Y-187400000D01*
X159800500Y-186450000D01*
X207894540Y-186450000D01*
X207914326Y-186638256D01*
X207914327Y-186638259D01*
X207972818Y-186818277D01*
X207972821Y-186818284D01*
X208067467Y-186982216D01*
X208112043Y-187031722D01*
X208194129Y-187122888D01*
X208347265Y-187234148D01*
X208347270Y-187234151D01*
X208520192Y-187311142D01*
X208520197Y-187311144D01*
X208705354Y-187350500D01*
X208705355Y-187350500D01*
X208894644Y-187350500D01*
X208894646Y-187350500D01*
X209079803Y-187311144D01*
X209252730Y-187234151D01*
X209405871Y-187122888D01*
X209532533Y-186982216D01*
X209627179Y-186818284D01*
X209685674Y-186638256D01*
X209705460Y-186450000D01*
X209685674Y-186261744D01*
X209627179Y-186081716D01*
X209532533Y-185917784D01*
X209405871Y-185777112D01*
X209405870Y-185777111D01*
X209252734Y-185665851D01*
X209252729Y-185665848D01*
X209079807Y-185588857D01*
X209079802Y-185588855D01*
X208934001Y-185557865D01*
X208894646Y-185549500D01*
X208705354Y-185549500D01*
X208672897Y-185556398D01*
X208520197Y-185588855D01*
X208520192Y-185588857D01*
X208347270Y-185665848D01*
X208347265Y-185665851D01*
X208194129Y-185777111D01*
X208067466Y-185917785D01*
X207972821Y-186081715D01*
X207972818Y-186081722D01*
X207914327Y-186261740D01*
X207914326Y-186261744D01*
X207894540Y-186450000D01*
X159800500Y-186450000D01*
X159800500Y-167400000D01*
X170719540Y-167400000D01*
X170739326Y-167588256D01*
X170739327Y-167588259D01*
X170797818Y-167768277D01*
X170797821Y-167768284D01*
X170892467Y-167932216D01*
X171019129Y-168072888D01*
X171172265Y-168184148D01*
X171172270Y-168184151D01*
X171345192Y-168261142D01*
X171345197Y-168261144D01*
X171530354Y-168300500D01*
X171530355Y-168300500D01*
X171719644Y-168300500D01*
X171719646Y-168300500D01*
X171904803Y-168261144D01*
X172077730Y-168184151D01*
X172230871Y-168072888D01*
X172357533Y-167932216D01*
X172452179Y-167768284D01*
X172510674Y-167588256D01*
X172530460Y-167400000D01*
X172510674Y-167211744D01*
X172452179Y-167031716D01*
X172357533Y-166867784D01*
X172230871Y-166727112D01*
X172230870Y-166727111D01*
X172077734Y-166615851D01*
X172077729Y-166615848D01*
X171904807Y-166538857D01*
X171904802Y-166538855D01*
X171759001Y-166507865D01*
X171719646Y-166499500D01*
X171530354Y-166499500D01*
X171497897Y-166506398D01*
X171345197Y-166538855D01*
X171345192Y-166538857D01*
X171172270Y-166615848D01*
X171172265Y-166615851D01*
X171019129Y-166727111D01*
X170892466Y-166867785D01*
X170797821Y-167031715D01*
X170797818Y-167031722D01*
X170751102Y-167175500D01*
X170739326Y-167211744D01*
X170719540Y-167400000D01*
X159800500Y-167400000D01*
X159800500Y-166275000D01*
X206044540Y-166275000D01*
X206064326Y-166463256D01*
X206064327Y-166463259D01*
X206122818Y-166643277D01*
X206122821Y-166643284D01*
X206217467Y-166807216D01*
X206272003Y-166867784D01*
X206344129Y-166947888D01*
X206497265Y-167059148D01*
X206497270Y-167059151D01*
X206670192Y-167136142D01*
X206670197Y-167136144D01*
X206855354Y-167175500D01*
X206855355Y-167175500D01*
X207044644Y-167175500D01*
X207044646Y-167175500D01*
X207229803Y-167136144D01*
X207402730Y-167059151D01*
X207555871Y-166947888D01*
X207682533Y-166807216D01*
X207777179Y-166643284D01*
X207835674Y-166463256D01*
X207855460Y-166275000D01*
X207835674Y-166086744D01*
X207777179Y-165906716D01*
X207682533Y-165742784D01*
X207555871Y-165602112D01*
X207555870Y-165602111D01*
X207402734Y-165490851D01*
X207402729Y-165490848D01*
X207229807Y-165413857D01*
X207229802Y-165413855D01*
X207084001Y-165382865D01*
X207044646Y-165374500D01*
X206855354Y-165374500D01*
X206822897Y-165381398D01*
X206670197Y-165413855D01*
X206670192Y-165413857D01*
X206497270Y-165490848D01*
X206497265Y-165490851D01*
X206344129Y-165602111D01*
X206217466Y-165742785D01*
X206122821Y-165906715D01*
X206122818Y-165906722D01*
X206064327Y-166086740D01*
X206064326Y-166086744D01*
X206044540Y-166275000D01*
X159800500Y-166275000D01*
X159800500Y-159999999D01*
X161044341Y-159999999D01*
X161044341Y-160000000D01*
X161064936Y-160235403D01*
X161064938Y-160235413D01*
X161126094Y-160463655D01*
X161126096Y-160463659D01*
X161126097Y-160463663D01*
X161140696Y-160494970D01*
X161225965Y-160677830D01*
X161225967Y-160677834D01*
X161361501Y-160871395D01*
X161361506Y-160871402D01*
X161528597Y-161038493D01*
X161528603Y-161038498D01*
X161714594Y-161168730D01*
X161758219Y-161223307D01*
X161765413Y-161292805D01*
X161733890Y-161355160D01*
X161714595Y-161371880D01*
X161528922Y-161501890D01*
X161528920Y-161501891D01*
X161361891Y-161668920D01*
X161361886Y-161668926D01*
X161226400Y-161862420D01*
X161226399Y-161862422D01*
X161126570Y-162076507D01*
X161126567Y-162076513D01*
X161069364Y-162289999D01*
X161069364Y-162290000D01*
X161966988Y-162290000D01*
X161934075Y-162347007D01*
X161900000Y-162474174D01*
X161900000Y-162605826D01*
X161934075Y-162732993D01*
X161966988Y-162790000D01*
X161069364Y-162790000D01*
X161126567Y-163003486D01*
X161126570Y-163003492D01*
X161226399Y-163217578D01*
X161361894Y-163411082D01*
X161528917Y-163578105D01*
X161722421Y-163713600D01*
X161936507Y-163813429D01*
X161936516Y-163813433D01*
X162150000Y-163870634D01*
X162150000Y-162973012D01*
X162207007Y-163005925D01*
X162334174Y-163040000D01*
X162465826Y-163040000D01*
X162592993Y-163005925D01*
X162650000Y-162973012D01*
X162650000Y-163870633D01*
X162863483Y-163813433D01*
X162863492Y-163813429D01*
X163077578Y-163713600D01*
X163271082Y-163578105D01*
X163438105Y-163411082D01*
X163568403Y-163225000D01*
X172544540Y-163225000D01*
X172564326Y-163413256D01*
X172564327Y-163413259D01*
X172622818Y-163593277D01*
X172622821Y-163593284D01*
X172717467Y-163757216D01*
X172819589Y-163870634D01*
X172844129Y-163897888D01*
X172997265Y-164009148D01*
X172997270Y-164009151D01*
X173170192Y-164086142D01*
X173170197Y-164086144D01*
X173355354Y-164125500D01*
X173355355Y-164125500D01*
X173544644Y-164125500D01*
X173544646Y-164125500D01*
X173729803Y-164086144D01*
X173902730Y-164009151D01*
X174055871Y-163897888D01*
X174182533Y-163757216D01*
X174277179Y-163593284D01*
X174335674Y-163413256D01*
X174355460Y-163225000D01*
X174335674Y-163036744D01*
X174277179Y-162856716D01*
X174182533Y-162692784D01*
X174055871Y-162552112D01*
X174055870Y-162552111D01*
X173902734Y-162440851D01*
X173902729Y-162440848D01*
X173729807Y-162363857D01*
X173729802Y-162363855D01*
X173580938Y-162332214D01*
X173544646Y-162324500D01*
X173355354Y-162324500D01*
X173322897Y-162331398D01*
X173170197Y-162363855D01*
X173170192Y-162363857D01*
X172997270Y-162440848D01*
X172997265Y-162440851D01*
X172844129Y-162552111D01*
X172717466Y-162692785D01*
X172622821Y-162856715D01*
X172622818Y-162856722D01*
X172564327Y-163036740D01*
X172564326Y-163036744D01*
X172544540Y-163225000D01*
X163568403Y-163225000D01*
X163573600Y-163217578D01*
X163673429Y-163003492D01*
X163673432Y-163003486D01*
X163730636Y-162790000D01*
X162833012Y-162790000D01*
X162865925Y-162732993D01*
X162900000Y-162605826D01*
X162900000Y-162474174D01*
X162865925Y-162347007D01*
X162833012Y-162290000D01*
X163730636Y-162290000D01*
X163730635Y-162289999D01*
X163673432Y-162076513D01*
X163673429Y-162076507D01*
X163573600Y-161862422D01*
X163573599Y-161862420D01*
X163529892Y-161800000D01*
X201669540Y-161800000D01*
X201689326Y-161988256D01*
X201689327Y-161988259D01*
X201747818Y-162168277D01*
X201747821Y-162168284D01*
X201842467Y-162332216D01*
X201870956Y-162363856D01*
X201969129Y-162472888D01*
X202122265Y-162584148D01*
X202122270Y-162584151D01*
X202295192Y-162661142D01*
X202295197Y-162661144D01*
X202480354Y-162700500D01*
X202480355Y-162700500D01*
X202669644Y-162700500D01*
X202669646Y-162700500D01*
X202854803Y-162661144D01*
X203027730Y-162584151D01*
X203180871Y-162472888D01*
X203307533Y-162332216D01*
X203402179Y-162168284D01*
X203460674Y-161988256D01*
X203480460Y-161800000D01*
X203460674Y-161611744D01*
X203402179Y-161431716D01*
X203307533Y-161267784D01*
X203180871Y-161127112D01*
X203180870Y-161127111D01*
X203027734Y-161015851D01*
X203027729Y-161015848D01*
X202854807Y-160938857D01*
X202854802Y-160938855D01*
X202709001Y-160907865D01*
X202669646Y-160899500D01*
X202480354Y-160899500D01*
X202447897Y-160906398D01*
X202295197Y-160938855D01*
X202295192Y-160938857D01*
X202122270Y-161015848D01*
X202122265Y-161015851D01*
X201969129Y-161127111D01*
X201842466Y-161267785D01*
X201747821Y-161431715D01*
X201747818Y-161431722D01*
X201689327Y-161611740D01*
X201689326Y-161611744D01*
X201669540Y-161800000D01*
X163529892Y-161800000D01*
X163438113Y-161668926D01*
X163438108Y-161668920D01*
X163271078Y-161501890D01*
X163085405Y-161371879D01*
X163041780Y-161317302D01*
X163034588Y-161247804D01*
X163066110Y-161185449D01*
X163085406Y-161168730D01*
X163271401Y-161038495D01*
X163438495Y-160871401D01*
X163574035Y-160677830D01*
X163673903Y-160463663D01*
X163735063Y-160235408D01*
X163755659Y-160000000D01*
X163755659Y-159999999D01*
X216644341Y-159999999D01*
X216644341Y-160000000D01*
X216664936Y-160235403D01*
X216664938Y-160235413D01*
X216726094Y-160463655D01*
X216726096Y-160463659D01*
X216726097Y-160463663D01*
X216740696Y-160494970D01*
X216825965Y-160677830D01*
X216825967Y-160677834D01*
X216961501Y-160871395D01*
X216961506Y-160871402D01*
X217128597Y-161038493D01*
X217128603Y-161038498D01*
X217314594Y-161168730D01*
X217358219Y-161223307D01*
X217365413Y-161292805D01*
X217333890Y-161355160D01*
X217314595Y-161371880D01*
X217128922Y-161501890D01*
X217128920Y-161501891D01*
X216961891Y-161668920D01*
X216961886Y-161668926D01*
X216826400Y-161862420D01*
X216826399Y-161862422D01*
X216726570Y-162076507D01*
X216726567Y-162076513D01*
X216669364Y-162289999D01*
X216669364Y-162290000D01*
X217566988Y-162290000D01*
X217534075Y-162347007D01*
X217500000Y-162474174D01*
X217500000Y-162605826D01*
X217534075Y-162732993D01*
X217566988Y-162790000D01*
X216669364Y-162790000D01*
X216726567Y-163003486D01*
X216726570Y-163003492D01*
X216826399Y-163217578D01*
X216961894Y-163411082D01*
X217128917Y-163578105D01*
X217322421Y-163713600D01*
X217536507Y-163813429D01*
X217536516Y-163813433D01*
X217750000Y-163870634D01*
X217750000Y-162973012D01*
X217807007Y-163005925D01*
X217934174Y-163040000D01*
X218065826Y-163040000D01*
X218192993Y-163005925D01*
X218250000Y-162973012D01*
X218250000Y-163870633D01*
X218463483Y-163813433D01*
X218463492Y-163813429D01*
X218677578Y-163713600D01*
X218871082Y-163578105D01*
X219038105Y-163411082D01*
X219173600Y-163217578D01*
X219273429Y-163003492D01*
X219273432Y-163003486D01*
X219330636Y-162790000D01*
X218433012Y-162790000D01*
X218465925Y-162732993D01*
X218500000Y-162605826D01*
X218500000Y-162474174D01*
X218465925Y-162347007D01*
X218433012Y-162290000D01*
X219330636Y-162290000D01*
X219330635Y-162289999D01*
X219273432Y-162076513D01*
X219273429Y-162076507D01*
X219173600Y-161862422D01*
X219173599Y-161862420D01*
X219038113Y-161668926D01*
X219038108Y-161668920D01*
X218871078Y-161501890D01*
X218685405Y-161371879D01*
X218641780Y-161317302D01*
X218634588Y-161247804D01*
X218666110Y-161185449D01*
X218685406Y-161168730D01*
X218871401Y-161038495D01*
X219038495Y-160871401D01*
X219174035Y-160677830D01*
X219273903Y-160463663D01*
X219335063Y-160235408D01*
X219355659Y-160000000D01*
X219335063Y-159764592D01*
X219288626Y-159591285D01*
X219273905Y-159536344D01*
X219273904Y-159536343D01*
X219273903Y-159536337D01*
X219174035Y-159322171D01*
X219042826Y-159134785D01*
X219038496Y-159128600D01*
X218979427Y-159069531D01*
X218916567Y-159006671D01*
X218883084Y-158945351D01*
X218888068Y-158875659D01*
X218929939Y-158819725D01*
X218960915Y-158802810D01*
X219092331Y-158753796D01*
X219207546Y-158667546D01*
X219293796Y-158552331D01*
X219344091Y-158417483D01*
X219350500Y-158357873D01*
X219350499Y-156562128D01*
X219344091Y-156502517D01*
X219338089Y-156486426D01*
X219293797Y-156367671D01*
X219293793Y-156367664D01*
X219207547Y-156252455D01*
X219207544Y-156252452D01*
X219092335Y-156166206D01*
X219092328Y-156166202D01*
X218957482Y-156115908D01*
X218957483Y-156115908D01*
X218897883Y-156109501D01*
X218897881Y-156109500D01*
X218897873Y-156109500D01*
X218897864Y-156109500D01*
X217102129Y-156109500D01*
X217102123Y-156109501D01*
X217042516Y-156115908D01*
X216907671Y-156166202D01*
X216907664Y-156166206D01*
X216792455Y-156252452D01*
X216792452Y-156252455D01*
X216706206Y-156367664D01*
X216706202Y-156367671D01*
X216655908Y-156502517D01*
X216649716Y-156560118D01*
X216649501Y-156562123D01*
X216649500Y-156562135D01*
X216649500Y-158357870D01*
X216649501Y-158357876D01*
X216655908Y-158417483D01*
X216706202Y-158552328D01*
X216706206Y-158552335D01*
X216792452Y-158667544D01*
X216792455Y-158667547D01*
X216907664Y-158753793D01*
X216907671Y-158753797D01*
X217039081Y-158802810D01*
X217095015Y-158844681D01*
X217119432Y-158910145D01*
X217104580Y-158978418D01*
X217083430Y-159006673D01*
X216961503Y-159128600D01*
X216825965Y-159322169D01*
X216825964Y-159322171D01*
X216726098Y-159536335D01*
X216726094Y-159536344D01*
X216664938Y-159764586D01*
X216664936Y-159764596D01*
X216644341Y-159999999D01*
X163755659Y-159999999D01*
X163735063Y-159764592D01*
X163688626Y-159591285D01*
X163673905Y-159536344D01*
X163673904Y-159536343D01*
X163673903Y-159536337D01*
X163574035Y-159322171D01*
X163442826Y-159134785D01*
X163438496Y-159128600D01*
X163379427Y-159069531D01*
X163316567Y-159006671D01*
X163283084Y-158945351D01*
X163288068Y-158875659D01*
X163329939Y-158819725D01*
X163360915Y-158802810D01*
X163492331Y-158753796D01*
X163607546Y-158667546D01*
X163693796Y-158552331D01*
X163744091Y-158417483D01*
X163750500Y-158357873D01*
X163750500Y-158250000D01*
X198669540Y-158250000D01*
X198689326Y-158438256D01*
X198689327Y-158438259D01*
X198747818Y-158618277D01*
X198747821Y-158618284D01*
X198842467Y-158782216D01*
X198957655Y-158910145D01*
X198969129Y-158922888D01*
X199122265Y-159034148D01*
X199122270Y-159034151D01*
X199295192Y-159111142D01*
X199295197Y-159111144D01*
X199480354Y-159150500D01*
X199480355Y-159150500D01*
X199669644Y-159150500D01*
X199669646Y-159150500D01*
X199854803Y-159111144D01*
X200027730Y-159034151D01*
X200180871Y-158922888D01*
X200307533Y-158782216D01*
X200402179Y-158618284D01*
X200460674Y-158438256D01*
X200480460Y-158250000D01*
X200460674Y-158061744D01*
X200402179Y-157881716D01*
X200307533Y-157717784D01*
X200180871Y-157577112D01*
X200180870Y-157577111D01*
X200027734Y-157465851D01*
X200027729Y-157465848D01*
X199854807Y-157388857D01*
X199854802Y-157388855D01*
X199709001Y-157357865D01*
X199669646Y-157349500D01*
X199480354Y-157349500D01*
X199447897Y-157356398D01*
X199295197Y-157388855D01*
X199295192Y-157388857D01*
X199122270Y-157465848D01*
X199122265Y-157465851D01*
X198969129Y-157577111D01*
X198842466Y-157717785D01*
X198747821Y-157881715D01*
X198747818Y-157881722D01*
X198689327Y-158061740D01*
X198689326Y-158061744D01*
X198669540Y-158250000D01*
X163750500Y-158250000D01*
X163750499Y-156562128D01*
X163744091Y-156502517D01*
X163738089Y-156486426D01*
X163693797Y-156367671D01*
X163693793Y-156367664D01*
X163607547Y-156252455D01*
X163607544Y-156252452D01*
X163492335Y-156166206D01*
X163492328Y-156166202D01*
X163357482Y-156115908D01*
X163357483Y-156115908D01*
X163297883Y-156109501D01*
X163297881Y-156109500D01*
X163297873Y-156109500D01*
X163297864Y-156109500D01*
X161502129Y-156109500D01*
X161502123Y-156109501D01*
X161442516Y-156115908D01*
X161307671Y-156166202D01*
X161307664Y-156166206D01*
X161192455Y-156252452D01*
X161192452Y-156252455D01*
X161106206Y-156367664D01*
X161106202Y-156367671D01*
X161055908Y-156502517D01*
X161049716Y-156560118D01*
X161049501Y-156562123D01*
X161049500Y-156562135D01*
X161049500Y-158357870D01*
X161049501Y-158357876D01*
X161055908Y-158417483D01*
X161106202Y-158552328D01*
X161106206Y-158552335D01*
X161192452Y-158667544D01*
X161192455Y-158667547D01*
X161307664Y-158753793D01*
X161307671Y-158753797D01*
X161439081Y-158802810D01*
X161495015Y-158844681D01*
X161519432Y-158910145D01*
X161504580Y-158978418D01*
X161483430Y-159006673D01*
X161361503Y-159128600D01*
X161225965Y-159322169D01*
X161225964Y-159322171D01*
X161126098Y-159536335D01*
X161126094Y-159536344D01*
X161064938Y-159764586D01*
X161064936Y-159764596D01*
X161044341Y-159999999D01*
X159800500Y-159999999D01*
X159800500Y-155850000D01*
X172544540Y-155850000D01*
X172564326Y-156038256D01*
X172564327Y-156038259D01*
X172622818Y-156218277D01*
X172622821Y-156218284D01*
X172717467Y-156382216D01*
X172825786Y-156502516D01*
X172844129Y-156522888D01*
X172997265Y-156634148D01*
X172997270Y-156634151D01*
X173170192Y-156711142D01*
X173170197Y-156711144D01*
X173355354Y-156750500D01*
X173355355Y-156750500D01*
X173544644Y-156750500D01*
X173544646Y-156750500D01*
X173729803Y-156711144D01*
X173902730Y-156634151D01*
X174055871Y-156522888D01*
X174182533Y-156382216D01*
X174277179Y-156218284D01*
X174335674Y-156038256D01*
X174342322Y-155975000D01*
X178194540Y-155975000D01*
X178214326Y-156163256D01*
X178214327Y-156163259D01*
X178272818Y-156343277D01*
X178272821Y-156343284D01*
X178367467Y-156507216D01*
X178481757Y-156634148D01*
X178494129Y-156647888D01*
X178647265Y-156759148D01*
X178647270Y-156759151D01*
X178820192Y-156836142D01*
X178820197Y-156836144D01*
X179005354Y-156875500D01*
X179005355Y-156875500D01*
X179194644Y-156875500D01*
X179194646Y-156875500D01*
X179379803Y-156836144D01*
X179552730Y-156759151D01*
X179705871Y-156647888D01*
X179832533Y-156507216D01*
X179927179Y-156343284D01*
X179985674Y-156163256D01*
X180005460Y-155975000D01*
X179985674Y-155786744D01*
X179927179Y-155606716D01*
X179832533Y-155442784D01*
X179705871Y-155302112D01*
X179705870Y-155302111D01*
X179552734Y-155190851D01*
X179552729Y-155190848D01*
X179379807Y-155113857D01*
X179379802Y-155113855D01*
X179234001Y-155082865D01*
X179194646Y-155074500D01*
X179005354Y-155074500D01*
X178972897Y-155081398D01*
X178820197Y-155113855D01*
X178820192Y-155113857D01*
X178647270Y-155190848D01*
X178647265Y-155190851D01*
X178494129Y-155302111D01*
X178367466Y-155442785D01*
X178272821Y-155606715D01*
X178272818Y-155606722D01*
X178214327Y-155786740D01*
X178214326Y-155786744D01*
X178194540Y-155975000D01*
X174342322Y-155975000D01*
X174355460Y-155850000D01*
X174335674Y-155661744D01*
X174277179Y-155481716D01*
X174182533Y-155317784D01*
X174055871Y-155177112D01*
X173968808Y-155113857D01*
X173902734Y-155065851D01*
X173902729Y-155065848D01*
X173729807Y-154988857D01*
X173729802Y-154988855D01*
X173584001Y-154957865D01*
X173544646Y-154949500D01*
X173355354Y-154949500D01*
X173322897Y-154956398D01*
X173170197Y-154988855D01*
X173170192Y-154988857D01*
X172997270Y-155065848D01*
X172997265Y-155065851D01*
X172844129Y-155177111D01*
X172717466Y-155317785D01*
X172622821Y-155481715D01*
X172622818Y-155481722D01*
X172564327Y-155661740D01*
X172564326Y-155661744D01*
X172544540Y-155850000D01*
X159800500Y-155850000D01*
X159800500Y-154000000D01*
X201969540Y-154000000D01*
X201989326Y-154188256D01*
X201989327Y-154188259D01*
X202047818Y-154368277D01*
X202047821Y-154368284D01*
X202142467Y-154532216D01*
X202269129Y-154672888D01*
X202422265Y-154784148D01*
X202422270Y-154784151D01*
X202595192Y-154861142D01*
X202595197Y-154861144D01*
X202780354Y-154900500D01*
X202780355Y-154900500D01*
X202969644Y-154900500D01*
X202969646Y-154900500D01*
X203154803Y-154861144D01*
X203327730Y-154784151D01*
X203480871Y-154672888D01*
X203607533Y-154532216D01*
X203702179Y-154368284D01*
X203760674Y-154188256D01*
X203780460Y-154000000D01*
X203760674Y-153811744D01*
X203702179Y-153631716D01*
X203607533Y-153467784D01*
X203480871Y-153327112D01*
X203480870Y-153327111D01*
X203327734Y-153215851D01*
X203327729Y-153215848D01*
X203154807Y-153138857D01*
X203154802Y-153138855D01*
X203009001Y-153107865D01*
X202969646Y-153099500D01*
X202780354Y-153099500D01*
X202747897Y-153106398D01*
X202595197Y-153138855D01*
X202595192Y-153138857D01*
X202422270Y-153215848D01*
X202422265Y-153215851D01*
X202269129Y-153327111D01*
X202142466Y-153467785D01*
X202047821Y-153631715D01*
X202047818Y-153631722D01*
X201989327Y-153811740D01*
X201989326Y-153811744D01*
X201969540Y-154000000D01*
X159800500Y-154000000D01*
X159800500Y-152775000D01*
X207744540Y-152775000D01*
X207764326Y-152963256D01*
X207764327Y-152963259D01*
X207822818Y-153143277D01*
X207822821Y-153143284D01*
X207917467Y-153307216D01*
X208044129Y-153447888D01*
X208197265Y-153559148D01*
X208197270Y-153559151D01*
X208370192Y-153636142D01*
X208370197Y-153636144D01*
X208555354Y-153675500D01*
X208555355Y-153675500D01*
X208744644Y-153675500D01*
X208744646Y-153675500D01*
X208929803Y-153636144D01*
X209102730Y-153559151D01*
X209255871Y-153447888D01*
X209382533Y-153307216D01*
X209477179Y-153143284D01*
X209535674Y-152963256D01*
X209555460Y-152775000D01*
X209535674Y-152586744D01*
X209477179Y-152406716D01*
X209382533Y-152242784D01*
X209255871Y-152102112D01*
X209255870Y-152102111D01*
X209102734Y-151990851D01*
X209102729Y-151990848D01*
X208929807Y-151913857D01*
X208929802Y-151913855D01*
X208784001Y-151882865D01*
X208744646Y-151874500D01*
X208555354Y-151874500D01*
X208522897Y-151881398D01*
X208370197Y-151913855D01*
X208370192Y-151913857D01*
X208197270Y-151990848D01*
X208197265Y-151990851D01*
X208044129Y-152102111D01*
X207917466Y-152242785D01*
X207822821Y-152406715D01*
X207822818Y-152406722D01*
X207764327Y-152586740D01*
X207764326Y-152586744D01*
X207744540Y-152775000D01*
X159800500Y-152775000D01*
X159800500Y-133575000D01*
X170969540Y-133575000D01*
X170989326Y-133763256D01*
X170989327Y-133763259D01*
X171047818Y-133943277D01*
X171047821Y-133943284D01*
X171142467Y-134107216D01*
X171269129Y-134247888D01*
X171422265Y-134359148D01*
X171422270Y-134359151D01*
X171595192Y-134436142D01*
X171595197Y-134436144D01*
X171780354Y-134475500D01*
X171780355Y-134475500D01*
X171969644Y-134475500D01*
X171969646Y-134475500D01*
X172154803Y-134436144D01*
X172327730Y-134359151D01*
X172480871Y-134247888D01*
X172607533Y-134107216D01*
X172702179Y-133943284D01*
X172760674Y-133763256D01*
X172780460Y-133575000D01*
X172760674Y-133386744D01*
X172702179Y-133206716D01*
X172607533Y-133042784D01*
X172480871Y-132902112D01*
X172480870Y-132902111D01*
X172327734Y-132790851D01*
X172327729Y-132790848D01*
X172154807Y-132713857D01*
X172154802Y-132713855D01*
X172009001Y-132682865D01*
X171969646Y-132674500D01*
X171780354Y-132674500D01*
X171747897Y-132681398D01*
X171595197Y-132713855D01*
X171595192Y-132713857D01*
X171422270Y-132790848D01*
X171422265Y-132790851D01*
X171269129Y-132902111D01*
X171142466Y-133042785D01*
X171047821Y-133206715D01*
X171047818Y-133206722D01*
X170989327Y-133386740D01*
X170989326Y-133386744D01*
X170969540Y-133575000D01*
X159800500Y-133575000D01*
X159800500Y-132125000D01*
X203669540Y-132125000D01*
X203689326Y-132313256D01*
X203689327Y-132313259D01*
X203747818Y-132493277D01*
X203747821Y-132493284D01*
X203842467Y-132657216D01*
X203893467Y-132713857D01*
X203969129Y-132797888D01*
X204122265Y-132909148D01*
X204122270Y-132909151D01*
X204295192Y-132986142D01*
X204295197Y-132986144D01*
X204480354Y-133025500D01*
X204480355Y-133025500D01*
X204669644Y-133025500D01*
X204669646Y-133025500D01*
X204854803Y-132986144D01*
X205027730Y-132909151D01*
X205180871Y-132797888D01*
X205307533Y-132657216D01*
X205402179Y-132493284D01*
X205460674Y-132313256D01*
X205480460Y-132125000D01*
X205460674Y-131936744D01*
X205402179Y-131756716D01*
X205307533Y-131592784D01*
X205180871Y-131452112D01*
X205180870Y-131452111D01*
X205027734Y-131340851D01*
X205027729Y-131340848D01*
X204854807Y-131263857D01*
X204854802Y-131263855D01*
X204709001Y-131232865D01*
X204669646Y-131224500D01*
X204480354Y-131224500D01*
X204447897Y-131231398D01*
X204295197Y-131263855D01*
X204295192Y-131263857D01*
X204122270Y-131340848D01*
X204122265Y-131340851D01*
X203969129Y-131452111D01*
X203842466Y-131592785D01*
X203747821Y-131756715D01*
X203747818Y-131756722D01*
X203689327Y-131936740D01*
X203689326Y-131936744D01*
X203669540Y-132125000D01*
X159800500Y-132125000D01*
X159800500Y-130725000D01*
X173969540Y-130725000D01*
X173989326Y-130913256D01*
X173989327Y-130913259D01*
X174047818Y-131093277D01*
X174047821Y-131093284D01*
X174142467Y-131257216D01*
X174148446Y-131263856D01*
X174269129Y-131397888D01*
X174422265Y-131509148D01*
X174422270Y-131509151D01*
X174595192Y-131586142D01*
X174595197Y-131586144D01*
X174780354Y-131625500D01*
X174780355Y-131625500D01*
X174969644Y-131625500D01*
X174969646Y-131625500D01*
X175154803Y-131586144D01*
X175327730Y-131509151D01*
X175480871Y-131397888D01*
X175607533Y-131257216D01*
X175702179Y-131093284D01*
X175760674Y-130913256D01*
X175780460Y-130725000D01*
X175760674Y-130536744D01*
X175702179Y-130356716D01*
X175607533Y-130192784D01*
X175480871Y-130052112D01*
X175480870Y-130052111D01*
X175327734Y-129940851D01*
X175327729Y-129940848D01*
X175154807Y-129863857D01*
X175154802Y-129863855D01*
X175009001Y-129832865D01*
X174969646Y-129824500D01*
X174780354Y-129824500D01*
X174747897Y-129831398D01*
X174595197Y-129863855D01*
X174595192Y-129863857D01*
X174422270Y-129940848D01*
X174422265Y-129940851D01*
X174269129Y-130052111D01*
X174142466Y-130192785D01*
X174047821Y-130356715D01*
X174047818Y-130356722D01*
X173989327Y-130536740D01*
X173989326Y-130536744D01*
X173969540Y-130725000D01*
X159800500Y-130725000D01*
X159800500Y-129425000D01*
X200944540Y-129425000D01*
X200964326Y-129613256D01*
X200964327Y-129613259D01*
X201022818Y-129793277D01*
X201022821Y-129793284D01*
X201117467Y-129957216D01*
X201202911Y-130052111D01*
X201244129Y-130097888D01*
X201397265Y-130209148D01*
X201397270Y-130209151D01*
X201570192Y-130286142D01*
X201570197Y-130286144D01*
X201755354Y-130325500D01*
X201755355Y-130325500D01*
X201944644Y-130325500D01*
X201944646Y-130325500D01*
X202129803Y-130286144D01*
X202302730Y-130209151D01*
X202455871Y-130097888D01*
X202582533Y-129957216D01*
X202677179Y-129793284D01*
X202735674Y-129613256D01*
X202755460Y-129425000D01*
X202735674Y-129236744D01*
X202677179Y-129056716D01*
X202582533Y-128892784D01*
X202455871Y-128752112D01*
X202455870Y-128752111D01*
X202302734Y-128640851D01*
X202302729Y-128640848D01*
X202129807Y-128563857D01*
X202129802Y-128563855D01*
X201984001Y-128532865D01*
X201944646Y-128524500D01*
X201755354Y-128524500D01*
X201722897Y-128531398D01*
X201570197Y-128563855D01*
X201570192Y-128563857D01*
X201397270Y-128640848D01*
X201397265Y-128640851D01*
X201244129Y-128752111D01*
X201117466Y-128892785D01*
X201022821Y-129056715D01*
X201022818Y-129056722D01*
X200964327Y-129236740D01*
X200964326Y-129236744D01*
X200944540Y-129425000D01*
X159800500Y-129425000D01*
X159800500Y-127450000D01*
X177219540Y-127450000D01*
X177239326Y-127638256D01*
X177239327Y-127638259D01*
X177297818Y-127818277D01*
X177297821Y-127818284D01*
X177392467Y-127982216D01*
X177519129Y-128122888D01*
X177672265Y-128234148D01*
X177672270Y-128234151D01*
X177845192Y-128311142D01*
X177845197Y-128311144D01*
X178030354Y-128350500D01*
X178030355Y-128350500D01*
X178219644Y-128350500D01*
X178219646Y-128350500D01*
X178404803Y-128311144D01*
X178577730Y-128234151D01*
X178730871Y-128122888D01*
X178857533Y-127982216D01*
X178952179Y-127818284D01*
X179010674Y-127638256D01*
X179030460Y-127450000D01*
X179010674Y-127261744D01*
X178952179Y-127081716D01*
X178857533Y-126917784D01*
X178730871Y-126777112D01*
X178730870Y-126777111D01*
X178577734Y-126665851D01*
X178577729Y-126665848D01*
X178404807Y-126588857D01*
X178404802Y-126588855D01*
X178259001Y-126557865D01*
X178219646Y-126549500D01*
X178030354Y-126549500D01*
X177997897Y-126556398D01*
X177845197Y-126588855D01*
X177845192Y-126588857D01*
X177672270Y-126665848D01*
X177672265Y-126665851D01*
X177519129Y-126777111D01*
X177392466Y-126917785D01*
X177297821Y-127081715D01*
X177297818Y-127081722D01*
X177239327Y-127261740D01*
X177239326Y-127261744D01*
X177219540Y-127450000D01*
X159800500Y-127450000D01*
X159800500Y-124825000D01*
X199044540Y-124825000D01*
X199064326Y-125013256D01*
X199064327Y-125013259D01*
X199122818Y-125193277D01*
X199122821Y-125193284D01*
X199217467Y-125357216D01*
X199337665Y-125490709D01*
X199344129Y-125497888D01*
X199497265Y-125609148D01*
X199497270Y-125609151D01*
X199670192Y-125686142D01*
X199670197Y-125686144D01*
X199855354Y-125725500D01*
X199855355Y-125725500D01*
X200044644Y-125725500D01*
X200044646Y-125725500D01*
X200229803Y-125686144D01*
X200402730Y-125609151D01*
X200555871Y-125497888D01*
X200682533Y-125357216D01*
X200777179Y-125193284D01*
X200835674Y-125013256D01*
X200855460Y-124825000D01*
X200835674Y-124636744D01*
X200777179Y-124456716D01*
X200682533Y-124292784D01*
X200555871Y-124152112D01*
X200532722Y-124135293D01*
X200402734Y-124040851D01*
X200402729Y-124040848D01*
X200229807Y-123963857D01*
X200229802Y-123963855D01*
X200084001Y-123932865D01*
X200044646Y-123924500D01*
X199855354Y-123924500D01*
X199822897Y-123931398D01*
X199670197Y-123963855D01*
X199670192Y-123963857D01*
X199497270Y-124040848D01*
X199497265Y-124040851D01*
X199344129Y-124152111D01*
X199217466Y-124292785D01*
X199122821Y-124456715D01*
X199122818Y-124456722D01*
X199064327Y-124636740D01*
X199064326Y-124636744D01*
X199044540Y-124825000D01*
X159800500Y-124825000D01*
X159800500Y-120504875D01*
X159800882Y-120495146D01*
X159815733Y-120306440D01*
X159818775Y-120287229D01*
X159861826Y-120107910D01*
X159867832Y-120089425D01*
X159938404Y-119919050D01*
X159947237Y-119901716D01*
X160043582Y-119744495D01*
X160055019Y-119728753D01*
X160174781Y-119588530D01*
X160188530Y-119574781D01*
X160328755Y-119455017D01*
X160344495Y-119443582D01*
X160501719Y-119347235D01*
X160519050Y-119338404D01*
X160689425Y-119267832D01*
X160707910Y-119261826D01*
X160887229Y-119218775D01*
X160906434Y-119215733D01*
X161095146Y-119200881D01*
X161104875Y-119200500D01*
X162405026Y-119200500D01*
X162405030Y-119200500D01*
X162611899Y-119164024D01*
X162809291Y-119092179D01*
X162991209Y-118987149D01*
X163071182Y-118920042D01*
X163135187Y-118892031D01*
X163204179Y-118903070D01*
X163256251Y-118949656D01*
X163258271Y-118953029D01*
X163259531Y-118955212D01*
X163324788Y-119020469D01*
X163324791Y-119020470D01*
X163324794Y-119020473D01*
X163404706Y-119066611D01*
X163404707Y-119066611D01*
X163404712Y-119066614D01*
X163493856Y-119090500D01*
X163493858Y-119090500D01*
X163586142Y-119090500D01*
X163586144Y-119090500D01*
X163675288Y-119066614D01*
X163755212Y-119020469D01*
X163820469Y-118955212D01*
X163820469Y-118955211D01*
X163826216Y-118949465D01*
X163828387Y-118951636D01*
X163873031Y-118919026D01*
X163942776Y-118914859D01*
X164003703Y-118949060D01*
X164005805Y-118951486D01*
X164009531Y-118955212D01*
X164074788Y-119020469D01*
X164074791Y-119020470D01*
X164074794Y-119020473D01*
X164154706Y-119066611D01*
X164154707Y-119066611D01*
X164154712Y-119066614D01*
X164243856Y-119090500D01*
X164243858Y-119090500D01*
X164336142Y-119090500D01*
X164336144Y-119090500D01*
X164425288Y-119066614D01*
X164505212Y-119020469D01*
X164570469Y-118955212D01*
X164570469Y-118955211D01*
X164576216Y-118949465D01*
X164578387Y-118951636D01*
X164623031Y-118919026D01*
X164692776Y-118914859D01*
X164753703Y-118949060D01*
X164755805Y-118951486D01*
X164759531Y-118955212D01*
X164824788Y-119020469D01*
X164824791Y-119020470D01*
X164824794Y-119020473D01*
X164904706Y-119066611D01*
X164904707Y-119066611D01*
X164904712Y-119066614D01*
X164993856Y-119090500D01*
X164993858Y-119090500D01*
X165086142Y-119090500D01*
X165086144Y-119090500D01*
X165175288Y-119066614D01*
X165255212Y-119020469D01*
X165320469Y-118955212D01*
X165328254Y-118941727D01*
X165378821Y-118893512D01*
X165447428Y-118880289D01*
X165512293Y-118906258D01*
X165515330Y-118908725D01*
X165608791Y-118987149D01*
X165790709Y-119092179D01*
X165988101Y-119164024D01*
X166194970Y-119200500D01*
X166194974Y-119200500D01*
X179705026Y-119200500D01*
X179705030Y-119200500D01*
X179911899Y-119164024D01*
X180109291Y-119092179D01*
X180291209Y-118987149D01*
X180371182Y-118920042D01*
X180435187Y-118892031D01*
X180504179Y-118903070D01*
X180556251Y-118949656D01*
X180558271Y-118953029D01*
X180559531Y-118955212D01*
X180624788Y-119020469D01*
X180624791Y-119020470D01*
X180624794Y-119020473D01*
X180704706Y-119066611D01*
X180704707Y-119066611D01*
X180704712Y-119066614D01*
X180793856Y-119090500D01*
X180793858Y-119090500D01*
X180886142Y-119090500D01*
X180886144Y-119090500D01*
X180975288Y-119066614D01*
X181055212Y-119020469D01*
X181120469Y-118955212D01*
X181120469Y-118955211D01*
X181126216Y-118949465D01*
X181128387Y-118951636D01*
X181173031Y-118919026D01*
X181242776Y-118914859D01*
X181303703Y-118949060D01*
X181305805Y-118951486D01*
X181309531Y-118955212D01*
X181374788Y-119020469D01*
X181374791Y-119020470D01*
X181374794Y-119020473D01*
X181454706Y-119066611D01*
X181454707Y-119066611D01*
X181454712Y-119066614D01*
X181543856Y-119090500D01*
X181543858Y-119090500D01*
X181636142Y-119090500D01*
X181636144Y-119090500D01*
X181725288Y-119066614D01*
X181805212Y-119020469D01*
X181870469Y-118955212D01*
X181870469Y-118955211D01*
X181876216Y-118949465D01*
X181878387Y-118951636D01*
X181923031Y-118919026D01*
X181992776Y-118914859D01*
X182053703Y-118949060D01*
X182055805Y-118951486D01*
X182059531Y-118955212D01*
X182124788Y-119020469D01*
X182124791Y-119020470D01*
X182124794Y-119020473D01*
X182204706Y-119066611D01*
X182204707Y-119066611D01*
X182204712Y-119066614D01*
X182293856Y-119090500D01*
X182293858Y-119090500D01*
X182386142Y-119090500D01*
X182386144Y-119090500D01*
X182475288Y-119066614D01*
X182555212Y-119020469D01*
X182620469Y-118955212D01*
X182628254Y-118941727D01*
X182678821Y-118893512D01*
X182747428Y-118880289D01*
X182812293Y-118906258D01*
X182815330Y-118908725D01*
X182908791Y-118987149D01*
X183090709Y-119092179D01*
X183288101Y-119164024D01*
X183494970Y-119200500D01*
X183494974Y-119200500D01*
X197005026Y-119200500D01*
X197005030Y-119200500D01*
X197211899Y-119164024D01*
X197409291Y-119092179D01*
X197591209Y-118987149D01*
X197671182Y-118920042D01*
X197735187Y-118892031D01*
X197804179Y-118903070D01*
X197856251Y-118949656D01*
X197858271Y-118953029D01*
X197859531Y-118955212D01*
X197924788Y-119020469D01*
X197924791Y-119020470D01*
X197924794Y-119020473D01*
X198004706Y-119066611D01*
X198004707Y-119066611D01*
X198004712Y-119066614D01*
X198093856Y-119090500D01*
X198093858Y-119090500D01*
X198186142Y-119090500D01*
X198186144Y-119090500D01*
X198275288Y-119066614D01*
X198355212Y-119020469D01*
X198420469Y-118955212D01*
X198420469Y-118955211D01*
X198426216Y-118949465D01*
X198428387Y-118951636D01*
X198473031Y-118919026D01*
X198542776Y-118914859D01*
X198603703Y-118949060D01*
X198605805Y-118951486D01*
X198609531Y-118955212D01*
X198674788Y-119020469D01*
X198674791Y-119020470D01*
X198674794Y-119020473D01*
X198754706Y-119066611D01*
X198754707Y-119066611D01*
X198754712Y-119066614D01*
X198843856Y-119090500D01*
X198843858Y-119090500D01*
X198936142Y-119090500D01*
X198936144Y-119090500D01*
X199025288Y-119066614D01*
X199105212Y-119020469D01*
X199170469Y-118955212D01*
X199170469Y-118955211D01*
X199176216Y-118949465D01*
X199178387Y-118951636D01*
X199223031Y-118919026D01*
X199292776Y-118914859D01*
X199353703Y-118949060D01*
X199355805Y-118951486D01*
X199359531Y-118955212D01*
X199424788Y-119020469D01*
X199424791Y-119020470D01*
X199424794Y-119020473D01*
X199504706Y-119066611D01*
X199504707Y-119066611D01*
X199504712Y-119066614D01*
X199593856Y-119090500D01*
X199593858Y-119090500D01*
X199686142Y-119090500D01*
X199686144Y-119090500D01*
X199775288Y-119066614D01*
X199855212Y-119020469D01*
X199920469Y-118955212D01*
X199928254Y-118941727D01*
X199978821Y-118893512D01*
X200047428Y-118880289D01*
X200112293Y-118906258D01*
X200115330Y-118908725D01*
X200208791Y-118987149D01*
X200390709Y-119092179D01*
X200588101Y-119164024D01*
X200794970Y-119200500D01*
X200794974Y-119200500D01*
X214305026Y-119200500D01*
X214305030Y-119200500D01*
X214511899Y-119164024D01*
X214709291Y-119092179D01*
X214891209Y-118987149D01*
X214971182Y-118920042D01*
X215035187Y-118892031D01*
X215104179Y-118903070D01*
X215156251Y-118949656D01*
X215158271Y-118953029D01*
X215159531Y-118955212D01*
X215224788Y-119020469D01*
X215224791Y-119020470D01*
X215224794Y-119020473D01*
X215304706Y-119066611D01*
X215304707Y-119066611D01*
X215304712Y-119066614D01*
X215393856Y-119090500D01*
X215393858Y-119090500D01*
X215486142Y-119090500D01*
X215486144Y-119090500D01*
X215575288Y-119066614D01*
X215655212Y-119020469D01*
X215720469Y-118955212D01*
X215720469Y-118955211D01*
X215726216Y-118949465D01*
X215728387Y-118951636D01*
X215773031Y-118919026D01*
X215842776Y-118914859D01*
X215903703Y-118949060D01*
X215905805Y-118951486D01*
X215909531Y-118955212D01*
X215974788Y-119020469D01*
X215974791Y-119020470D01*
X215974794Y-119020473D01*
X216054706Y-119066611D01*
X216054707Y-119066611D01*
X216054712Y-119066614D01*
X216143856Y-119090500D01*
X216143858Y-119090500D01*
X216236142Y-119090500D01*
X216236144Y-119090500D01*
X216325288Y-119066614D01*
X216405212Y-119020469D01*
X216470469Y-118955212D01*
X216470469Y-118955211D01*
X216476216Y-118949465D01*
X216478387Y-118951636D01*
X216523031Y-118919026D01*
X216592776Y-118914859D01*
X216653703Y-118949060D01*
X216655805Y-118951486D01*
X216659531Y-118955212D01*
X216724788Y-119020469D01*
X216724791Y-119020470D01*
X216724794Y-119020473D01*
X216804706Y-119066611D01*
X216804707Y-119066611D01*
X216804712Y-119066614D01*
X216893856Y-119090500D01*
X216893858Y-119090500D01*
X216986142Y-119090500D01*
X216986144Y-119090500D01*
X217075288Y-119066614D01*
X217155212Y-119020469D01*
X217220469Y-118955212D01*
X217228254Y-118941727D01*
X217278821Y-118893512D01*
X217347428Y-118880289D01*
X217412293Y-118906258D01*
G37*
%TD.AperFunction*%
%TD*%
%TA.AperFunction,Conductor*%
%TO.N,5V2*%
G36*
X248472915Y-118915171D02*
G01*
X248475972Y-118917655D01*
X248558791Y-118987149D01*
X248740709Y-119092179D01*
X248938101Y-119164024D01*
X249144970Y-119200500D01*
X249210118Y-119200500D01*
X253160118Y-119200500D01*
X253195125Y-119200500D01*
X253204853Y-119200881D01*
X253393563Y-119215733D01*
X253412772Y-119218776D01*
X253592085Y-119261825D01*
X253610577Y-119267833D01*
X253746833Y-119324272D01*
X253780946Y-119338403D01*
X253798283Y-119347237D01*
X253955504Y-119443582D01*
X253971246Y-119455019D01*
X254111464Y-119574777D01*
X254125222Y-119588535D01*
X254244980Y-119728753D01*
X254256417Y-119744495D01*
X254352762Y-119901716D01*
X254361596Y-119919053D01*
X254432163Y-120089415D01*
X254438176Y-120107921D01*
X254481222Y-120287222D01*
X254484266Y-120306440D01*
X254499118Y-120495146D01*
X254499500Y-120504875D01*
X254499500Y-199495124D01*
X254499118Y-199504853D01*
X254484266Y-199693559D01*
X254481222Y-199712777D01*
X254438176Y-199892078D01*
X254432163Y-199910584D01*
X254361596Y-200080946D01*
X254352762Y-200098283D01*
X254256417Y-200255504D01*
X254244980Y-200271246D01*
X254125222Y-200411464D01*
X254111464Y-200425222D01*
X253971246Y-200544980D01*
X253955504Y-200556417D01*
X253798283Y-200652762D01*
X253780946Y-200661596D01*
X253610584Y-200732163D01*
X253592078Y-200738176D01*
X253412777Y-200781222D01*
X253393559Y-200784266D01*
X253204854Y-200799118D01*
X253195125Y-200799500D01*
X249144967Y-200799500D01*
X248938101Y-200835975D01*
X248740711Y-200907820D01*
X248740704Y-200907823D01*
X248558794Y-201012848D01*
X248479862Y-201079081D01*
X248415853Y-201107093D01*
X248346861Y-201096054D01*
X248294790Y-201049467D01*
X248292770Y-201046093D01*
X248283787Y-201030535D01*
X248280469Y-201024788D01*
X248215212Y-200959531D01*
X248215209Y-200959529D01*
X248215205Y-200959526D01*
X248135293Y-200913388D01*
X248135290Y-200913387D01*
X248135289Y-200913386D01*
X248135288Y-200913386D01*
X248046144Y-200889500D01*
X247953856Y-200889500D01*
X247864712Y-200913386D01*
X247864711Y-200913386D01*
X247864709Y-200913387D01*
X247864706Y-200913388D01*
X247784794Y-200959526D01*
X247784785Y-200959533D01*
X247713784Y-201030535D01*
X247711616Y-201028367D01*
X247666930Y-201060987D01*
X247597183Y-201065131D01*
X247536268Y-201030909D01*
X247534178Y-201028497D01*
X247465214Y-200959533D01*
X247465212Y-200959531D01*
X247465209Y-200959529D01*
X247465205Y-200959526D01*
X247385293Y-200913388D01*
X247385290Y-200913387D01*
X247385289Y-200913386D01*
X247385288Y-200913386D01*
X247296144Y-200889500D01*
X247203856Y-200889500D01*
X247114712Y-200913386D01*
X247114711Y-200913386D01*
X247114709Y-200913387D01*
X247114706Y-200913388D01*
X247034794Y-200959526D01*
X247034785Y-200959533D01*
X246963784Y-201030535D01*
X246961616Y-201028367D01*
X246916930Y-201060987D01*
X246847183Y-201065131D01*
X246786268Y-201030909D01*
X246784178Y-201028497D01*
X246715214Y-200959533D01*
X246715212Y-200959531D01*
X246715209Y-200959529D01*
X246715205Y-200959526D01*
X246635293Y-200913388D01*
X246635290Y-200913387D01*
X246635289Y-200913386D01*
X246635288Y-200913386D01*
X246546144Y-200889500D01*
X246453856Y-200889500D01*
X246364712Y-200913386D01*
X246364711Y-200913386D01*
X246364709Y-200913387D01*
X246364706Y-200913388D01*
X246284794Y-200959526D01*
X246284785Y-200959533D01*
X246219533Y-201024785D01*
X246219528Y-201024791D01*
X246216951Y-201029256D01*
X246166381Y-201077469D01*
X246097773Y-201090688D01*
X246032910Y-201064716D01*
X246029861Y-201062239D01*
X245941212Y-200987853D01*
X245941210Y-200987851D01*
X245941209Y-200987851D01*
X245812233Y-200913387D01*
X245759295Y-200882823D01*
X245759292Y-200882822D01*
X245759291Y-200882821D01*
X245734364Y-200873748D01*
X245561898Y-200810975D01*
X245355032Y-200774500D01*
X245355030Y-200774500D01*
X245301984Y-200774500D01*
X245300994Y-200774403D01*
X245249605Y-200774500D01*
X245198775Y-200774500D01*
X245197789Y-200774596D01*
X231949641Y-200799500D01*
X231844967Y-200799500D01*
X231638101Y-200835975D01*
X231440711Y-200907820D01*
X231440704Y-200907823D01*
X231258794Y-201012848D01*
X231179862Y-201079081D01*
X231115853Y-201107093D01*
X231046861Y-201096054D01*
X230994790Y-201049467D01*
X230992770Y-201046093D01*
X230983787Y-201030535D01*
X230980469Y-201024788D01*
X230915212Y-200959531D01*
X230915209Y-200959529D01*
X230915205Y-200959526D01*
X230835293Y-200913388D01*
X230835290Y-200913387D01*
X230835289Y-200913386D01*
X230835288Y-200913386D01*
X230746144Y-200889500D01*
X230653856Y-200889500D01*
X230564712Y-200913386D01*
X230564711Y-200913386D01*
X230564709Y-200913387D01*
X230564706Y-200913388D01*
X230484794Y-200959526D01*
X230484785Y-200959533D01*
X230413784Y-201030535D01*
X230411616Y-201028367D01*
X230366930Y-201060987D01*
X230297183Y-201065131D01*
X230236268Y-201030909D01*
X230234178Y-201028497D01*
X230165214Y-200959533D01*
X230165212Y-200959531D01*
X230165209Y-200959529D01*
X230165205Y-200959526D01*
X230085293Y-200913388D01*
X230085290Y-200913387D01*
X230085289Y-200913386D01*
X230085288Y-200913386D01*
X229996144Y-200889500D01*
X229903856Y-200889500D01*
X229814712Y-200913386D01*
X229814711Y-200913386D01*
X229814709Y-200913387D01*
X229814706Y-200913388D01*
X229734794Y-200959526D01*
X229734785Y-200959533D01*
X229663784Y-201030535D01*
X229661616Y-201028367D01*
X229616930Y-201060987D01*
X229547183Y-201065131D01*
X229486268Y-201030909D01*
X229484178Y-201028497D01*
X229415214Y-200959533D01*
X229415212Y-200959531D01*
X229415209Y-200959529D01*
X229415205Y-200959526D01*
X229335293Y-200913388D01*
X229335290Y-200913387D01*
X229335289Y-200913386D01*
X229335288Y-200913386D01*
X229246144Y-200889500D01*
X229153856Y-200889500D01*
X229064712Y-200913386D01*
X229064711Y-200913386D01*
X229064709Y-200913387D01*
X229064706Y-200913388D01*
X228984794Y-200959526D01*
X228984785Y-200959533D01*
X228919533Y-201024785D01*
X228919526Y-201024794D01*
X228907227Y-201046096D01*
X228856658Y-201094309D01*
X228788050Y-201107529D01*
X228723187Y-201081558D01*
X228720137Y-201079080D01*
X228662284Y-201030535D01*
X228641209Y-201012851D01*
X228548847Y-200959526D01*
X228459295Y-200907823D01*
X228459292Y-200907822D01*
X228459291Y-200907821D01*
X228390610Y-200882823D01*
X228261898Y-200835975D01*
X228055032Y-200799500D01*
X228055030Y-200799500D01*
X227989882Y-200799500D01*
X224304875Y-200799500D01*
X224295146Y-200799118D01*
X224106440Y-200784266D01*
X224087222Y-200781222D01*
X223907921Y-200738176D01*
X223889415Y-200732163D01*
X223719053Y-200661596D01*
X223701716Y-200652762D01*
X223544495Y-200556417D01*
X223528753Y-200544980D01*
X223388535Y-200425222D01*
X223374777Y-200411464D01*
X223255019Y-200271246D01*
X223243582Y-200255504D01*
X223147237Y-200098283D01*
X223138403Y-200080946D01*
X223124272Y-200046833D01*
X223067833Y-199910577D01*
X223061825Y-199892085D01*
X223018776Y-199712772D01*
X223015733Y-199693559D01*
X223000882Y-199504853D01*
X223000500Y-199495124D01*
X223000500Y-195094974D01*
X223000500Y-195094970D01*
X222964024Y-194888101D01*
X222892179Y-194690709D01*
X222787149Y-194508791D01*
X222717655Y-194425972D01*
X222689642Y-194361964D01*
X222700681Y-194292972D01*
X222747267Y-194240900D01*
X222750587Y-194238912D01*
X222765212Y-194230469D01*
X222830469Y-194165212D01*
X222876614Y-194085288D01*
X222900500Y-193996144D01*
X222900500Y-193903856D01*
X222876614Y-193814712D01*
X222876611Y-193814706D01*
X222830473Y-193734794D01*
X222830470Y-193734791D01*
X222830469Y-193734788D01*
X222765212Y-193669531D01*
X222759465Y-193663784D01*
X222761636Y-193661612D01*
X222729026Y-193616969D01*
X222724859Y-193547224D01*
X222759060Y-193486297D01*
X222761486Y-193484194D01*
X222765209Y-193480470D01*
X222765212Y-193480469D01*
X222830469Y-193415212D01*
X222876614Y-193335288D01*
X222900500Y-193246144D01*
X222900500Y-193153856D01*
X222876614Y-193064712D01*
X222876611Y-193064706D01*
X222830473Y-192984794D01*
X222830470Y-192984791D01*
X222830469Y-192984788D01*
X222765212Y-192919531D01*
X222759465Y-192913784D01*
X222761636Y-192911612D01*
X222729026Y-192866969D01*
X222724859Y-192797224D01*
X222759060Y-192736297D01*
X222761486Y-192734194D01*
X222765209Y-192730470D01*
X222765212Y-192730469D01*
X222830469Y-192665212D01*
X222876614Y-192585288D01*
X222900500Y-192496144D01*
X222900500Y-192403856D01*
X222876614Y-192314712D01*
X222876611Y-192314706D01*
X222830473Y-192234794D01*
X222830470Y-192234791D01*
X222830469Y-192234788D01*
X222765212Y-192169531D01*
X222750641Y-192161118D01*
X222702428Y-192110552D01*
X222689206Y-192041945D01*
X222715174Y-191977081D01*
X222717606Y-191974086D01*
X222787149Y-191891209D01*
X222892179Y-191709291D01*
X222964024Y-191511899D01*
X223000500Y-191305030D01*
X223000500Y-191200000D01*
X223000500Y-191160118D01*
X223000500Y-189750000D01*
X238444540Y-189750000D01*
X238464326Y-189938256D01*
X238464327Y-189938259D01*
X238522818Y-190118277D01*
X238522821Y-190118284D01*
X238617467Y-190282216D01*
X238744129Y-190422888D01*
X238897265Y-190534148D01*
X238897270Y-190534151D01*
X239070192Y-190611142D01*
X239070197Y-190611144D01*
X239255354Y-190650500D01*
X239255355Y-190650500D01*
X239444644Y-190650500D01*
X239444646Y-190650500D01*
X239629803Y-190611144D01*
X239802730Y-190534151D01*
X239955871Y-190422888D01*
X240082533Y-190282216D01*
X240177179Y-190118284D01*
X240235674Y-189938256D01*
X240255460Y-189750000D01*
X240235674Y-189561744D01*
X240177179Y-189381716D01*
X240082533Y-189217784D01*
X239955871Y-189077112D01*
X239955870Y-189077111D01*
X239802734Y-188965851D01*
X239802729Y-188965848D01*
X239629807Y-188888857D01*
X239629802Y-188888855D01*
X239484001Y-188857865D01*
X239444646Y-188849500D01*
X239255354Y-188849500D01*
X239222897Y-188856398D01*
X239070197Y-188888855D01*
X239070192Y-188888857D01*
X238897270Y-188965848D01*
X238897265Y-188965851D01*
X238744129Y-189077111D01*
X238617466Y-189217785D01*
X238522821Y-189381715D01*
X238522818Y-189381722D01*
X238464327Y-189561740D01*
X238464326Y-189561744D01*
X238444540Y-189750000D01*
X223000500Y-189750000D01*
X223000500Y-186900000D01*
X238444540Y-186900000D01*
X238464326Y-187088256D01*
X238464327Y-187088259D01*
X238522818Y-187268277D01*
X238522821Y-187268284D01*
X238617467Y-187432216D01*
X238744129Y-187572888D01*
X238897265Y-187684148D01*
X238897270Y-187684151D01*
X239070192Y-187761142D01*
X239070197Y-187761144D01*
X239255354Y-187800500D01*
X239255355Y-187800500D01*
X239444644Y-187800500D01*
X239444646Y-187800500D01*
X239629803Y-187761144D01*
X239802730Y-187684151D01*
X239955871Y-187572888D01*
X240082533Y-187432216D01*
X240177179Y-187268284D01*
X240235674Y-187088256D01*
X240255460Y-186900000D01*
X240235674Y-186711744D01*
X240177179Y-186531716D01*
X240082533Y-186367784D01*
X239955871Y-186227112D01*
X239955870Y-186227111D01*
X239802734Y-186115851D01*
X239802729Y-186115848D01*
X239629807Y-186038857D01*
X239629802Y-186038855D01*
X239484001Y-186007865D01*
X239444646Y-185999500D01*
X239255354Y-185999500D01*
X239222897Y-186006398D01*
X239070197Y-186038855D01*
X239070192Y-186038857D01*
X238897270Y-186115848D01*
X238897265Y-186115851D01*
X238744129Y-186227111D01*
X238617466Y-186367785D01*
X238522821Y-186531715D01*
X238522818Y-186531722D01*
X238464327Y-186711740D01*
X238464326Y-186711744D01*
X238444540Y-186900000D01*
X223000500Y-186900000D01*
X223000500Y-177860118D01*
X223000500Y-177794970D01*
X222964024Y-177588101D01*
X222892179Y-177390709D01*
X222787149Y-177208791D01*
X222717655Y-177125972D01*
X222689642Y-177061964D01*
X222700681Y-176992972D01*
X222747267Y-176940900D01*
X222750587Y-176938912D01*
X222765212Y-176930469D01*
X222830469Y-176865212D01*
X222876614Y-176785288D01*
X222900500Y-176696144D01*
X222900500Y-176603856D01*
X222876614Y-176514712D01*
X222876611Y-176514706D01*
X222830473Y-176434794D01*
X222830470Y-176434791D01*
X222830469Y-176434788D01*
X222765212Y-176369531D01*
X222759465Y-176363784D01*
X222761636Y-176361612D01*
X222729026Y-176316969D01*
X222724859Y-176247224D01*
X222759060Y-176186297D01*
X222761486Y-176184194D01*
X222765209Y-176180470D01*
X222765212Y-176180469D01*
X222830469Y-176115212D01*
X222876614Y-176035288D01*
X222900500Y-175946144D01*
X222900500Y-175853856D01*
X222876614Y-175764712D01*
X222876611Y-175764706D01*
X222830473Y-175684794D01*
X222830470Y-175684791D01*
X222830469Y-175684788D01*
X222765212Y-175619531D01*
X222759465Y-175613784D01*
X222761636Y-175611612D01*
X222729026Y-175566969D01*
X222724859Y-175497224D01*
X222759060Y-175436297D01*
X222761486Y-175434194D01*
X222765209Y-175430470D01*
X222765212Y-175430469D01*
X222830469Y-175365212D01*
X222876614Y-175285288D01*
X222900500Y-175196144D01*
X222900500Y-175103856D01*
X222876614Y-175014712D01*
X222876611Y-175014706D01*
X222830473Y-174934794D01*
X222830470Y-174934791D01*
X222830469Y-174934788D01*
X222765212Y-174869531D01*
X222750641Y-174861118D01*
X222702428Y-174810552D01*
X222689206Y-174741945D01*
X222715174Y-174677081D01*
X222717606Y-174674086D01*
X222787149Y-174591209D01*
X222892179Y-174409291D01*
X222964024Y-174211899D01*
X223000500Y-174005030D01*
X223000500Y-173900000D01*
X223000500Y-173860118D01*
X223000500Y-172075000D01*
X232144540Y-172075000D01*
X232164326Y-172263256D01*
X232164327Y-172263259D01*
X232222818Y-172443277D01*
X232222821Y-172443284D01*
X232317467Y-172607216D01*
X232444129Y-172747888D01*
X232597265Y-172859148D01*
X232597270Y-172859151D01*
X232770192Y-172936142D01*
X232770197Y-172936144D01*
X232955354Y-172975500D01*
X232955355Y-172975500D01*
X233144644Y-172975500D01*
X233144646Y-172975500D01*
X233329803Y-172936144D01*
X233502730Y-172859151D01*
X233655871Y-172747888D01*
X233782533Y-172607216D01*
X233877179Y-172443284D01*
X233935674Y-172263256D01*
X233955460Y-172075000D01*
X233935674Y-171886744D01*
X233877179Y-171706716D01*
X233782533Y-171542784D01*
X233655871Y-171402112D01*
X233655870Y-171402111D01*
X233502734Y-171290851D01*
X233502729Y-171290848D01*
X233329807Y-171213857D01*
X233329802Y-171213855D01*
X233184001Y-171182865D01*
X233144646Y-171174500D01*
X232955354Y-171174500D01*
X232922897Y-171181398D01*
X232770197Y-171213855D01*
X232770192Y-171213857D01*
X232597270Y-171290848D01*
X232597265Y-171290851D01*
X232444129Y-171402111D01*
X232317466Y-171542785D01*
X232222821Y-171706715D01*
X232222818Y-171706722D01*
X232164327Y-171886740D01*
X232164326Y-171886744D01*
X232144540Y-172075000D01*
X223000500Y-172075000D01*
X223000500Y-166875000D01*
X238444540Y-166875000D01*
X238464326Y-167063256D01*
X238464327Y-167063259D01*
X238522818Y-167243277D01*
X238522821Y-167243284D01*
X238617467Y-167407216D01*
X238744129Y-167547888D01*
X238847355Y-167622886D01*
X238867032Y-167637182D01*
X238909697Y-167692512D01*
X238915676Y-167762125D01*
X238883070Y-167823920D01*
X238867032Y-167837818D01*
X238744127Y-167927113D01*
X238617466Y-168067785D01*
X238522821Y-168231715D01*
X238522818Y-168231722D01*
X238464327Y-168411740D01*
X238464326Y-168411744D01*
X238444540Y-168600000D01*
X238464326Y-168788256D01*
X238464327Y-168788259D01*
X238522818Y-168968277D01*
X238522821Y-168968284D01*
X238617467Y-169132216D01*
X238744129Y-169272888D01*
X238897265Y-169384148D01*
X238897270Y-169384151D01*
X239070192Y-169461142D01*
X239070197Y-169461144D01*
X239255354Y-169500500D01*
X239255355Y-169500500D01*
X239444644Y-169500500D01*
X239444646Y-169500500D01*
X239629803Y-169461144D01*
X239802730Y-169384151D01*
X239955871Y-169272888D01*
X240082533Y-169132216D01*
X240177179Y-168968284D01*
X240235674Y-168788256D01*
X240255460Y-168600000D01*
X240235674Y-168411744D01*
X240177179Y-168231716D01*
X240082533Y-168067784D01*
X239955871Y-167927112D01*
X239832968Y-167837818D01*
X239790302Y-167782488D01*
X239784323Y-167712875D01*
X239816928Y-167651080D01*
X239832968Y-167637182D01*
X239848390Y-167625977D01*
X239955871Y-167547888D01*
X240082533Y-167407216D01*
X240177179Y-167243284D01*
X240235674Y-167063256D01*
X240255460Y-166875000D01*
X240235674Y-166686744D01*
X240177179Y-166506716D01*
X240082533Y-166342784D01*
X239955871Y-166202112D01*
X239955870Y-166202111D01*
X239802734Y-166090851D01*
X239802729Y-166090848D01*
X239629807Y-166013857D01*
X239629802Y-166013855D01*
X239484001Y-165982865D01*
X239444646Y-165974500D01*
X239255354Y-165974500D01*
X239222897Y-165981398D01*
X239070197Y-166013855D01*
X239070192Y-166013857D01*
X238897270Y-166090848D01*
X238897265Y-166090851D01*
X238744129Y-166202111D01*
X238617466Y-166342785D01*
X238522821Y-166506715D01*
X238522818Y-166506722D01*
X238464327Y-166686740D01*
X238464326Y-166686744D01*
X238444540Y-166875000D01*
X223000500Y-166875000D01*
X223000500Y-160560118D01*
X223000500Y-160494970D01*
X222964024Y-160288101D01*
X222892179Y-160090709D01*
X222839808Y-159999999D01*
X224224341Y-159999999D01*
X224224341Y-160000000D01*
X224244936Y-160235403D01*
X224244938Y-160235413D01*
X224306094Y-160463655D01*
X224306096Y-160463659D01*
X224306097Y-160463663D01*
X224320696Y-160494970D01*
X224405965Y-160677830D01*
X224405967Y-160677834D01*
X224541501Y-160871395D01*
X224541506Y-160871402D01*
X224708597Y-161038493D01*
X224708603Y-161038498D01*
X224894594Y-161168730D01*
X224938219Y-161223307D01*
X224945413Y-161292805D01*
X224913890Y-161355160D01*
X224894595Y-161371880D01*
X224708922Y-161501890D01*
X224708920Y-161501891D01*
X224541891Y-161668920D01*
X224541886Y-161668926D01*
X224406400Y-161862420D01*
X224406399Y-161862422D01*
X224306570Y-162076507D01*
X224306567Y-162076513D01*
X224249364Y-162289999D01*
X224249364Y-162290000D01*
X225146988Y-162290000D01*
X225114075Y-162347007D01*
X225080000Y-162474174D01*
X225080000Y-162605826D01*
X225114075Y-162732993D01*
X225146988Y-162790000D01*
X224249364Y-162790000D01*
X224306567Y-163003486D01*
X224306570Y-163003492D01*
X224406399Y-163217578D01*
X224541894Y-163411082D01*
X224708917Y-163578105D01*
X224902421Y-163713600D01*
X225116507Y-163813429D01*
X225116516Y-163813433D01*
X225330000Y-163870634D01*
X225330000Y-162973012D01*
X225387007Y-163005925D01*
X225514174Y-163040000D01*
X225645826Y-163040000D01*
X225772993Y-163005925D01*
X225830000Y-162973012D01*
X225830000Y-163870633D01*
X226043483Y-163813433D01*
X226043492Y-163813429D01*
X226257578Y-163713600D01*
X226451082Y-163578105D01*
X226618105Y-163411082D01*
X226753600Y-163217578D01*
X226853429Y-163003492D01*
X226853432Y-163003486D01*
X226910636Y-162790000D01*
X226013012Y-162790000D01*
X226045925Y-162732993D01*
X226080000Y-162605826D01*
X226080000Y-162474174D01*
X226045925Y-162347007D01*
X226013012Y-162290000D01*
X226910636Y-162290000D01*
X226910635Y-162289999D01*
X226853432Y-162076513D01*
X226853429Y-162076507D01*
X226753600Y-161862422D01*
X226753599Y-161862420D01*
X226618113Y-161668926D01*
X226618108Y-161668920D01*
X226451078Y-161501890D01*
X226265405Y-161371879D01*
X226221780Y-161317302D01*
X226214588Y-161247804D01*
X226246110Y-161185449D01*
X226265406Y-161168730D01*
X226451401Y-161038495D01*
X226618495Y-160871401D01*
X226754035Y-160677830D01*
X226853903Y-160463663D01*
X226915063Y-160235408D01*
X226935659Y-160000000D01*
X226935659Y-159999999D01*
X250514341Y-159999999D01*
X250514341Y-160000000D01*
X250534936Y-160235403D01*
X250534938Y-160235413D01*
X250596094Y-160463655D01*
X250596096Y-160463659D01*
X250596097Y-160463663D01*
X250610696Y-160494970D01*
X250695965Y-160677830D01*
X250695967Y-160677834D01*
X250831501Y-160871395D01*
X250831506Y-160871402D01*
X250998597Y-161038493D01*
X250998603Y-161038498D01*
X251184594Y-161168730D01*
X251228219Y-161223307D01*
X251235413Y-161292805D01*
X251203890Y-161355160D01*
X251184595Y-161371880D01*
X250998922Y-161501890D01*
X250998920Y-161501891D01*
X250831891Y-161668920D01*
X250831886Y-161668926D01*
X250696400Y-161862420D01*
X250696399Y-161862422D01*
X250596570Y-162076507D01*
X250596567Y-162076513D01*
X250539364Y-162289999D01*
X250539364Y-162290000D01*
X251436988Y-162290000D01*
X251404075Y-162347007D01*
X251370000Y-162474174D01*
X251370000Y-162605826D01*
X251404075Y-162732993D01*
X251436988Y-162790000D01*
X250539364Y-162790000D01*
X250596567Y-163003486D01*
X250596570Y-163003492D01*
X250696399Y-163217578D01*
X250831894Y-163411082D01*
X250998917Y-163578105D01*
X251192421Y-163713600D01*
X251406507Y-163813429D01*
X251406516Y-163813433D01*
X251620000Y-163870634D01*
X251620000Y-162973012D01*
X251677007Y-163005925D01*
X251804174Y-163040000D01*
X251935826Y-163040000D01*
X252062993Y-163005925D01*
X252120000Y-162973012D01*
X252120000Y-163870633D01*
X252333483Y-163813433D01*
X252333492Y-163813429D01*
X252547578Y-163713600D01*
X252741082Y-163578105D01*
X252908105Y-163411082D01*
X253043600Y-163217578D01*
X253143429Y-163003492D01*
X253143432Y-163003486D01*
X253200636Y-162790000D01*
X252303012Y-162790000D01*
X252335925Y-162732993D01*
X252370000Y-162605826D01*
X252370000Y-162474174D01*
X252335925Y-162347007D01*
X252303012Y-162290000D01*
X253200636Y-162290000D01*
X253200635Y-162289999D01*
X253143432Y-162076513D01*
X253143429Y-162076507D01*
X253043600Y-161862422D01*
X253043599Y-161862420D01*
X252908113Y-161668926D01*
X252908108Y-161668920D01*
X252741078Y-161501890D01*
X252555405Y-161371879D01*
X252511780Y-161317302D01*
X252504588Y-161247804D01*
X252536110Y-161185449D01*
X252555406Y-161168730D01*
X252741401Y-161038495D01*
X252908495Y-160871401D01*
X253044035Y-160677830D01*
X253143903Y-160463663D01*
X253205063Y-160235408D01*
X253225659Y-160000000D01*
X253205063Y-159764592D01*
X253158626Y-159591285D01*
X253143905Y-159536344D01*
X253143904Y-159536343D01*
X253143903Y-159536337D01*
X253044035Y-159322171D01*
X253031212Y-159303858D01*
X252908496Y-159128600D01*
X252849427Y-159069531D01*
X252786567Y-159006671D01*
X252753084Y-158945351D01*
X252758068Y-158875659D01*
X252799939Y-158819725D01*
X252830915Y-158802810D01*
X252962331Y-158753796D01*
X253077546Y-158667546D01*
X253163796Y-158552331D01*
X253214091Y-158417483D01*
X253220500Y-158357873D01*
X253220499Y-156562128D01*
X253214091Y-156502517D01*
X253208089Y-156486426D01*
X253163797Y-156367671D01*
X253163793Y-156367664D01*
X253077547Y-156252455D01*
X253077544Y-156252452D01*
X252962335Y-156166206D01*
X252962328Y-156166202D01*
X252827482Y-156115908D01*
X252827483Y-156115908D01*
X252767883Y-156109501D01*
X252767881Y-156109500D01*
X252767873Y-156109500D01*
X252767864Y-156109500D01*
X250972129Y-156109500D01*
X250972123Y-156109501D01*
X250912516Y-156115908D01*
X250777671Y-156166202D01*
X250777664Y-156166206D01*
X250662455Y-156252452D01*
X250662452Y-156252455D01*
X250576206Y-156367664D01*
X250576202Y-156367671D01*
X250525908Y-156502517D01*
X250519716Y-156560118D01*
X250519501Y-156562123D01*
X250519500Y-156562135D01*
X250519500Y-158357870D01*
X250519501Y-158357876D01*
X250525908Y-158417483D01*
X250576202Y-158552328D01*
X250576206Y-158552335D01*
X250662452Y-158667544D01*
X250662455Y-158667547D01*
X250777664Y-158753793D01*
X250777671Y-158753797D01*
X250909081Y-158802810D01*
X250965015Y-158844681D01*
X250989432Y-158910145D01*
X250974580Y-158978418D01*
X250953430Y-159006673D01*
X250831503Y-159128600D01*
X250695965Y-159322169D01*
X250695964Y-159322171D01*
X250596098Y-159536335D01*
X250596094Y-159536344D01*
X250534938Y-159764586D01*
X250534936Y-159764596D01*
X250514341Y-159999999D01*
X226935659Y-159999999D01*
X226915063Y-159764592D01*
X226868626Y-159591285D01*
X226853905Y-159536344D01*
X226853904Y-159536343D01*
X226853903Y-159536337D01*
X226754035Y-159322171D01*
X226741212Y-159303858D01*
X226618496Y-159128600D01*
X226559427Y-159069531D01*
X226496567Y-159006671D01*
X226463084Y-158945351D01*
X226468068Y-158875659D01*
X226509939Y-158819725D01*
X226540915Y-158802810D01*
X226672331Y-158753796D01*
X226787546Y-158667546D01*
X226873796Y-158552331D01*
X226924091Y-158417483D01*
X226930500Y-158357873D01*
X226930499Y-156562128D01*
X226924091Y-156502517D01*
X226918089Y-156486426D01*
X226873797Y-156367671D01*
X226873793Y-156367664D01*
X226787547Y-156252455D01*
X226787544Y-156252452D01*
X226672335Y-156166206D01*
X226672328Y-156166202D01*
X226537482Y-156115908D01*
X226537483Y-156115908D01*
X226477883Y-156109501D01*
X226477881Y-156109500D01*
X226477873Y-156109500D01*
X226477864Y-156109500D01*
X224682129Y-156109500D01*
X224682123Y-156109501D01*
X224622516Y-156115908D01*
X224487671Y-156166202D01*
X224487664Y-156166206D01*
X224372455Y-156252452D01*
X224372452Y-156252455D01*
X224286206Y-156367664D01*
X224286202Y-156367671D01*
X224235908Y-156502517D01*
X224229716Y-156560118D01*
X224229501Y-156562123D01*
X224229500Y-156562135D01*
X224229500Y-158357870D01*
X224229501Y-158357876D01*
X224235908Y-158417483D01*
X224286202Y-158552328D01*
X224286206Y-158552335D01*
X224372452Y-158667544D01*
X224372455Y-158667547D01*
X224487664Y-158753793D01*
X224487671Y-158753797D01*
X224619081Y-158802810D01*
X224675015Y-158844681D01*
X224699432Y-158910145D01*
X224684580Y-158978418D01*
X224663430Y-159006673D01*
X224541503Y-159128600D01*
X224405965Y-159322169D01*
X224405964Y-159322171D01*
X224306098Y-159536335D01*
X224306094Y-159536344D01*
X224244938Y-159764586D01*
X224244936Y-159764596D01*
X224224341Y-159999999D01*
X222839808Y-159999999D01*
X222787149Y-159908791D01*
X222717655Y-159825972D01*
X222689642Y-159761964D01*
X222700681Y-159692972D01*
X222747267Y-159640900D01*
X222750587Y-159638912D01*
X222765212Y-159630469D01*
X222830469Y-159565212D01*
X222876614Y-159485288D01*
X222900500Y-159396144D01*
X222900500Y-159303856D01*
X222876614Y-159214712D01*
X222876611Y-159214706D01*
X222830473Y-159134794D01*
X222830470Y-159134791D01*
X222830469Y-159134788D01*
X222765212Y-159069531D01*
X222759465Y-159063784D01*
X222761636Y-159061612D01*
X222729026Y-159016969D01*
X222724859Y-158947224D01*
X222759060Y-158886297D01*
X222761486Y-158884194D01*
X222765209Y-158880470D01*
X222765212Y-158880469D01*
X222830469Y-158815212D01*
X222876614Y-158735288D01*
X222900500Y-158646144D01*
X222900500Y-158553856D01*
X222876614Y-158464712D01*
X222849346Y-158417483D01*
X222830473Y-158384794D01*
X222830470Y-158384791D01*
X222830469Y-158384788D01*
X222765212Y-158319531D01*
X222759465Y-158313784D01*
X222761636Y-158311612D01*
X222729026Y-158266969D01*
X222724859Y-158197224D01*
X222759060Y-158136297D01*
X222761486Y-158134194D01*
X222765209Y-158130470D01*
X222765212Y-158130469D01*
X222830469Y-158065212D01*
X222876614Y-157985288D01*
X222900500Y-157896144D01*
X222900500Y-157803856D01*
X222876614Y-157714712D01*
X222876611Y-157714706D01*
X222830473Y-157634794D01*
X222830470Y-157634791D01*
X222830469Y-157634788D01*
X222765212Y-157569531D01*
X222750641Y-157561118D01*
X222702428Y-157510552D01*
X222689206Y-157441945D01*
X222715174Y-157377081D01*
X222717606Y-157374086D01*
X222787149Y-157291209D01*
X222892179Y-157109291D01*
X222964024Y-156911899D01*
X223000500Y-156705030D01*
X223000500Y-156600000D01*
X223000500Y-156560118D01*
X223000500Y-153400000D01*
X238444540Y-153400000D01*
X238464326Y-153588256D01*
X238464327Y-153588259D01*
X238522818Y-153768277D01*
X238522821Y-153768284D01*
X238617467Y-153932216D01*
X238744129Y-154072888D01*
X238897265Y-154184148D01*
X238897270Y-154184151D01*
X239070192Y-154261142D01*
X239070197Y-154261144D01*
X239094030Y-154266210D01*
X239155512Y-154299402D01*
X239189288Y-154360565D01*
X239184636Y-154430280D01*
X239143031Y-154486412D01*
X239094030Y-154508790D01*
X239070197Y-154513855D01*
X239070192Y-154513857D01*
X238897270Y-154590848D01*
X238897265Y-154590851D01*
X238744129Y-154702111D01*
X238617466Y-154842785D01*
X238522821Y-155006715D01*
X238522818Y-155006722D01*
X238464327Y-155186740D01*
X238464326Y-155186744D01*
X238444540Y-155375000D01*
X238464326Y-155563256D01*
X238464327Y-155563259D01*
X238522818Y-155743277D01*
X238522821Y-155743284D01*
X238617467Y-155907216D01*
X238744129Y-156047888D01*
X238897265Y-156159148D01*
X238897270Y-156159151D01*
X239070192Y-156236142D01*
X239070197Y-156236144D01*
X239255354Y-156275500D01*
X239255355Y-156275500D01*
X239444644Y-156275500D01*
X239444646Y-156275500D01*
X239629803Y-156236144D01*
X239802730Y-156159151D01*
X239955871Y-156047888D01*
X240082533Y-155907216D01*
X240177179Y-155743284D01*
X240235674Y-155563256D01*
X240255460Y-155375000D01*
X240235674Y-155186744D01*
X240177179Y-155006716D01*
X240082533Y-154842784D01*
X239955871Y-154702112D01*
X239955870Y-154702111D01*
X239802734Y-154590851D01*
X239802729Y-154590848D01*
X239629808Y-154513857D01*
X239628107Y-154513495D01*
X239605967Y-154508789D01*
X239544488Y-154475598D01*
X239510711Y-154414436D01*
X239515363Y-154344721D01*
X239556967Y-154288588D01*
X239605966Y-154266210D01*
X239629803Y-154261144D01*
X239629807Y-154261142D01*
X239629808Y-154261142D01*
X239688058Y-154235206D01*
X239802730Y-154184151D01*
X239955871Y-154072888D01*
X240082533Y-153932216D01*
X240177179Y-153768284D01*
X240235674Y-153588256D01*
X240255460Y-153400000D01*
X240235674Y-153211744D01*
X240177179Y-153031716D01*
X240082533Y-152867784D01*
X239955871Y-152727112D01*
X239955870Y-152727111D01*
X239802734Y-152615851D01*
X239802729Y-152615848D01*
X239629807Y-152538857D01*
X239629802Y-152538855D01*
X239484001Y-152507865D01*
X239444646Y-152499500D01*
X239255354Y-152499500D01*
X239222897Y-152506398D01*
X239070197Y-152538855D01*
X239070192Y-152538857D01*
X238897270Y-152615848D01*
X238897265Y-152615851D01*
X238744129Y-152727111D01*
X238617466Y-152867785D01*
X238522821Y-153031715D01*
X238522818Y-153031722D01*
X238464327Y-153211740D01*
X238464326Y-153211744D01*
X238444540Y-153400000D01*
X223000500Y-153400000D01*
X223000500Y-143260118D01*
X223000500Y-143194970D01*
X222964024Y-142988101D01*
X222892179Y-142790709D01*
X222787149Y-142608791D01*
X222717655Y-142525972D01*
X222689642Y-142461964D01*
X222700681Y-142392972D01*
X222747267Y-142340900D01*
X222750587Y-142338912D01*
X222765212Y-142330469D01*
X222830469Y-142265212D01*
X222876614Y-142185288D01*
X222900500Y-142096144D01*
X222900500Y-142003856D01*
X222876614Y-141914712D01*
X222876611Y-141914706D01*
X222830473Y-141834794D01*
X222830470Y-141834791D01*
X222830469Y-141834788D01*
X222765212Y-141769531D01*
X222759465Y-141763784D01*
X222761636Y-141761612D01*
X222729026Y-141716969D01*
X222724859Y-141647224D01*
X222759060Y-141586297D01*
X222761486Y-141584194D01*
X222765209Y-141580470D01*
X222765212Y-141580469D01*
X222830469Y-141515212D01*
X222876614Y-141435288D01*
X222900500Y-141346144D01*
X222900500Y-141253856D01*
X222876614Y-141164712D01*
X222876611Y-141164706D01*
X222830473Y-141084794D01*
X222830470Y-141084791D01*
X222830469Y-141084788D01*
X222765212Y-141019531D01*
X222759465Y-141013784D01*
X222761636Y-141011612D01*
X222729026Y-140966969D01*
X222724859Y-140897224D01*
X222759060Y-140836297D01*
X222761486Y-140834194D01*
X222765209Y-140830470D01*
X222765212Y-140830469D01*
X222830469Y-140765212D01*
X222876614Y-140685288D01*
X222900500Y-140596144D01*
X222900500Y-140503856D01*
X222876614Y-140414712D01*
X222876611Y-140414706D01*
X222830473Y-140334794D01*
X222830470Y-140334791D01*
X222830469Y-140334788D01*
X222765212Y-140269531D01*
X222750641Y-140261118D01*
X222702428Y-140210552D01*
X222689206Y-140141945D01*
X222715174Y-140077081D01*
X222717606Y-140074086D01*
X222787149Y-139991209D01*
X222892179Y-139809291D01*
X222964024Y-139611899D01*
X223000500Y-139405030D01*
X223000500Y-139300000D01*
X232019540Y-139300000D01*
X232039326Y-139488256D01*
X232039327Y-139488259D01*
X232097818Y-139668277D01*
X232097821Y-139668284D01*
X232192467Y-139832216D01*
X232319129Y-139972888D01*
X232472265Y-140084148D01*
X232472270Y-140084151D01*
X232645192Y-140161142D01*
X232645197Y-140161144D01*
X232830354Y-140200500D01*
X232830355Y-140200500D01*
X233019644Y-140200500D01*
X233019646Y-140200500D01*
X233204803Y-140161144D01*
X233377730Y-140084151D01*
X233530871Y-139972888D01*
X233657533Y-139832216D01*
X233752179Y-139668284D01*
X233810674Y-139488256D01*
X233830460Y-139300000D01*
X233810674Y-139111744D01*
X233752179Y-138931716D01*
X233657533Y-138767784D01*
X233530871Y-138627112D01*
X233530870Y-138627111D01*
X233377734Y-138515851D01*
X233377729Y-138515848D01*
X233204807Y-138438857D01*
X233204802Y-138438855D01*
X233059001Y-138407865D01*
X233019646Y-138399500D01*
X232830354Y-138399500D01*
X232797897Y-138406398D01*
X232645197Y-138438855D01*
X232645192Y-138438857D01*
X232472270Y-138515848D01*
X232472265Y-138515851D01*
X232319129Y-138627111D01*
X232192466Y-138767785D01*
X232097821Y-138931715D01*
X232097818Y-138931722D01*
X232043304Y-139099500D01*
X232039326Y-139111744D01*
X232019540Y-139300000D01*
X223000500Y-139300000D01*
X223000500Y-139260118D01*
X223000500Y-135175000D01*
X238419540Y-135175000D01*
X238439326Y-135363256D01*
X238439327Y-135363259D01*
X238497818Y-135543277D01*
X238497821Y-135543284D01*
X238592467Y-135707216D01*
X238719129Y-135847888D01*
X238872265Y-135959148D01*
X238872270Y-135959151D01*
X239045192Y-136036142D01*
X239045197Y-136036144D01*
X239230354Y-136075500D01*
X239230355Y-136075500D01*
X239419644Y-136075500D01*
X239419646Y-136075500D01*
X239604803Y-136036144D01*
X239777730Y-135959151D01*
X239930871Y-135847888D01*
X240057533Y-135707216D01*
X240152179Y-135543284D01*
X240210674Y-135363256D01*
X240230460Y-135175000D01*
X240210674Y-134986744D01*
X240152179Y-134806716D01*
X240057533Y-134642784D01*
X239956508Y-134530585D01*
X239926281Y-134467598D01*
X239929302Y-134443309D01*
X239903699Y-134451360D01*
X239836297Y-134432955D01*
X239828454Y-134427701D01*
X239777733Y-134390850D01*
X239777729Y-134390848D01*
X239604807Y-134313857D01*
X239604802Y-134313855D01*
X239459001Y-134282865D01*
X239419646Y-134274500D01*
X239230354Y-134274500D01*
X239197897Y-134281398D01*
X239045197Y-134313855D01*
X239045192Y-134313857D01*
X238872270Y-134390848D01*
X238872265Y-134390851D01*
X238719129Y-134502111D01*
X238592466Y-134642785D01*
X238497821Y-134806715D01*
X238497818Y-134806722D01*
X238439327Y-134986740D01*
X238439326Y-134986744D01*
X238419540Y-135175000D01*
X223000500Y-135175000D01*
X223000500Y-133600000D01*
X239719540Y-133600000D01*
X239739326Y-133788256D01*
X239739327Y-133788259D01*
X239797818Y-133968277D01*
X239797821Y-133968284D01*
X239892467Y-134132216D01*
X239993489Y-134244412D01*
X240023718Y-134307401D01*
X240020696Y-134331689D01*
X240046300Y-134323639D01*
X240113702Y-134342044D01*
X240121545Y-134347297D01*
X240172270Y-134384151D01*
X240345192Y-134461142D01*
X240345197Y-134461144D01*
X240530354Y-134500500D01*
X240530355Y-134500500D01*
X240719644Y-134500500D01*
X240719646Y-134500500D01*
X240904803Y-134461144D01*
X241077730Y-134384151D01*
X241230871Y-134272888D01*
X241357533Y-134132216D01*
X241452179Y-133968284D01*
X241510674Y-133788256D01*
X241530460Y-133600000D01*
X241510674Y-133411744D01*
X241452179Y-133231716D01*
X241357533Y-133067784D01*
X241230871Y-132927112D01*
X241230870Y-132927111D01*
X241077734Y-132815851D01*
X241077729Y-132815848D01*
X240904807Y-132738857D01*
X240904802Y-132738855D01*
X240759001Y-132707865D01*
X240719646Y-132699500D01*
X240530354Y-132699500D01*
X240497897Y-132706398D01*
X240345197Y-132738855D01*
X240345192Y-132738857D01*
X240172270Y-132815848D01*
X240172265Y-132815851D01*
X240019129Y-132927111D01*
X239892466Y-133067785D01*
X239797821Y-133231715D01*
X239797818Y-133231722D01*
X239739327Y-133411740D01*
X239739326Y-133411744D01*
X239719540Y-133600000D01*
X223000500Y-133600000D01*
X223000500Y-125960118D01*
X223000500Y-125894970D01*
X222964024Y-125688101D01*
X222892179Y-125490709D01*
X222787149Y-125308791D01*
X222717655Y-125225972D01*
X222689642Y-125161964D01*
X222700681Y-125092972D01*
X222747267Y-125040900D01*
X222750587Y-125038912D01*
X222765212Y-125030469D01*
X222830469Y-124965212D01*
X222876614Y-124885288D01*
X222900500Y-124796144D01*
X222900500Y-124703856D01*
X222876614Y-124614712D01*
X222876611Y-124614706D01*
X222830473Y-124534794D01*
X222830470Y-124534791D01*
X222830469Y-124534788D01*
X222765212Y-124469531D01*
X222759465Y-124463784D01*
X222761636Y-124461612D01*
X222729026Y-124416969D01*
X222724859Y-124347224D01*
X222759060Y-124286297D01*
X222761486Y-124284194D01*
X222765209Y-124280470D01*
X222765212Y-124280469D01*
X222830469Y-124215212D01*
X222876614Y-124135288D01*
X222900500Y-124046144D01*
X222900500Y-123953856D01*
X222876614Y-123864712D01*
X222850611Y-123819674D01*
X222830473Y-123784794D01*
X222830470Y-123784791D01*
X222830469Y-123784788D01*
X222765212Y-123719531D01*
X222759465Y-123713784D01*
X222761636Y-123711612D01*
X222729026Y-123666969D01*
X222724859Y-123597224D01*
X222759060Y-123536297D01*
X222761486Y-123534194D01*
X222765209Y-123530470D01*
X222765212Y-123530469D01*
X222830469Y-123465212D01*
X222876614Y-123385288D01*
X222900500Y-123296144D01*
X222900500Y-123203856D01*
X222876614Y-123114712D01*
X222876611Y-123114706D01*
X222830473Y-123034794D01*
X222830470Y-123034791D01*
X222830469Y-123034788D01*
X222765212Y-122969531D01*
X222750641Y-122961118D01*
X222702428Y-122910552D01*
X222689206Y-122841945D01*
X222715174Y-122777081D01*
X222717606Y-122774086D01*
X222787149Y-122691209D01*
X222892179Y-122509291D01*
X222964024Y-122311899D01*
X223000500Y-122105030D01*
X223000500Y-122000000D01*
X223000500Y-121960118D01*
X223000500Y-120504875D01*
X223000882Y-120495146D01*
X223015733Y-120306440D01*
X223018775Y-120287229D01*
X223061826Y-120107910D01*
X223067832Y-120089425D01*
X223138404Y-119919050D01*
X223147237Y-119901716D01*
X223243582Y-119744495D01*
X223255019Y-119728753D01*
X223374781Y-119588530D01*
X223388530Y-119574781D01*
X223528755Y-119455017D01*
X223544495Y-119443582D01*
X223701719Y-119347235D01*
X223719050Y-119338404D01*
X223889425Y-119267832D01*
X223907910Y-119261826D01*
X224087229Y-119218775D01*
X224106434Y-119215733D01*
X224295146Y-119200881D01*
X224304875Y-119200500D01*
X228055026Y-119200500D01*
X228055030Y-119200500D01*
X228261899Y-119164024D01*
X228459291Y-119092179D01*
X228641209Y-118987149D01*
X228724030Y-118917653D01*
X228788034Y-118889642D01*
X228857026Y-118900680D01*
X228909098Y-118947267D01*
X228911104Y-118950616D01*
X228919531Y-118965212D01*
X228984788Y-119030469D01*
X228984791Y-119030470D01*
X228984794Y-119030473D01*
X229064706Y-119076611D01*
X229064707Y-119076611D01*
X229064712Y-119076614D01*
X229153856Y-119100500D01*
X229153858Y-119100500D01*
X229246142Y-119100500D01*
X229246144Y-119100500D01*
X229335288Y-119076614D01*
X229415212Y-119030469D01*
X229480469Y-118965212D01*
X229480469Y-118965211D01*
X229486216Y-118959465D01*
X229488387Y-118961636D01*
X229533031Y-118929026D01*
X229602776Y-118924859D01*
X229663703Y-118959060D01*
X229665805Y-118961486D01*
X229669530Y-118965211D01*
X229669531Y-118965212D01*
X229734788Y-119030469D01*
X229734791Y-119030470D01*
X229734794Y-119030473D01*
X229814706Y-119076611D01*
X229814707Y-119076611D01*
X229814712Y-119076614D01*
X229903856Y-119100500D01*
X229903858Y-119100500D01*
X229996142Y-119100500D01*
X229996144Y-119100500D01*
X230085288Y-119076614D01*
X230165212Y-119030469D01*
X230230469Y-118965212D01*
X230230469Y-118965211D01*
X230236216Y-118959465D01*
X230238387Y-118961636D01*
X230283031Y-118929026D01*
X230352776Y-118924859D01*
X230413703Y-118959060D01*
X230415805Y-118961486D01*
X230419530Y-118965211D01*
X230419531Y-118965212D01*
X230484788Y-119030469D01*
X230484791Y-119030470D01*
X230484794Y-119030473D01*
X230564706Y-119076611D01*
X230564707Y-119076611D01*
X230564712Y-119076614D01*
X230653856Y-119100500D01*
X230653858Y-119100500D01*
X230746142Y-119100500D01*
X230746144Y-119100500D01*
X230835288Y-119076614D01*
X230915212Y-119030469D01*
X230980469Y-118965212D01*
X230988881Y-118950643D01*
X231039443Y-118902430D01*
X231108049Y-118889205D01*
X231172915Y-118915171D01*
X231175972Y-118917655D01*
X231258791Y-118987149D01*
X231440709Y-119092179D01*
X231638101Y-119164024D01*
X231844970Y-119200500D01*
X231844974Y-119200500D01*
X245355026Y-119200500D01*
X245355030Y-119200500D01*
X245561899Y-119164024D01*
X245759291Y-119092179D01*
X245941209Y-118987149D01*
X246024030Y-118917653D01*
X246088034Y-118889642D01*
X246157026Y-118900680D01*
X246209098Y-118947267D01*
X246211104Y-118950616D01*
X246219531Y-118965212D01*
X246284788Y-119030469D01*
X246284791Y-119030470D01*
X246284794Y-119030473D01*
X246364706Y-119076611D01*
X246364707Y-119076611D01*
X246364712Y-119076614D01*
X246453856Y-119100500D01*
X246453858Y-119100500D01*
X246546142Y-119100500D01*
X246546144Y-119100500D01*
X246635288Y-119076614D01*
X246715212Y-119030469D01*
X246780469Y-118965212D01*
X246780469Y-118965211D01*
X246786216Y-118959465D01*
X246788387Y-118961636D01*
X246833031Y-118929026D01*
X246902776Y-118924859D01*
X246963703Y-118959060D01*
X246965805Y-118961486D01*
X246969530Y-118965211D01*
X246969531Y-118965212D01*
X247034788Y-119030469D01*
X247034791Y-119030470D01*
X247034794Y-119030473D01*
X247114706Y-119076611D01*
X247114707Y-119076611D01*
X247114712Y-119076614D01*
X247203856Y-119100500D01*
X247203858Y-119100500D01*
X247296142Y-119100500D01*
X247296144Y-119100500D01*
X247385288Y-119076614D01*
X247465212Y-119030469D01*
X247530469Y-118965212D01*
X247530469Y-118965211D01*
X247536216Y-118959465D01*
X247538387Y-118961636D01*
X247583031Y-118929026D01*
X247652776Y-118924859D01*
X247713703Y-118959060D01*
X247715805Y-118961486D01*
X247719530Y-118965211D01*
X247719531Y-118965212D01*
X247784788Y-119030469D01*
X247784791Y-119030470D01*
X247784794Y-119030473D01*
X247864706Y-119076611D01*
X247864707Y-119076611D01*
X247864712Y-119076614D01*
X247953856Y-119100500D01*
X247953858Y-119100500D01*
X248046142Y-119100500D01*
X248046144Y-119100500D01*
X248135288Y-119076614D01*
X248215212Y-119030469D01*
X248280469Y-118965212D01*
X248288881Y-118950643D01*
X248339443Y-118902430D01*
X248408049Y-118889205D01*
X248472915Y-118915171D01*
G37*
%TD.AperFunction*%
%TD*%
M02*
