M48
; DRILL file {KiCad 8.0.5} date 2025-06-19T13:46:43-0700
; FORMAT={-:-/ absolute / metric / decimal}
; #@! TF.CreationDate,2025-06-19T13:46:43-07:00
; #@! TF.GenerationSoftware,Kicad,Pcbnew,8.0.5
; #@! TF.FileFunction,NonPlated,1,4,NPTH
FMAT,2
METRIC
; #@! TA.AperFunction,NonPlated,NPTH,ComponentDrill
T1C0.500
%
G90
G05
T1
X163.54Y-117.24
X163.54Y-118.74
X163.54Y-201.255
X163.54Y-202.755
X164.29Y-117.24
X164.29Y-118.74
X164.29Y-201.255
X164.29Y-202.755
X165.04Y-117.24
X165.04Y-118.74
X165.04Y-201.255
X165.04Y-202.755
X180.84Y-117.24
X180.84Y-118.74
X180.84Y-201.255
X180.84Y-202.755
X181.59Y-117.24
X181.59Y-118.74
X181.59Y-201.255
X181.59Y-202.755
X182.34Y-117.24
X182.34Y-118.74
X182.34Y-201.255
X182.34Y-202.755
X198.14Y-117.24
X198.14Y-118.74
X198.14Y-201.25
X198.14Y-202.75
X198.89Y-117.24
X198.89Y-118.74
X198.89Y-201.25
X198.89Y-202.75
X199.64Y-117.24
X199.64Y-118.74
X199.64Y-201.25
X199.64Y-202.75
X215.44Y-117.24
X215.44Y-118.74
X215.44Y-201.255
X215.44Y-202.755
X216.19Y-117.24
X216.19Y-118.74
X216.19Y-201.255
X216.19Y-202.755
X216.94Y-117.24
X216.94Y-118.74
X216.94Y-201.255
X216.94Y-202.755
X221.05Y-123.25
X221.05Y-124.0
X221.05Y-124.75
X221.05Y-140.55
X221.05Y-141.3
X221.05Y-142.05
X221.05Y-157.85
X221.05Y-158.6
X221.05Y-159.35
X221.05Y-175.15
X221.05Y-175.9
X221.05Y-176.65
X221.05Y-192.45
X221.05Y-193.2
X221.05Y-193.95
X222.55Y-123.25
X222.55Y-124.0
X222.55Y-124.75
X222.55Y-140.55
X222.55Y-141.3
X222.55Y-142.05
X222.55Y-157.85
X222.55Y-158.6
X222.55Y-159.35
X222.55Y-175.15
X222.55Y-175.9
X222.55Y-176.65
X222.55Y-192.45
X222.55Y-193.2
X222.55Y-193.95
X229.2Y-117.25
X229.2Y-118.75
X229.2Y-201.24
X229.2Y-202.74
X229.95Y-117.25
X229.95Y-118.75
X229.95Y-201.24
X229.95Y-202.74
X230.7Y-117.25
X230.7Y-118.75
X230.7Y-201.24
X230.7Y-202.74
X246.5Y-117.25
X246.5Y-118.75
X246.5Y-201.24
X246.5Y-202.74
X247.25Y-117.25
X247.25Y-118.75
X247.25Y-201.24
X247.25Y-202.74
X248.0Y-117.25
X248.0Y-118.75
X248.0Y-201.24
X248.0Y-202.74
M30
