%TF.GenerationSoftware,KiCad,Pcbnew,8.0.5*%
%TF.CreationDate,2025-06-19T13:46:46-07:00*%
%TF.ProjectId,clock,636c6f63-6b2e-46b6-9963-61645f706362,rev?*%
%TF.SameCoordinates,Original*%
%TF.FileFunction,Profile,NP*%
%FSLAX46Y46*%
G04 Gerber Fmt 4.6, Leading zero omitted, Abs format (unit mm)*
G04 Created by KiCad (PCBNEW 8.0.5) date 2025-06-19 13:46:46*
%MOMM*%
%LPD*%
G01*
G04 APERTURE LIST*
%TA.AperFunction,Profile*%
%ADD10C,0.100000*%
%TD*%
G04 APERTURE END LIST*
D10*
X227950000Y-117000000D02*
G75*
G02*
X227950000Y-119000000I0J-1000000D01*
G01*
X159600000Y-211000000D02*
X254700000Y-211000000D01*
X222800000Y-126000000D02*
X222800000Y-139300000D01*
X231950000Y-117000000D02*
X245250000Y-117000000D01*
X254700000Y-199500000D02*
G75*
G02*
X253200000Y-201000000I-1500000J0D01*
G01*
X162300000Y-203000000D02*
X159600000Y-203000000D01*
X162300000Y-201000000D02*
X161100000Y-201000000D01*
X254700000Y-199500000D02*
X254700000Y-120500000D01*
X224300000Y-119000000D02*
X227950000Y-119000000D01*
X196900000Y-200995000D02*
G75*
G02*
X196900000Y-202995000I0J-1000000D01*
G01*
X220800000Y-160600000D02*
G75*
G02*
X222800000Y-160600000I1000000J0D01*
G01*
X222800000Y-160600000D02*
X222800000Y-173900000D01*
X231950000Y-119000000D02*
X245250000Y-119000000D01*
X224300000Y-201000000D02*
G75*
G02*
X222800000Y-199500000I0J1500000D01*
G01*
X222800000Y-177900000D02*
X222800000Y-191200000D01*
X220800000Y-195200000D02*
X220800000Y-199500000D01*
X222800000Y-122000000D02*
G75*
G02*
X220800000Y-122000000I-1000000J0D01*
G01*
X222800000Y-143300000D02*
X222800000Y-156600000D01*
X218200000Y-117000000D02*
X227950000Y-117000000D01*
X219300000Y-201000000D02*
X218200000Y-201000000D01*
X231950000Y-119000000D02*
G75*
G02*
X231950000Y-117000000I0J1000000D01*
G01*
X218200000Y-203000000D02*
G75*
G02*
X218200000Y-201000000I0J1000000D01*
G01*
X162300000Y-117000000D02*
G75*
G02*
X162300000Y-119000000I0J-1000000D01*
G01*
X200900000Y-119000000D02*
X214200000Y-119000000D01*
X249250000Y-119000000D02*
X253200000Y-119000000D01*
X220800000Y-126000000D02*
X220800000Y-139300000D01*
X183600000Y-119000000D02*
G75*
G02*
X183600000Y-117000000I0J1000000D01*
G01*
X200900000Y-117000000D02*
X214200000Y-117000000D01*
X179600000Y-117000000D02*
G75*
G02*
X179600000Y-119000000I0J-1000000D01*
G01*
X220800000Y-143300000D02*
G75*
G02*
X222800000Y-143300000I1000000J0D01*
G01*
X214200000Y-201000000D02*
X200900000Y-200995000D01*
X214200000Y-201000000D02*
G75*
G02*
X214200000Y-203000000I0J-1000000D01*
G01*
X245250000Y-202975000D02*
X231950000Y-203000000D01*
X220800000Y-143300000D02*
X220800000Y-156600000D01*
X166300000Y-119000000D02*
G75*
G02*
X166300000Y-117000000I0J1000000D01*
G01*
X222800000Y-195200000D02*
X222800000Y-199500000D01*
X161100000Y-119000000D02*
X162300000Y-119000000D01*
X166300000Y-117000000D02*
X179600000Y-117000000D01*
X254700000Y-211000000D02*
X254700000Y-203000000D01*
X249250000Y-203000000D02*
G75*
G02*
X249250000Y-201000000I0J1000000D01*
G01*
X159600000Y-108980000D02*
X159600000Y-116980000D01*
X231950000Y-201000000D02*
X245250000Y-200975000D01*
X249250000Y-119000000D02*
G75*
G02*
X249250000Y-117000000I0J1000000D01*
G01*
X218200000Y-119000000D02*
X219300000Y-119000000D01*
X220800000Y-195200000D02*
G75*
G02*
X222800000Y-195200000I1000000J0D01*
G01*
X159600000Y-116980000D02*
X162300000Y-117000000D01*
X183600000Y-117000000D02*
X196900000Y-117000000D01*
X222800000Y-173900000D02*
G75*
G02*
X220800000Y-173900000I-1000000J0D01*
G01*
X219300000Y-119000000D02*
G75*
G02*
X220800000Y-120500000I0J-1500000D01*
G01*
X249250000Y-201000000D02*
X253200000Y-201000000D01*
X249250000Y-203000000D02*
X254700000Y-203000000D01*
X218200000Y-119000000D02*
G75*
G02*
X218200000Y-117000000I0J1000000D01*
G01*
X166300000Y-203000000D02*
G75*
G02*
X166300000Y-201000000I0J1000000D01*
G01*
X253200000Y-119000000D02*
G75*
G02*
X254700000Y-120500000I0J-1500000D01*
G01*
X218200000Y-203000000D02*
X227950000Y-203000000D01*
X159600000Y-203000000D02*
X159600000Y-211000000D01*
X220800000Y-177900000D02*
X220800000Y-191200000D01*
X222800000Y-191200000D02*
G75*
G02*
X220800000Y-191200000I-1000000J0D01*
G01*
X222800000Y-156600000D02*
G75*
G02*
X220800000Y-156600000I-1000000J0D01*
G01*
X254700000Y-116980000D02*
X254700000Y-108980000D01*
X214200000Y-117000000D02*
G75*
G02*
X214200000Y-119000000I0J-1000000D01*
G01*
X159600000Y-120500000D02*
X159600000Y-199500000D01*
X162300000Y-201000000D02*
G75*
G02*
X162300000Y-203000000I0J-1000000D01*
G01*
X254700000Y-108980000D02*
X159600000Y-108980000D01*
X200900000Y-202995000D02*
X214200000Y-203000000D01*
X222800000Y-120500000D02*
G75*
G02*
X224300000Y-119000000I1500000J0D01*
G01*
X227950000Y-201000000D02*
G75*
G02*
X227950000Y-203000000I0J-1000000D01*
G01*
X179600000Y-201000000D02*
G75*
G02*
X179600000Y-203000000I0J-1000000D01*
G01*
X183600000Y-119000000D02*
X196900000Y-119000000D01*
X183600000Y-201000000D02*
X196900000Y-200995000D01*
X220800000Y-160600000D02*
X220800000Y-173900000D01*
X231950000Y-203000000D02*
G75*
G02*
X231950000Y-201000000I0J1000000D01*
G01*
X220800000Y-120500000D02*
X220800000Y-122000000D01*
X161100000Y-201000000D02*
G75*
G02*
X159600000Y-199500000I0J1500000D01*
G01*
X224300000Y-201000000D02*
X227950000Y-201000000D01*
X245250000Y-200975000D02*
G75*
G02*
X245250000Y-202975000I0J-1000000D01*
G01*
X196900000Y-117000000D02*
G75*
G02*
X196900000Y-119000000I0J-1000000D01*
G01*
X183600000Y-203000000D02*
G75*
G02*
X183600000Y-201000000I0J1000000D01*
G01*
X249250000Y-117000000D02*
X254700000Y-116980000D01*
X183600000Y-203000000D02*
X196900000Y-202995000D01*
X179600000Y-201000000D02*
X166300000Y-201000000D01*
X200900000Y-202995000D02*
G75*
G02*
X200900000Y-200995000I0J1000000D01*
G01*
X159600000Y-120500000D02*
G75*
G02*
X161100000Y-119000000I1500000J0D01*
G01*
X222800000Y-139300000D02*
G75*
G02*
X220800000Y-139300000I-1000000J0D01*
G01*
X220800000Y-126000000D02*
G75*
G02*
X222800000Y-126000000I1000000J0D01*
G01*
X220800000Y-177900000D02*
G75*
G02*
X222800000Y-177900000I1000000J0D01*
G01*
X222800000Y-120500000D02*
X222800000Y-122000000D01*
X166300000Y-119000000D02*
X179600000Y-119000000D01*
X220800000Y-199500000D02*
G75*
G02*
X219300000Y-201000000I-1500000J0D01*
G01*
X166300000Y-203000000D02*
X179600000Y-203000000D01*
X200900000Y-119000000D02*
G75*
G02*
X200900000Y-117000000I0J1000000D01*
G01*
X245250000Y-117000000D02*
G75*
G02*
X245250000Y-119000000I0J-1000000D01*
G01*
M02*
