M48
; DRILL file {KiCad 8.0.5} date 2025-06-19T13:46:43-0700
; FORMAT={-:-/ absolute / metric / decimal}
; #@! TF.CreationDate,2025-06-19T13:46:43-07:00
; #@! TF.GenerationSoftware,Kicad,Pcbnew,8.0.5
; #@! TF.FileFunction,Plated,1,4,PTH
FMAT,2
METRIC
; #@! TA.AperFunction,Plated,PTH,ViaDrill
T1C0.400
; #@! TA.AperFunction,Plated,PTH,ComponentDrill
T2C1.000
%
G90
G05
T1
X170.025Y-193.4
X171.625Y-167.4
X171.875Y-133.575
X173.425Y-187.4
X173.45Y-155.85
X173.45Y-163.225
X174.875Y-130.725
X177.35Y-186.525
X177.65Y-153.025
X178.125Y-127.45
X178.325Y-193.45
X179.1Y-155.975
X180.4Y-163.825
X180.425Y-195.3
X180.475Y-130.25
X199.575Y-158.25
X199.85Y-191.4
X199.95Y-124.825
X201.85Y-129.425
X202.575Y-161.8
X202.7Y-133.525
X202.875Y-154.0
X203.0Y-167.05
X203.325Y-191.525
X204.575Y-132.125
X206.95Y-166.275
X208.225Y-189.65
X208.65Y-152.775
X208.8Y-186.45
X211.625Y-191.65
X232.925Y-139.3
X233.05Y-172.075
X239.325Y-135.175
X239.35Y-153.4
X239.35Y-155.375
X239.35Y-166.875
X239.35Y-168.6
X239.35Y-186.9
X239.35Y-189.75
X240.625Y-133.6
X245.675Y-149.3
X245.825Y-182.625
T2
X162.4Y-157.46
X162.4Y-160.0
X162.4Y-162.54
X218.0Y-157.46
X218.0Y-160.0
X218.0Y-162.54
X225.58Y-157.46
X225.58Y-160.0
X225.58Y-162.54
X251.87Y-157.46
X251.87Y-160.0
X251.87Y-162.54
M30
