%TF.GenerationSoftware,KiCad,Pcbnew,8.0.5*%
%TF.CreationDate,2025-06-19T13:46:46-07:00*%
%TF.ProjectId,clock,636c6f63-6b2e-46b6-9963-61645f706362,rev?*%
%TF.SameCoordinates,Original*%
%TF.FileFunction,Soldermask,Bot*%
%TF.FilePolarity,Negative*%
%FSLAX46Y46*%
G04 Gerber Fmt 4.6, Leading zero omitted, Abs format (unit mm)*
G04 Created by KiCad (PCBNEW 8.0.5) date 2025-06-19 13:46:46*
%MOMM*%
%LPD*%
G01*
G04 APERTURE LIST*
%ADD10C,0.500000*%
%ADD11R,1.700000X1.700000*%
%ADD12O,1.700000X1.700000*%
G04 APERTURE END LIST*
D10*
%TO.C,mouse-bite-2mm-slot14*%
X221050000Y-193950000D03*
X222550000Y-193950000D03*
X221050000Y-193200000D03*
X222550000Y-193200000D03*
X221050000Y-192450000D03*
X222550000Y-192450000D03*
%TD*%
%TO.C,mouse-bite-2mm-slot9*%
X229200000Y-201240000D03*
X229200000Y-202740000D03*
X229950000Y-201240000D03*
X229950000Y-202740000D03*
X230700000Y-201240000D03*
X230700000Y-202740000D03*
%TD*%
%TO.C,mouse-bite-2mm-slot13*%
X221050000Y-176650000D03*
X222550000Y-176650000D03*
X221050000Y-175900000D03*
X222550000Y-175900000D03*
X221050000Y-175150000D03*
X222550000Y-175150000D03*
%TD*%
%TO.C,mouse-bite-2mm-slot1*%
X180840000Y-117240000D03*
X180840000Y-118740000D03*
X181590000Y-117240000D03*
X181590000Y-118740000D03*
X182340000Y-117240000D03*
X182340000Y-118740000D03*
%TD*%
%TO.C,mouse-bite-2mm-slot3*%
X229200000Y-117250000D03*
X229200000Y-118750000D03*
X229950000Y-117250000D03*
X229950000Y-118750000D03*
X230700000Y-117250000D03*
X230700000Y-118750000D03*
%TD*%
%TO.C,mouse-bite-2mm-slot12*%
X221050000Y-159350000D03*
X222550000Y-159350000D03*
X221050000Y-158600000D03*
X222550000Y-158600000D03*
X221050000Y-157850000D03*
X222550000Y-157850000D03*
%TD*%
%TO.C,mouse-bite-2mm-slot6*%
X198140000Y-201250000D03*
X198140000Y-202750000D03*
X198890000Y-201250000D03*
X198890000Y-202750000D03*
X199640000Y-201250000D03*
X199640000Y-202750000D03*
%TD*%
D11*
%TO.C,J7*%
X251870000Y-157460000D03*
D12*
X251870000Y-160000000D03*
X251870000Y-162540000D03*
%TD*%
D11*
%TO.C,J5*%
X218000000Y-157460000D03*
D12*
X218000000Y-160000000D03*
X218000000Y-162540000D03*
%TD*%
D10*
%TO.C,mouse-bite-2mm-slot8*%
X246500000Y-117250000D03*
X246500000Y-118750000D03*
X247250000Y-117250000D03*
X247250000Y-118750000D03*
X248000000Y-117250000D03*
X248000000Y-118750000D03*
%TD*%
%TO.C,mouse-bite-2mm-slot4*%
X163540000Y-201255000D03*
X163540000Y-202755000D03*
X164290000Y-201255000D03*
X164290000Y-202755000D03*
X165040000Y-201255000D03*
X165040000Y-202755000D03*
%TD*%
%TO.C,mouse-bite-2mm-slot11*%
X221050000Y-142050000D03*
X222550000Y-142050000D03*
X221050000Y-141300000D03*
X222550000Y-141300000D03*
X221050000Y-140550000D03*
X222550000Y-140550000D03*
%TD*%
%TO.C,mouse-bite-2mm-slot10*%
X246500000Y-201240000D03*
X246500000Y-202740000D03*
X247250000Y-201240000D03*
X247250000Y-202740000D03*
X248000000Y-201240000D03*
X248000000Y-202740000D03*
%TD*%
%TO.C,mouse-bite-2mm-slot5*%
X180840000Y-201255000D03*
X180840000Y-202755000D03*
X181590000Y-201255000D03*
X181590000Y-202755000D03*
X182340000Y-201255000D03*
X182340000Y-202755000D03*
%TD*%
%TO.C,mouse-bite-2mm-slot3*%
X215440000Y-117240000D03*
X215440000Y-118740000D03*
X216190000Y-117240000D03*
X216190000Y-118740000D03*
X216940000Y-117240000D03*
X216940000Y-118740000D03*
%TD*%
D11*
%TO.C,J6*%
X225580000Y-157460000D03*
D12*
X225580000Y-160000000D03*
X225580000Y-162540000D03*
%TD*%
D10*
%TO.C,mouse-bite-2mm-slot3*%
X221050000Y-124750000D03*
X222550000Y-124750000D03*
X221050000Y-124000000D03*
X222550000Y-124000000D03*
X221050000Y-123250000D03*
X222550000Y-123250000D03*
%TD*%
%TO.C,mouse-bite-2mm-slot*%
X163540000Y-117240000D03*
X163540000Y-118740000D03*
X164290000Y-117240000D03*
X164290000Y-118740000D03*
X165040000Y-117240000D03*
X165040000Y-118740000D03*
%TD*%
%TO.C,mouse-bite-2mm-slot7*%
X215440000Y-201255000D03*
X215440000Y-202755000D03*
X216190000Y-201255000D03*
X216190000Y-202755000D03*
X216940000Y-201255000D03*
X216940000Y-202755000D03*
%TD*%
%TO.C,mouse-bite-2mm-slot2*%
X198140000Y-117240000D03*
X198140000Y-118740000D03*
X198890000Y-117240000D03*
X198890000Y-118740000D03*
X199640000Y-117240000D03*
X199640000Y-118740000D03*
%TD*%
D11*
%TO.C,J1*%
X162400000Y-157460000D03*
D12*
X162400000Y-160000000D03*
X162400000Y-162540000D03*
%TD*%
M02*
